<?xml version="1.0" standalone="no"?>
<!DOCTYPE svg PUBLIC "-//W3C//DTD SVG 1.1//EN" "http://www.w3.org/Graphics/SVG/1.1/DTD/svg11.dtd" >
<svg xmlns="http://www.w3.org/2000/svg" xmlns:xlink="http://www.w3.org/1999/xlink" version="1.1">
<metadata>
Created by FontForge 20201107 at Tue Jun 24 17:25:25 2014
 By Jimmy Wärting
Copyright (c) 2014 by AbdoFonts. All rights reserved.
</metadata>
<defs>
<font id="AbdoMaster-Regular" horiz-adv-x="0" >
  <font-face 
    font-family="AbdoMaster-Regular"
    font-weight="400"
    font-stretch="normal"
    units-per-em="700"
    panose-1="2 0 5 0 3 0 0 2 0 4"
    ascent="535"
    descent="-165"
    x-height="380"
    cap-height="520"
    bbox="-188 -518 1470 796"
    underline-thickness="55"
    underline-position="-100"
    unicode-range="U+0020-FEFA"
  />
<missing-glyph horiz-adv-x="592" 
d="M108 365h-21v-47h-37v146h95v-146h-37v47zM490 -40h-37v87h-21v-87h-37v87h-21v-87h-37v106h153v-106zM165 464h37v-40h58v-106h-95v146zM375 318h-95v106h58v40h37v-146zM490 318h-95v106h95v-106zM235 117h-95v106h95v-106zM317 -40h-95v106h95v-106zM350 117h-37v87
h-21v-87h-37v106h95v-106zM107 66h95v-34h-37v15h-21v-68h21v15h37v-34h-95v106zM484 204v-24h58v-63h-95v19h58v25h-58v62h95v-19h-58zM87 164v-47h-37v146h75v-19h-38v-61h38v-19h-38zM407 204v-87h-37v146h37v-40h25v-19h-25zM317 337h21v68h-21v-68zM177 136h21v68h-21
v-68zM202 337h21v68h-21v-68zM259 -21h21v68h-21v-68zM432 337h21v68h-21v-68zM87 384h21v61h-21v-61zM87 -40h-37v29h37v-29z" />
    <glyph glyph-name="hmzyehf" unicode="&#xfe8c;&#xfef2;" horiz-adv-x="840" arabic-form="final" 
d="M330 100q0 39 15 74t40.5 60.5t60.5 40.5t74 15h168l53 -230h99v-60h-149l-51 230h-120q-27 0 -50.5 -10t-41.5 -28t-28 -41.5t-10 -50.5v-10h120q21 0 35.5 -14.5t14.5 -35.5v-20q0 -38 -14 -70.5t-38.5 -57t-57.5 -38.5t-70 -14h-130q-38 0 -70.5 14t-57 38.5t-38.5 57
t-14 70.5v120h60v-120q0 -25 9.5 -46.5t26 -38t38 -26t46.5 -9.5h130q25 0 46.5 9.5t38 26t26 38t9.5 46.5v10h-120q-21 0 -35.5 14.5t-14.5 35.5v20zM598 485q-7 5 -18 9t-21 4q-22 0 -22 -16q0 -11 13 -25t35 -21h35v-36h-120v36h29q-26 24 -26 52q0 17 13 29.5t36 12.5
q14 0 31 -5.5t31 -13.5zM248 -208l49 -45l-42 -38l-50 44zM368 -208l49 -45l-42 -38l-50 44z" />
    <glyph glyph-name="hmzmaksuraf" unicode="&#xfe8c;&#xfef0;" horiz-adv-x="840" arabic-form="final" 
d="M330 100q0 39 15 74t40.5 60.5t60.5 40.5t74 15h168l53 -230h99v-60h-149l-51 230h-120q-27 0 -50.5 -10t-41.5 -28t-28 -41.5t-10 -50.5v-10h120q21 0 35.5 -14.5t14.5 -35.5v-20q0 -38 -14 -70.5t-38.5 -57t-57.5 -38.5t-70 -14h-130q-38 0 -70.5 14t-57 38.5t-38.5 57
t-14 70.5v120h60v-120q0 -25 9.5 -46.5t26 -38t38 -26t46.5 -9.5h130q25 0 46.5 9.5t38 26t26 38t9.5 46.5v10h-120q-21 0 -35.5 14.5t-14.5 35.5v20zM598 485q-7 5 -18 9t-21 4q-22 0 -22 -16q0 -11 13 -25t35 -21h35v-36h-120v36h29q-26 24 -26 52q0 17 13 29.5t36 12.5
q14 0 31 -5.5t31 -13.5z" />
    <glyph glyph-name="tehmaksuraf" unicode="&#xfe98;&#xfef0;" horiz-adv-x="840" arabic-form="final" 
d="M330 100q0 39 15 74t40.5 60.5t60.5 40.5t74 15h168l53 -230h99v-60h-149l-51 230h-120q-27 0 -50.5 -10t-41.5 -28t-28 -41.5t-10 -50.5v-10h120q21 0 35.5 -14.5t14.5 -35.5v-20q0 -38 -14 -70.5t-38.5 -57t-57.5 -38.5t-70 -14h-130q-38 0 -70.5 14t-57 38.5t-38.5 57
t-14 70.5v120h60v-120q0 -25 9.5 -46.5t26 -38t38 -26t46.5 -9.5h130q25 0 46.5 9.5t38 26t26 38t9.5 46.5v10h-120q-21 0 -35.5 14.5t-14.5 35.5v20zM498 492l49 -50l-42 -42l-50 49zM618 492l49 -50l-42 -42l-50 49z" />
    <glyph glyph-name="tehyehf" unicode="&#xfe98;&#xfef2;" horiz-adv-x="840" arabic-form="final" 
d="M330 100q0 39 15 74t40.5 60.5t60.5 40.5t74 15h168l53 -230h99v-60h-149l-51 230h-120q-27 0 -50.5 -10t-41.5 -28t-28 -41.5t-10 -50.5v-10h120q21 0 35.5 -14.5t14.5 -35.5v-20q0 -38 -14 -70.5t-38.5 -57t-57.5 -38.5t-70 -14h-130q-38 0 -70.5 14t-57 38.5t-38.5 57
t-14 70.5v120h60v-120q0 -25 9.5 -46.5t26 -38t38 -26t46.5 -9.5h130q25 0 46.5 9.5t38 26t26 38t9.5 46.5v10h-120q-21 0 -35.5 14.5t-14.5 35.5v20zM498 492l49 -50l-42 -42l-50 49zM618 492l49 -50l-42 -42l-50 49zM248 -208l49 -45l-42 -38l-50 44zM368 -208l49 -45
l-42 -38l-50 44z" />
    <glyph glyph-name="thehmaksuraf" unicode="&#xfe9c;&#xfef0;" horiz-adv-x="840" arabic-form="final" 
d="M330 100q0 39 15 74t40.5 60.5t60.5 40.5t74 15h168l53 -230h99v-60h-149l-51 230h-120q-27 0 -50.5 -10t-41.5 -28t-28 -41.5t-10 -50.5v-10h120q21 0 35.5 -14.5t14.5 -35.5v-20q0 -38 -14 -70.5t-38.5 -57t-57.5 -38.5t-70 -14h-130q-38 0 -70.5 14t-57 38.5t-38.5 57
t-14 70.5v120h60v-120q0 -25 9.5 -46.5t26 -38t38 -26t46.5 -9.5h130q25 0 46.5 9.5t38 26t26 38t9.5 46.5v10h-120q-21 0 -35.5 14.5t-14.5 35.5v20zM553 572l49 -50l-42 -42l-50 49zM498 472l49 -50l-42 -42l-50 49zM618 472l49 -50l-42 -42l-50 49z" />
    <glyph glyph-name="thehyehf" unicode="&#xfe9c;&#xfef2;" horiz-adv-x="840" arabic-form="final" 
d="M330 100q0 39 15 74t40.5 60.5t60.5 40.5t74 15h168l53 -230h99v-60h-149l-51 230h-120q-27 0 -50.5 -10t-41.5 -28t-28 -41.5t-10 -50.5v-10h120q21 0 35.5 -14.5t14.5 -35.5v-20q0 -38 -14 -70.5t-38.5 -57t-57.5 -38.5t-70 -14h-130q-38 0 -70.5 14t-57 38.5t-38.5 57
t-14 70.5v120h60v-120q0 -25 9.5 -46.5t26 -38t38 -26t46.5 -9.5h130q25 0 46.5 9.5t38 26t26 38t9.5 46.5v10h-120q-21 0 -35.5 14.5t-14.5 35.5v20zM553 572l49 -50l-42 -42l-50 49zM498 472l49 -50l-42 -42l-50 49zM618 472l49 -50l-42 -42l-50 49zM248 -208l49 -45
l-42 -38l-50 44zM368 -208l49 -45l-42 -38l-50 44z" />
    <glyph glyph-name="seenmaksura" unicode="&#xfeb3;&#xfef0;" horiz-adv-x="1220" arabic-form="isolated" 
d="M330 110q0 39 15 74t40.5 60.5t60.5 40.5t74 15h210v-220q0 -8 6 -14t14 -6h130v250h60v-250h130q8 0 14 6t6 14v230h60v-230q0 -33 -23.5 -56.5t-56.5 -23.5h-320q-33 0 -56.5 23.5t-23.5 56.5v160h-150q-27 0 -50.5 -10t-41.5 -28t-28 -41.5t-10 -50.5v-10h120
q21 0 35.5 -14.5t14.5 -35.5v-30q0 -38 -14 -70.5t-38.5 -57t-57.5 -38.5t-70 -14h-130q-38 0 -70.5 14t-57 38.5t-38.5 57t-14 70.5v120h60v-120q0 -25 9.5 -46.5t26 -38t38 -26t46.5 -9.5h130q25 0 46.5 9.5t38 26t26 38t9.5 46.5v20h-120q-21 0 -35.5 14.5t-14.5 35.5v20
z" />
    <glyph glyph-name="seenyeh" unicode="&#xfeb3;&#xfef2;" horiz-adv-x="1220" arabic-form="isolated" 
d="M330 110q0 39 15 74t40.5 60.5t60.5 40.5t74 15h210v-220q0 -8 6 -14t14 -6h130v250h60v-250h130q8 0 14 6t6 14v230h60v-230q0 -33 -23.5 -56.5t-56.5 -23.5h-320q-33 0 -56.5 23.5t-23.5 56.5v160h-150q-27 0 -50.5 -10t-41.5 -28t-28 -41.5t-10 -50.5v-10h120
q21 0 35.5 -14.5t14.5 -35.5v-30q0 -38 -14 -70.5t-38.5 -57t-57.5 -38.5t-70 -14h-130q-38 0 -70.5 14t-57 38.5t-38.5 57t-14 70.5v120h60v-120q0 -25 9.5 -46.5t26 -38t38 -26t46.5 -9.5h130q25 0 46.5 9.5t38 26t26 38t9.5 46.5v20h-120q-21 0 -35.5 14.5t-14.5 35.5v20
zM248 -198l49 -45l-42 -38l-50 44zM368 -198l49 -45l-42 -38l-50 44z" />
    <glyph glyph-name="sheenmaksura" unicode="&#xfeb7;&#xfef0;" horiz-adv-x="1220" arabic-form="isolated" 
d="M330 110q0 39 15 74t40.5 60.5t60.5 40.5t74 15h210v-220q0 -8 6 -14t14 -6h130v250h60v-250h130q8 0 14 6t6 14v230h60v-230q0 -33 -23.5 -56.5t-56.5 -23.5h-320q-33 0 -56.5 23.5t-23.5 56.5v160h-150q-27 0 -50.5 -10t-41.5 -28t-28 -41.5t-10 -50.5v-10h120
q21 0 35.5 -14.5t14.5 -35.5v-30q0 -38 -14 -70.5t-38.5 -57t-57.5 -38.5t-70 -14h-130q-38 0 -70.5 14t-57 38.5t-38.5 57t-14 70.5v120h60v-120q0 -25 9.5 -46.5t26 -38t38 -26t46.5 -9.5h130q25 0 46.5 9.5t38 26t26 38t9.5 46.5v20h-120q-21 0 -35.5 14.5t-14.5 35.5v20
zM903 572l49 -50l-42 -42l-50 49zM848 472l49 -50l-42 -42l-50 49zM968 472l49 -50l-42 -42l-50 49z" />
    <glyph glyph-name="sheenyeh" unicode="&#xfeb7;&#xfef2;" horiz-adv-x="1220" arabic-form="isolated" 
d="M330 110q0 39 15 74t40.5 60.5t60.5 40.5t74 15h210v-220q0 -8 6 -14t14 -6h130v250h60v-250h130q8 0 14 6t6 14v230h60v-230q0 -33 -23.5 -56.5t-56.5 -23.5h-320q-33 0 -56.5 23.5t-23.5 56.5v160h-150q-27 0 -50.5 -10t-41.5 -28t-28 -41.5t-10 -50.5v-10h120
q21 0 35.5 -14.5t14.5 -35.5v-30q0 -38 -14 -70.5t-38.5 -57t-57.5 -38.5t-70 -14h-130q-38 0 -70.5 14t-57 38.5t-38.5 57t-14 70.5v120h60v-120q0 -25 9.5 -46.5t26 -38t38 -26t46.5 -9.5h130q25 0 46.5 9.5t38 26t26 38t9.5 46.5v20h-120q-21 0 -35.5 14.5t-14.5 35.5v20
zM903 572l49 -50l-42 -42l-50 49zM848 472l49 -50l-42 -42l-50 49zM968 472l49 -50l-42 -42l-50 49zM248 -198l49 -45l-42 -38l-50 44zM368 -198l49 -45l-42 -38l-50 44z" />
    <glyph glyph-name="sadmaksura" unicode="&#xfebb;&#xfef0;" horiz-adv-x="1220" arabic-form="isolated" 
d="M694 0l-54 230h-120q-27 0 -50.5 -10t-41.5 -28t-28 -41.5t-10 -50.5v-10h120q21 0 35.5 -14.5t14.5 -35.5v-20q0 -38 -14 -70.5t-38.5 -57t-57.5 -38.5t-70 -14h-130q-38 0 -70.5 14t-57 38.5t-38.5 57t-14 70.5v120h60v-120q0 -25 9.5 -46.5t26 -38t38 -26t46.5 -9.5
h130q25 0 46.5 9.5t38 26t26 38t9.5 46.5v10h-120q-21 0 -35.5 14.5t-14.5 35.5v20q0 39 15 74t40.5 60.5t60.5 40.5t74 15h168l32 -139l84 67q44 35 75.5 55.5t54.5 31t41 13t35 2.5q28 0 53.5 -11t45 -30.5t30.5 -45t11 -53.5v-100q0 -17 -6.5 -31.5t-17.5 -25.5
t-25.5 -17t-30.5 -6h-376zM1070 60q8 0 14 6t6 14v100q0 33 -23.5 56.5t-56.5 23.5q-13 0 -26.5 -2.5t-32 -12t-45 -27t-65.5 -47.5l-106 -83l7 -28h328z" />
    <glyph glyph-name="sadyeh" unicode="&#xfebb;&#xfef2;" horiz-adv-x="1220" arabic-form="isolated" 
d="M694 0l-54 230h-120q-27 0 -50.5 -10t-41.5 -28t-28 -41.5t-10 -50.5v-10h120q21 0 35.5 -14.5t14.5 -35.5v-20q0 -38 -14 -70.5t-38.5 -57t-57.5 -38.5t-70 -14h-130q-38 0 -70.5 14t-57 38.5t-38.5 57t-14 70.5v120h60v-120q0 -25 9.5 -46.5t26 -38t38 -26t46.5 -9.5
h130q25 0 46.5 9.5t38 26t26 38t9.5 46.5v10h-120q-21 0 -35.5 14.5t-14.5 35.5v20q0 39 15 74t40.5 60.5t60.5 40.5t74 15h168l32 -139l84 67q44 35 75.5 55.5t54.5 31t41 13t35 2.5q28 0 53.5 -11t45 -30.5t30.5 -45t11 -53.5v-100q0 -17 -6.5 -31.5t-17.5 -25.5
t-25.5 -17t-30.5 -6h-376zM1070 60q8 0 14 6t6 14v100q0 33 -23.5 56.5t-56.5 23.5q-13 0 -26.5 -2.5t-32 -12t-45 -27t-65.5 -47.5l-106 -83l7 -28h328zM248 -197l49 -45l-42 -38l-50 44zM368 -197l49 -45l-42 -38l-50 44z" />
    <glyph glyph-name="dadmaksura" unicode="&#xfebf;&#xfef0;" horiz-adv-x="1220" arabic-form="isolated" 
d="M694 0l-54 230h-120q-27 0 -50.5 -10t-41.5 -28t-28 -41.5t-10 -50.5v-10h120q21 0 35.5 -14.5t14.5 -35.5v-20q0 -38 -14 -70.5t-38.5 -57t-57.5 -38.5t-70 -14h-130q-38 0 -70.5 14t-57 38.5t-38.5 57t-14 70.5v120h60v-120q0 -25 9.5 -46.5t26 -38t38 -26t46.5 -9.5
h130q25 0 46.5 9.5t38 26t26 38t9.5 46.5v10h-120q-21 0 -35.5 14.5t-14.5 35.5v20q0 39 15 74t40.5 60.5t60.5 40.5t74 15h168l32 -139l84 67q44 35 75.5 55.5t54.5 31t41 13t35 2.5q28 0 53.5 -11t45 -30.5t30.5 -45t11 -53.5v-100q0 -17 -6.5 -31.5t-17.5 -25.5
t-25.5 -17t-30.5 -6h-376zM1070 60q8 0 14 6t6 14v100q0 33 -23.5 56.5t-56.5 23.5q-13 0 -26.5 -2.5t-32 -12t-45 -27t-65.5 -47.5l-106 -83l7 -28h328zM833 492l49 -50l-42 -42l-50 49z" />
    <glyph glyph-name="dadyeh" unicode="&#xfebf;&#xfef2;" horiz-adv-x="1220" arabic-form="isolated" 
d="M694 0l-54 230h-120q-27 0 -50.5 -10t-41.5 -28t-28 -41.5t-10 -50.5v-10h120q21 0 35.5 -14.5t14.5 -35.5v-20q0 -38 -14 -70.5t-38.5 -57t-57.5 -38.5t-70 -14h-130q-38 0 -70.5 14t-57 38.5t-38.5 57t-14 70.5v120h60v-120q0 -25 9.5 -46.5t26 -38t38 -26t46.5 -9.5
h130q25 0 46.5 9.5t38 26t26 38t9.5 46.5v10h-120q-21 0 -35.5 14.5t-14.5 35.5v20q0 39 15 74t40.5 60.5t60.5 40.5t74 15h168l32 -139l84 67q44 35 75.5 55.5t54.5 31t41 13t35 2.5q28 0 53.5 -11t45 -30.5t30.5 -45t11 -53.5v-100q0 -17 -6.5 -31.5t-17.5 -25.5
t-25.5 -17t-30.5 -6h-376zM1070 60q8 0 14 6t6 14v100q0 33 -23.5 56.5t-56.5 23.5q-13 0 -26.5 -2.5t-32 -12t-45 -27t-65.5 -47.5l-106 -83l7 -28h328zM248 -198l49 -45l-42 -38l-50 44zM368 -198l49 -45l-42 -38l-50 44zM873 492l49 -50l-42 -42l-50 49z" />
    <glyph glyph-name="seenmaksuraf" unicode="&#xfeb4;&#xfef0;" horiz-adv-x="1260" arabic-form="final" 
d="M330 110q0 39 15 74t40.5 60.5t60.5 40.5t74 15h210v-220q0 -8 6 -14t14 -6h130v250h60v-250h150v250h60v-250h110v-60h-510q-33 0 -56.5 23.5t-23.5 56.5v160h-150q-27 0 -50.5 -10t-41.5 -28t-28 -41.5t-10 -50.5v-10h120q21 0 35.5 -14.5t14.5 -35.5v-30
q0 -38 -14 -70.5t-38.5 -57t-57.5 -38.5t-70 -14h-130q-38 0 -70.5 14t-57 38.5t-38.5 57t-14 70.5v120h60v-120q0 -25 9.5 -46.5t26 -38t38 -26t46.5 -9.5h130q25 0 46.5 9.5t38 26t26 38t9.5 46.5v20h-120q-21 0 -35.5 14.5t-14.5 35.5v20z" />
    <glyph glyph-name="seenyehf" unicode="&#xfeb4;&#xfef2;" horiz-adv-x="1260" arabic-form="final" 
d="M330 110q0 39 15 74t40.5 60.5t60.5 40.5t74 15h210v-220q0 -8 6 -14t14 -6h130v250h60v-250h150v250h60v-250h110v-60h-510q-33 0 -56.5 23.5t-23.5 56.5v160h-150q-27 0 -50.5 -10t-41.5 -28t-28 -41.5t-10 -50.5v-10h120q21 0 35.5 -14.5t14.5 -35.5v-30
q0 -38 -14 -70.5t-38.5 -57t-57.5 -38.5t-70 -14h-130q-38 0 -70.5 14t-57 38.5t-38.5 57t-14 70.5v120h60v-120q0 -25 9.5 -46.5t26 -38t38 -26t46.5 -9.5h130q25 0 46.5 9.5t38 26t26 38t9.5 46.5v20h-120q-21 0 -35.5 14.5t-14.5 35.5v20zM248 -198l49 -45l-42 -38
l-50 44zM368 -198l49 -45l-42 -38l-50 44z" />
    <glyph glyph-name="sheenmaksuraf" unicode="&#xfeb8;&#xfef0;" horiz-adv-x="1260" arabic-form="final" 
d="M330 110q0 39 15 74t40.5 60.5t60.5 40.5t74 15h210v-220q0 -8 6 -14t14 -6h130v250h60v-250h150v250h60v-250h110v-60h-510q-33 0 -56.5 23.5t-23.5 56.5v160h-150q-27 0 -50.5 -10t-41.5 -28t-28 -41.5t-10 -50.5v-10h120q21 0 35.5 -14.5t14.5 -35.5v-30
q0 -38 -14 -70.5t-38.5 -57t-57.5 -38.5t-70 -14h-130q-38 0 -70.5 14t-57 38.5t-38.5 57t-14 70.5v120h60v-120q0 -25 9.5 -46.5t26 -38t38 -26t46.5 -9.5h130q25 0 46.5 9.5t38 26t26 38t9.5 46.5v20h-120q-21 0 -35.5 14.5t-14.5 35.5v20zM903 572l49 -50l-42 -42l-50 49
zM848 472l49 -50l-42 -42l-50 49zM968 472l49 -50l-42 -42l-50 49z" />
    <glyph glyph-name="sheenyehf" unicode="&#xfeb8;&#xfef2;" horiz-adv-x="1260" arabic-form="final" 
d="M330 110q0 39 15 74t40.5 60.5t60.5 40.5t74 15h210v-220q0 -8 6 -14t14 -6h130v250h60v-250h150v250h60v-250h110v-60h-510q-33 0 -56.5 23.5t-23.5 56.5v160h-150q-27 0 -50.5 -10t-41.5 -28t-28 -41.5t-10 -50.5v-10h120q21 0 35.5 -14.5t14.5 -35.5v-30
q0 -38 -14 -70.5t-38.5 -57t-57.5 -38.5t-70 -14h-130q-38 0 -70.5 14t-57 38.5t-38.5 57t-14 70.5v120h60v-120q0 -25 9.5 -46.5t26 -38t38 -26t46.5 -9.5h130q25 0 46.5 9.5t38 26t26 38t9.5 46.5v20h-120q-21 0 -35.5 14.5t-14.5 35.5v20zM903 572l49 -50l-42 -42l-50 49
zM848 472l49 -50l-42 -42l-50 49zM968 472l49 -50l-42 -42l-50 49zM248 -198l49 -45l-42 -38l-50 44zM368 -198l49 -45l-42 -38l-50 44z" />
    <glyph glyph-name="sadmaksuraf" unicode="&#xfebc;&#xfef0;" horiz-adv-x="1220" arabic-form="final" 
d="M640 230h-120q-27 0 -50.5 -10t-41.5 -28t-28 -41.5t-10 -50.5v-10h120q21 0 35.5 -14.5t14.5 -35.5v-20q0 -38 -14 -70.5t-38.5 -57t-57.5 -38.5t-70 -14h-130q-38 0 -70.5 14t-57 38.5t-38.5 57t-14 70.5v120h60v-120q0 -25 9.5 -46.5t26 -38t38 -26t46.5 -9.5h130
q25 0 46.5 9.5t38 26t26 38t9.5 46.5v10h-120q-21 0 -35.5 14.5t-14.5 35.5v20q0 39 15 74t40.5 60.5t60.5 40.5t74 15h168l32 -139l84 67q44 35 75.5 55.5t54.5 31t41 13t35 2.5q28 0 53.5 -11t45 -30.5t30.5 -45t11 -53.5v-120h70v-60h-526zM1090 60v120q0 33 -23.5 56.5
t-56.5 23.5q-13 0 -26.5 -2.5t-32 -12t-45 -27t-65.5 -47.5l-106 -83l7 -28h348z" />
    <glyph glyph-name="sadyehf" unicode="&#xfebc;&#xfef2;" horiz-adv-x="1220" arabic-form="final" 
d="M640 230h-120q-27 0 -50.5 -10t-41.5 -28t-28 -41.5t-10 -50.5v-10h120q21 0 35.5 -14.5t14.5 -35.5v-20q0 -38 -14 -70.5t-38.5 -57t-57.5 -38.5t-70 -14h-130q-38 0 -70.5 14t-57 38.5t-38.5 57t-14 70.5v120h60v-120q0 -25 9.5 -46.5t26 -38t38 -26t46.5 -9.5h130
q25 0 46.5 9.5t38 26t26 38t9.5 46.5v10h-120q-21 0 -35.5 14.5t-14.5 35.5v20q0 39 15 74t40.5 60.5t60.5 40.5t74 15h168l32 -139l84 67q44 35 75.5 55.5t54.5 31t41 13t35 2.5q28 0 53.5 -11t45 -30.5t30.5 -45t11 -53.5v-120h70v-60h-526zM1090 60v120q0 33 -23.5 56.5
t-56.5 23.5q-13 0 -26.5 -2.5t-32 -12t-45 -27t-65.5 -47.5l-106 -83l7 -28h348zM248 -197l49 -45l-42 -38l-50 44zM368 -197l49 -45l-42 -38l-50 44z" />
    <glyph glyph-name="dadmaksuraf" unicode="&#xfec0;&#xfef0;" horiz-adv-x="1220" arabic-form="final" 
d="M640 230h-120q-27 0 -50.5 -10t-41.5 -28t-28 -41.5t-10 -50.5v-10h120q21 0 35.5 -14.5t14.5 -35.5v-20q0 -38 -14 -70.5t-38.5 -57t-57.5 -38.5t-70 -14h-130q-38 0 -70.5 14t-57 38.5t-38.5 57t-14 70.5v120h60v-120q0 -25 9.5 -46.5t26 -38t38 -26t46.5 -9.5h130
q25 0 46.5 9.5t38 26t26 38t9.5 46.5v10h-120q-21 0 -35.5 14.5t-14.5 35.5v20q0 39 15 74t40.5 60.5t60.5 40.5t74 15h168l32 -139l84 67q44 35 75.5 55.5t54.5 31t41 13t35 2.5q28 0 53.5 -11t45 -30.5t30.5 -45t11 -53.5v-120h70v-60h-526zM1090 60v120q0 33 -23.5 56.5
t-56.5 23.5q-13 0 -26.5 -2.5t-32 -12t-45 -27t-65.5 -47.5l-106 -83l7 -28h348zM873 492l49 -50l-42 -42l-50 49z" />
    <glyph glyph-name="dadyehf" unicode="&#xfec0;&#xfef2;" horiz-adv-x="1220" arabic-form="final" 
d="M640 230h-120q-27 0 -50.5 -10t-41.5 -28t-28 -41.5t-10 -50.5v-10h120q21 0 35.5 -14.5t14.5 -35.5v-20q0 -38 -14 -70.5t-38.5 -57t-57.5 -38.5t-70 -14h-130q-38 0 -70.5 14t-57 38.5t-38.5 57t-14 70.5v120h60v-120q0 -25 9.5 -46.5t26 -38t38 -26t46.5 -9.5h130
q25 0 46.5 9.5t38 26t26 38t9.5 46.5v10h-120q-21 0 -35.5 14.5t-14.5 35.5v20q0 39 15 74t40.5 60.5t60.5 40.5t74 15h168l32 -139l84 67q44 35 75.5 55.5t54.5 31t41 13t35 2.5q28 0 53.5 -11t45 -30.5t30.5 -45t11 -53.5v-120h70v-60h-526zM1090 60v120q0 33 -23.5 56.5
t-56.5 23.5q-13 0 -26.5 -2.5t-32 -12t-45 -27t-65.5 -47.5l-106 -83l7 -28h348zM248 -197l49 -45l-42 -38l-50 44zM368 -197l49 -45l-42 -38l-50 44zM873 492l49 -50l-42 -42l-50 49z" />
    <glyph glyph-name="uniFDF2" unicode="&#x627;&#xfedf;&#xfee0;&#xfeea;" horiz-adv-x="1120" arabic-form="isolated" 
d="M1040 540v-540h-60v540h60zM770 520h60v-520h-680q-43 0 -61.5 21t-18.5 51q0 25 10 49l53 135q11 28 36 46t57 18h154v-260h160v390h60v-390h170v460zM320 60v200h-94q-12 0 -22 -7.5t-15 -18.5l-54 -136q-5 -12 -5 -21q0 -17 20 -17h170z" />
    <glyph glyph-name="uniFDFC" unicode="&#x631;&#xfef3;&#xfe8e;&#x644;" horiz-adv-x="1240" arabic-form="isolated" 
d="M628 -88l49 -50l-42 -42l-50 49zM748 -88l49 -50l-42 -42l-50 49zM450 -20q0 -33 -23.5 -56.5t-56.5 -23.5h-120q-37 0 -70 14t-57.5 38.5t-38.5 57.5t-14 70v130h60v-130q0 -25 9.5 -46.5t26 -38t38 -26t46.5 -9.5h120q8 0 14 6t6 14v560h60v-560zM1110 320h60v-330
q0 -76 -35 -113t-97 -37q-53 0 -118 25q7 15 11 26q4 10 7 18.5t4 8.5q48 -17 87 -17q36 0 58.5 19.5t22.5 69.5v330zM650 540v-480h90v-60h-150v540h60zM890 320h60v-320h-240q-13 0 -21.5 8.5t-8.5 21.5t8.5 21.5t21.5 8.5h180v260z" />
    <glyph glyph-name="lamalefmd" unicode="&#xfedf;&#xfe82;" horiz-adv-x="463" arabic-form="isolated" 
d="M313 540h60v-490q0 -39 -12 -65.5t-32.5 -43t-48 -24t-58.5 -7.5q-29 0 -59.5 5.5t-60.5 15.5l19 54q19 -6 43 -10.5t49 -4.5q19 0 37.5 4t32 13t22 24.5t8.5 38.5v490zM121 490l51 -435h-61l-51 435h61zM171 554q-12 -9 -22.5 -12.5t-19.5 -3.5q-17 0 -31 6.5t-31 6.5
q-10 0 -21 -4.5t-25 -16.5v36q14 12 25 16.5t21 4.5q17 0 31 -6.5t31 -6.5q9 0 19.5 3.5t22.5 12.5v-36z" />
    <glyph glyph-name="lamalefmdf" unicode="&#xfee0;&#xfe82;" horiz-adv-x="463" arabic-form="final" 
d="M313 540h60v-480h90v-60h-97q-14 -49 -53.5 -69.5t-90.5 -20.5q-29 0 -59.5 5.5t-60.5 15.5l19 54q19 -6 43 -10.5t49 -4.5q19 0 37.5 4t32 13t22 24.5t8.5 38.5v490zM121 490l51 -435h-61l-51 435h61zM171 554q-12 -9 -22.5 -12.5t-19.5 -3.5q-17 0 -31 6.5t-31 6.5
q-10 0 -21 -4.5t-25 -16.5v36q14 12 25 16.5t21 4.5q17 0 31 -6.5t31 -6.5q9 0 19.5 3.5t22.5 12.5v-36z" />
    <glyph glyph-name="lamalefhmz" unicode="&#xfedf;&#xfe84;" horiz-adv-x="463" arabic-form="isolated" 
d="M313 540h60v-490q0 -39 -12 -65.5t-32.5 -43t-48 -24t-58.5 -7.5q-29 0 -59.5 5.5t-60.5 15.5l19 54q19 -6 43 -10.5t49 -4.5q19 0 37.5 4t32 13t22 24.5t8.5 38.5v490zM121 490l51 -435h-61l-51 435h61zM136 625q-7 5 -18 9t-21 4q-22 0 -22 -16q0 -11 13 -25t35 -21h35
v-36h-120v36h29q-26 24 -26 52q0 17 13 29.5t36 12.5q14 0 31 -5.5t31 -13.5z" />
    <glyph glyph-name="lamalefhmzf" unicode="&#xfee0;&#xfe84;" horiz-adv-x="463" arabic-form="final" 
d="M313 540h60v-480h90v-60h-97q-14 -49 -53.5 -69.5t-90.5 -20.5q-29 0 -59.5 5.5t-60.5 15.5l19 54q19 -6 43 -10.5t49 -4.5q19 0 37.5 4t32 13t22 24.5t8.5 38.5v490zM121 490l51 -435h-61l-51 435h61zM136 625q-7 5 -18 9t-21 4q-22 0 -22 -16q0 -11 13 -25t35 -21h35
v-36h-120v36h29q-26 24 -26 52q0 17 13 29.5t36 12.5q14 0 31 -5.5t31 -13.5z" />
    <glyph glyph-name="lamalefhmz2" unicode="&#xfedf;&#xfe88;" horiz-adv-x="463" arabic-form="isolated" 
d="M313 540h60v-490q0 -39 -12 -65.5t-32.5 -43t-48 -24t-58.5 -7.5q-29 0 -59.5 5.5t-60.5 15.5l19 54q19 -6 43 -10.5t49 -4.5q19 0 37.5 4t32 13t22 24.5t8.5 38.5v490zM121 490l51 -435h-61l-51 435h61zM176 -173q-7 4 -18 7.5t-21 3.5q-22 0 -22 -14q0 -10 13 -22.5
t35 -19.5h35v-32h-120v32h29q-26 22 -26 47q0 16 13 27t36 11q14 0 31 -5t31 -12z" />
    <glyph glyph-name="lamalefhmz2f" unicode="&#xfee0;&#xfe88;" horiz-adv-x="463" arabic-form="final" 
d="M313 540h60v-480h90v-60h-97q-14 -49 -53.5 -69.5t-90.5 -20.5q-29 0 -59.5 5.5t-60.5 15.5l19 54q19 -6 43 -10.5t49 -4.5q19 0 37.5 4t32 13t22 24.5t8.5 38.5v490zM121 490l51 -435h-61l-51 435h61zM176 -173q-7 4 -18 7.5t-21 3.5q-22 0 -22 -14q0 -10 13 -22.5
t35 -19.5h35v-32h-120v32h29q-26 22 -26 47q0 16 13 27t36 11q14 0 31 -5t31 -12z" />
    <glyph glyph-name="lamalef" unicode="&#xfedf;&#xfe8e;" horiz-adv-x="463" 
d="M313 540h60v-490q0 -39 -12 -65.5t-32.5 -43t-48 -24t-58.5 -7.5q-29 0 -59.5 5.5t-60.5 15.5l19 54q19 -6 43 -10.5t49 -4.5q19 0 37.5 4t32 13t22 24.5t8.5 38.5v490zM121 490l51 -435h-61l-51 435h61z" />
    <glyph glyph-name="lamaleff" unicode="&#xfee0;&#xfe8e;" horiz-adv-x="463" 
d="M313 540h60v-480h90v-60h-97q-14 -49 -53.5 -69.5t-90.5 -20.5q-29 0 -59.5 5.5t-60.5 15.5l19 54q19 -6 43 -10.5t49 -4.5q19 0 37.5 4t32 13t22 24.5t8.5 38.5v490zM121 490l51 -435h-61l-51 435h61z" />
    <glyph glyph-name="lamalefwasl" unicode="&#xfedf;&#xfb51;" horiz-adv-x="463" 
d="M313 540h60v-490q0 -39 -12 -65.5t-32.5 -43t-48 -24t-58.5 -7.5q-29 0 -59.5 5.5t-60.5 15.5l19 54q19 -6 43 -10.5t49 -4.5q19 0 37.5 4t32 13t22 24.5t8.5 38.5v490zM121 490l51 -435h-61l-51 435h61zM25 570h15v56h30v-23l15 14q9 8 21 8h39q8 0 14 -6.5t6 -15.5v-63
h-140v30zM70 570h65v25h-35z" />
    <glyph glyph-name="lamalefwaslf" unicode="&#xfee0;&#xfb51;" horiz-adv-x="463" 
d="M313 540h60v-480h90v-60h-97q-14 -49 -53.5 -69.5t-90.5 -20.5q-29 0 -59.5 5.5t-60.5 15.5l19 54q19 -6 43 -10.5t49 -4.5q19 0 37.5 4t32 13t22 24.5t8.5 38.5v490zM121 490l51 -435h-61l-51 435h61zM25 570h15v56h30v-23l15 14q9 8 21 8h39q8 0 14 -6.5t6 -15.5v-63
h-140v30zM70 570h65v25h-35z" />
    <glyph glyph-name="lellah" unicode="&#xfedf;&#xfee0;&#xfeea;" horiz-adv-x="900" 
d="M770 520h60v-520h-680q-43 0 -61.5 21t-18.5 51q0 25 10 49l53 135q11 28 36 46t57 18h154v-260h160v390h60v-390h170v460zM320 60v200h-94q-12 0 -22 -7.5t-15 -18.5l-54 -136q-5 -12 -5 -21q0 -17 20 -17h170z" />
    <glyph glyph-name="noonyehf" unicode="&#xfee8;&#xfef2;" horiz-adv-x="840" 
d="M330 100q0 39 15 74t40.5 60.5t60.5 40.5t74 15h168l53 -230h99v-60h-149l-51 230h-120q-27 0 -50.5 -10t-41.5 -28t-28 -41.5t-10 -50.5v-10h120q21 0 35.5 -14.5t14.5 -35.5v-20q0 -38 -14 -70.5t-38.5 -57t-57.5 -38.5t-70 -14h-130q-38 0 -70.5 14t-57 38.5t-38.5 57
t-14 70.5v120h60v-120q0 -25 9.5 -46.5t26 -38t38 -26t46.5 -9.5h130q25 0 46.5 9.5t38 26t26 38t9.5 46.5v10h-120q-21 0 -35.5 14.5t-14.5 35.5v20zM553 492l49 -50l-42 -42l-50 49zM248 -208l49 -45l-42 -38l-50 44zM368 -208l49 -45l-42 -38l-50 44z" />
    <glyph glyph-name="uni0679yehf" unicode="&#xfb69;&#xfef2;" horiz-adv-x="840" 
d="M330 100q0 39 15 74t40.5 60.5t60.5 40.5t74 15h168l53 -230h99v-60h-149l-51 230h-120q-27 0 -50.5 -10t-41.5 -28t-28 -41.5t-10 -50.5v-10h120q21 0 35.5 -14.5t14.5 -35.5v-20q0 -38 -14 -70.5t-38.5 -57t-57.5 -38.5t-70 -14h-130q-38 0 -70.5 14t-57 38.5t-38.5 57
t-14 70.5v120h60v-120q0 -25 9.5 -46.5t26 -38t38 -26t46.5 -9.5h130q25 0 46.5 9.5t38 26t26 38t9.5 46.5v10h-120q-21 0 -35.5 14.5t-14.5 35.5v20zM248 -208l49 -45l-42 -38l-50 44zM368 -208l49 -45l-42 -38l-50 44zM495 430h15v106h28v-75l17 16q9 8 21 8h39
q8 0 14 -6.5t6 -15.5v-63h-140v30zM540 430h65v25h-35z" />
    <glyph glyph-name="hmzyehhmzf" unicode="&#xfe8c;&#xfe8a;" horiz-adv-x="840" 
d="M330 100q0 39 15 74t40.5 60.5t60.5 40.5t74 15h168l53 -230h99v-60h-149l-51 230h-120q-27 0 -50.5 -10t-41.5 -28t-28 -41.5t-10 -50.5v-10h120q21 0 35.5 -14.5t14.5 -35.5v-20q0 -38 -14 -70.5t-38.5 -57t-57.5 -38.5t-70 -14h-130q-38 0 -70.5 14t-57 38.5t-38.5 57
t-14 70.5v120h60v-120q0 -25 9.5 -46.5t26 -38t38 -26t46.5 -9.5h130q25 0 46.5 9.5t38 26t26 38t9.5 46.5v10h-120q-21 0 -35.5 14.5t-14.5 35.5v20zM148 325q-7 5 -18 9t-21 4q-22 0 -22 -16q0 -11 13 -25t35 -21h35v-36h-120v36h29q-26 24 -26 52q0 17 13 29.5t36 12.5
q14 0 31 -5.5t31 -13.5zM598 485q-7 5 -18 9t-21 4q-22 0 -22 -16q0 -11 13 -25t35 -21h35v-36h-120v36h29q-26 24 -26 52q0 17 13 29.5t36 12.5q14 0 31 -5.5t31 -13.5z" />
    <glyph glyph-name="tehyehhmzf" unicode="&#xfe98;&#xfe8a;" horiz-adv-x="840" 
d="M330 100q0 39 15 74t40.5 60.5t60.5 40.5t74 15h168l53 -230h99v-60h-149l-51 230h-120q-27 0 -50.5 -10t-41.5 -28t-28 -41.5t-10 -50.5v-10h120q21 0 35.5 -14.5t14.5 -35.5v-20q0 -38 -14 -70.5t-38.5 -57t-57.5 -38.5t-70 -14h-130q-38 0 -70.5 14t-57 38.5t-38.5 57
t-14 70.5v120h60v-120q0 -25 9.5 -46.5t26 -38t38 -26t46.5 -9.5h130q25 0 46.5 9.5t38 26t26 38t9.5 46.5v10h-120q-21 0 -35.5 14.5t-14.5 35.5v20zM498 492l49 -50l-42 -42l-50 49zM618 492l49 -50l-42 -42l-50 49zM148 325q-7 5 -18 9t-21 4q-22 0 -22 -16q0 -11 13 -25
t35 -21h35v-36h-120v36h29q-26 24 -26 52q0 17 13 29.5t36 12.5q14 0 31 -5.5t31 -13.5z" />
    <glyph glyph-name="thehyehhmzf" unicode="&#xfe9c;&#xfe8a;" horiz-adv-x="840" 
d="M330 100q0 39 15 74t40.5 60.5t60.5 40.5t74 15h168l53 -230h99v-60h-149l-51 230h-120q-27 0 -50.5 -10t-41.5 -28t-28 -41.5t-10 -50.5v-10h120q21 0 35.5 -14.5t14.5 -35.5v-20q0 -38 -14 -70.5t-38.5 -57t-57.5 -38.5t-70 -14h-130q-38 0 -70.5 14t-57 38.5t-38.5 57
t-14 70.5v120h60v-120q0 -25 9.5 -46.5t26 -38t38 -26t46.5 -9.5h130q25 0 46.5 9.5t38 26t26 38t9.5 46.5v10h-120q-21 0 -35.5 14.5t-14.5 35.5v20zM553 572l49 -50l-42 -42l-50 49zM498 472l49 -50l-42 -42l-50 49zM618 472l49 -50l-42 -42l-50 49zM148 325q-7 5 -18 9
t-21 4q-22 0 -22 -16q0 -11 13 -25t35 -21h35v-36h-120v36h29q-26 24 -26 52q0 17 13 29.5t36 12.5q14 0 31 -5.5t31 -13.5z" />
    <glyph glyph-name="noonyehhmzf" unicode="&#xfee8;&#xfe8a;" horiz-adv-x="840" 
d="M330 100q0 39 15 74t40.5 60.5t60.5 40.5t74 15h168l53 -230h99v-60h-149l-51 230h-120q-27 0 -50.5 -10t-41.5 -28t-28 -41.5t-10 -50.5v-10h120q21 0 35.5 -14.5t14.5 -35.5v-20q0 -38 -14 -70.5t-38.5 -57t-57.5 -38.5t-70 -14h-130q-38 0 -70.5 14t-57 38.5t-38.5 57
t-14 70.5v120h60v-120q0 -25 9.5 -46.5t26 -38t38 -26t46.5 -9.5h130q25 0 46.5 9.5t38 26t26 38t9.5 46.5v10h-120q-21 0 -35.5 14.5t-14.5 35.5v20zM553 492l49 -50l-42 -42l-50 49zM148 325q-7 5 -18 9t-21 4q-22 0 -22 -16q0 -11 13 -25t35 -21h35v-36h-120v36h29
q-26 24 -26 52q0 17 13 29.5t36 12.5q14 0 31 -5.5t31 -13.5z" />
    <glyph glyph-name="uni0679yehhmzf" unicode="&#xfb69;&#xfe8a;" horiz-adv-x="840" 
d="M330 100q0 39 15 74t40.5 60.5t60.5 40.5t74 15h168l53 -230h99v-60h-149l-51 230h-120q-27 0 -50.5 -10t-41.5 -28t-28 -41.5t-10 -50.5v-10h120q21 0 35.5 -14.5t14.5 -35.5v-20q0 -38 -14 -70.5t-38.5 -57t-57.5 -38.5t-70 -14h-130q-38 0 -70.5 14t-57 38.5t-38.5 57
t-14 70.5v120h60v-120q0 -25 9.5 -46.5t26 -38t38 -26t46.5 -9.5h130q25 0 46.5 9.5t38 26t26 38t9.5 46.5v10h-120q-21 0 -35.5 14.5t-14.5 35.5v20zM495 430h15v106h28v-75l17 16q9 8 21 8h39q8 0 14 -6.5t6 -15.5v-63h-140v30zM540 430h65v25h-35zM148 325q-7 5 -18 9
t-21 4q-22 0 -22 -16q0 -11 13 -25t35 -21h35v-36h-120v36h29q-26 24 -26 52q0 17 13 29.5t36 12.5q14 0 31 -5.5t31 -13.5z" />
    <glyph glyph-name="noonmaksuraf" unicode="&#xfee8;&#xfef0;" horiz-adv-x="840" 
d="M330 100q0 39 15 74t40.5 60.5t60.5 40.5t74 15h168l53 -230h99v-60h-149l-51 230h-120q-27 0 -50.5 -10t-41.5 -28t-28 -41.5t-10 -50.5v-10h120q21 0 35.5 -14.5t14.5 -35.5v-20q0 -38 -14 -70.5t-38.5 -57t-57.5 -38.5t-70 -14h-130q-38 0 -70.5 14t-57 38.5t-38.5 57
t-14 70.5v120h60v-120q0 -25 9.5 -46.5t26 -38t38 -26t46.5 -9.5h130q25 0 46.5 9.5t38 26t26 38t9.5 46.5v10h-120q-21 0 -35.5 14.5t-14.5 35.5v20zM553 492l49 -50l-42 -42l-50 49z" />
    <glyph glyph-name="uni0679maksuraf" unicode="&#xfb69;&#xfef0;" horiz-adv-x="840" 
d="M330 100q0 39 15 74t40.5 60.5t60.5 40.5t74 15h168l53 -230h99v-60h-149l-51 230h-120q-27 0 -50.5 -10t-41.5 -28t-28 -41.5t-10 -50.5v-10h120q21 0 35.5 -14.5t14.5 -35.5v-20q0 -38 -14 -70.5t-38.5 -57t-57.5 -38.5t-70 -14h-130q-38 0 -70.5 14t-57 38.5t-38.5 57
t-14 70.5v120h60v-120q0 -25 9.5 -46.5t26 -38t38 -26t46.5 -9.5h130q25 0 46.5 9.5t38 26t26 38t9.5 46.5v10h-120q-21 0 -35.5 14.5t-14.5 35.5v20zM495 430h15v106h28v-75l17 16q9 8 21 8h39q8 0 14 -6.5t6 -15.5v-63h-140v30zM540 430h65v25h-35z" />
    <glyph glyph-name="seenyehhmz" unicode="&#xfeb3;&#xfe8a;" horiz-adv-x="1220" 
d="M330 110q0 39 15 74t40.5 60.5t60.5 40.5t74 15h210v-220q0 -8 6 -14t14 -6h130v250h60v-250h130q8 0 14 6t6 14v230h60v-230q0 -33 -23.5 -56.5t-56.5 -23.5h-320q-33 0 -56.5 23.5t-23.5 56.5v160h-150q-27 0 -50.5 -10t-41.5 -28t-28 -41.5t-10 -50.5v-10h120
q21 0 35.5 -14.5t14.5 -35.5v-30q0 -38 -14 -70.5t-38.5 -57t-57.5 -38.5t-70 -14h-130q-38 0 -70.5 14t-57 38.5t-38.5 57t-14 70.5v120h60v-120q0 -25 9.5 -46.5t26 -38t38 -26t46.5 -9.5h130q25 0 46.5 9.5t38 26t26 38t9.5 46.5v20h-120q-21 0 -35.5 14.5t-14.5 35.5v20
zM148 325q-7 5 -18 9t-21 4q-22 0 -22 -16q0 -11 13 -25t35 -21h35v-36h-120v36h29q-26 24 -26 52q0 17 13 29.5t36 12.5q14 0 31 -5.5t31 -13.5z" />
    <glyph glyph-name="seenyehhmzf" unicode="&#xfeb4;&#xfe8a;" horiz-adv-x="1260" 
d="M330 110q0 39 15 74t40.5 60.5t60.5 40.5t74 15h210v-220q0 -8 6 -14t14 -6h130v250h60v-250h150v250h60v-250h110v-60h-510q-33 0 -56.5 23.5t-23.5 56.5v160h-150q-27 0 -50.5 -10t-41.5 -28t-28 -41.5t-10 -50.5v-10h120q21 0 35.5 -14.5t14.5 -35.5v-30
q0 -38 -14 -70.5t-38.5 -57t-57.5 -38.5t-70 -14h-130q-38 0 -70.5 14t-57 38.5t-38.5 57t-14 70.5v120h60v-120q0 -25 9.5 -46.5t26 -38t38 -26t46.5 -9.5h130q25 0 46.5 9.5t38 26t26 38t9.5 46.5v20h-120q-21 0 -35.5 14.5t-14.5 35.5v20zM148 325q-7 5 -18 9t-21 4
q-22 0 -22 -16q0 -11 13 -25t35 -21h35v-36h-120v36h29q-26 24 -26 52q0 17 13 29.5t36 12.5q14 0 31 -5.5t31 -13.5z" />
    <glyph glyph-name="sheenyehhmz" unicode="&#xfeb7;&#xfe8a;" horiz-adv-x="1220" 
d="M330 110q0 39 15 74t40.5 60.5t60.5 40.5t74 15h210v-220q0 -8 6 -14t14 -6h130v250h60v-250h130q8 0 14 6t6 14v230h60v-230q0 -33 -23.5 -56.5t-56.5 -23.5h-320q-33 0 -56.5 23.5t-23.5 56.5v160h-150q-27 0 -50.5 -10t-41.5 -28t-28 -41.5t-10 -50.5v-10h120
q21 0 35.5 -14.5t14.5 -35.5v-30q0 -38 -14 -70.5t-38.5 -57t-57.5 -38.5t-70 -14h-130q-38 0 -70.5 14t-57 38.5t-38.5 57t-14 70.5v120h60v-120q0 -25 9.5 -46.5t26 -38t38 -26t46.5 -9.5h130q25 0 46.5 9.5t38 26t26 38t9.5 46.5v20h-120q-21 0 -35.5 14.5t-14.5 35.5v20
zM903 572l49 -50l-42 -42l-50 49zM848 472l49 -50l-42 -42l-50 49zM968 472l49 -50l-42 -42l-50 49zM148 325q-7 5 -18 9t-21 4q-22 0 -22 -16q0 -11 13 -25t35 -21h35v-36h-120v36h29q-26 24 -26 52q0 17 13 29.5t36 12.5q14 0 31 -5.5t31 -13.5z" />
    <glyph glyph-name="sheenyehhmzf" unicode="&#xfeb8;&#xfe8a;" horiz-adv-x="1260" 
d="M330 110q0 39 15 74t40.5 60.5t60.5 40.5t74 15h210v-220q0 -8 6 -14t14 -6h130v250h60v-250h150v250h60v-250h110v-60h-510q-33 0 -56.5 23.5t-23.5 56.5v160h-150q-27 0 -50.5 -10t-41.5 -28t-28 -41.5t-10 -50.5v-10h120q21 0 35.5 -14.5t14.5 -35.5v-30
q0 -38 -14 -70.5t-38.5 -57t-57.5 -38.5t-70 -14h-130q-38 0 -70.5 14t-57 38.5t-38.5 57t-14 70.5v120h60v-120q0 -25 9.5 -46.5t26 -38t38 -26t46.5 -9.5h130q25 0 46.5 9.5t38 26t26 38t9.5 46.5v20h-120q-21 0 -35.5 14.5t-14.5 35.5v20zM903 572l49 -50l-42 -42l-50 49
zM848 472l49 -50l-42 -42l-50 49zM968 472l49 -50l-42 -42l-50 49zM148 325q-7 5 -18 9t-21 4q-22 0 -22 -16q0 -11 13 -25t35 -21h35v-36h-120v36h29q-26 24 -26 52q0 17 13 29.5t36 12.5q14 0 31 -5.5t31 -13.5z" />
    <glyph glyph-name="meemmaksura" unicode="&#xfee3;&#xfef0;" horiz-adv-x="1060" 
d="M480 -60q13 0 21.5 9t8.5 20q0 13 -13 26l-162 164l42 42l80 -81h233v60q0 32 13 56t35 40.5t50.5 25t59.5 8.5q38 0 75 -12t67 -38v-180q0 -33 -12 -58.5t-33 -42.5t-48 -25.5t-57 -8.5q-28 0 -53.5 7.5t-45.5 21.5t-33.5 35.5t-16.5 50.5h-174l23 -23q16 -16 23 -33.5
t7 -34.5q0 -18 -7 -34t-19 -28t-28.5 -19.5t-35.5 -7.5h-230q-37 0 -70 14t-57.5 38.5t-38.5 57.5t-14 70v130h60v-130q0 -25 9.5 -46.5t26 -38t38 -26t46.5 -9.5h230zM930 229q-38 21 -82 21q-19 0 -37 -4.5t-31.5 -13.5t-21.5 -22t-8 -30v-100q0 -37 27 -56t63 -19t63 19
t27 56v149z" />
    <glyph glyph-name="meemmaksuraf" unicode="&#xfee4;&#xfef0;" horiz-adv-x="1070" 
d="M480 -70q13 0 21.5 9t8.5 20q0 13 -13 26l-162 164l42 42l70 -71h243v32q0 38 12 66t33 46t48 27t57 9t57 -9t48 -27t33 -46t12 -66v-92h80v-60h-93q-18 -37 -55 -56t-82 -19q-30 0 -57 8.5t-48 25.5t-33 42.5t-12 58.5h-183l33 -33q16 -16 23 -33.5t7 -34.5
q0 -18 -7 -34t-19 -28t-28.5 -19.5t-35.5 -7.5h-230q-37 0 -70 14t-57.5 38.5t-38.5 57.5t-14 70v130h60v-130q0 -25 9.5 -46.5t26 -38t38 -26t46.5 -9.5h230zM750 60q0 -37 27 -56t63 -19t63 19t27 56v92q0 46 -27 67t-63 21t-63 -21t-27 -67v-92z" />
    <glyph glyph-name="meemyeh" unicode="&#xfee3;&#xfef2;" horiz-adv-x="1060" 
d="M480 -60q13 0 21.5 9t8.5 20q0 13 -13 26l-162 164l42 42l80 -81h233v60q0 32 13 56t35 40.5t50.5 25t59.5 8.5q38 0 75 -12t67 -38v-180q0 -33 -12 -58.5t-33 -42.5t-48 -25.5t-57 -8.5q-28 0 -53.5 7.5t-45.5 21.5t-33.5 35.5t-16.5 50.5h-174l23 -23q16 -16 23 -33.5
t7 -34.5q0 -18 -7 -34t-19 -28t-28.5 -19.5t-35.5 -7.5h-230q-37 0 -70 14t-57.5 38.5t-38.5 57.5t-14 70v130h60v-130q0 -25 9.5 -46.5t26 -38t38 -26t46.5 -9.5h230zM930 229q-38 21 -82 21q-19 0 -37 -4.5t-31.5 -13.5t-21.5 -22t-8 -30v-100q0 -37 27 -56t63 -19t63 19
t27 56v149zM248 -208l49 -45l-42 -38l-50 44zM368 -208l49 -45l-42 -38l-50 44z" />
    <glyph glyph-name="meemyehf" unicode="&#xfee4;&#xfef2;" horiz-adv-x="1070" 
d="M480 -70q13 0 21.5 9t8.5 20q0 13 -13 26l-162 164l42 42l70 -71h243v32q0 38 12 66t33 46t48 27t57 9t57 -9t48 -27t33 -46t12 -66v-92h80v-60h-93q-18 -37 -55 -56t-82 -19q-30 0 -57 8.5t-48 25.5t-33 42.5t-12 58.5h-183l33 -33q16 -16 23 -33.5t7 -34.5
q0 -18 -7 -34t-19 -28t-28.5 -19.5t-35.5 -7.5h-230q-37 0 -70 14t-57.5 38.5t-38.5 57.5t-14 70v130h60v-130q0 -25 9.5 -46.5t26 -38t38 -26t46.5 -9.5h230zM750 60q0 -37 27 -56t63 -19t63 19t27 56v92q0 46 -27 67t-63 21t-63 -21t-27 -67v-92zM248 -208l49 -45l-42 -38
l-50 44zM368 -208l49 -45l-42 -38l-50 44z" />
    <glyph glyph-name="meemyehhmz" unicode="&#xfee3;&#xfe8a;" horiz-adv-x="1060" 
d="M480 -60q13 0 21.5 9t8.5 20q0 13 -13 26l-162 164l42 42l80 -81h233v60q0 32 13 56t35 40.5t50.5 25t59.5 8.5q38 0 75 -12t67 -38v-180q0 -33 -12 -58.5t-33 -42.5t-48 -25.5t-57 -8.5q-28 0 -53.5 7.5t-45.5 21.5t-33.5 35.5t-16.5 50.5h-174l23 -23q16 -16 23 -33.5
t7 -34.5q0 -18 -7 -34t-19 -28t-28.5 -19.5t-35.5 -7.5h-230q-37 0 -70 14t-57.5 38.5t-38.5 57.5t-14 70v130h60v-130q0 -25 9.5 -46.5t26 -38t38 -26t46.5 -9.5h230zM930 229q-38 21 -82 21q-19 0 -37 -4.5t-31.5 -13.5t-21.5 -22t-8 -30v-100q0 -37 27 -56t63 -19t63 19
t27 56v149zM148 325q-7 5 -18 9t-21 4q-22 0 -22 -16q0 -11 13 -25t35 -21h35v-36h-120v36h29q-26 24 -26 52q0 17 13 29.5t36 12.5q14 0 31 -5.5t31 -13.5z" />
    <glyph glyph-name="meemyehhmzf" unicode="&#xfee4;&#xfe8a;" horiz-adv-x="1070" 
d="M480 -70q13 0 21.5 9t8.5 20q0 13 -13 26l-162 164l42 42l70 -71h243v32q0 38 12 66t33 46t48 27t57 9t57 -9t48 -27t33 -46t12 -66v-92h80v-60h-93q-18 -37 -55 -56t-82 -19q-30 0 -57 8.5t-48 25.5t-33 42.5t-12 58.5h-183l33 -33q16 -16 23 -33.5t7 -34.5
q0 -18 -7 -34t-19 -28t-28.5 -19.5t-35.5 -7.5h-230q-37 0 -70 14t-57.5 38.5t-38.5 57.5t-14 70v130h60v-130q0 -25 9.5 -46.5t26 -38t38 -26t46.5 -9.5h230zM750 60q0 -37 27 -56t63 -19t63 19t27 56v92q0 46 -27 67t-63 21t-63 -21t-27 -67v-92zM148 325q-7 5 -18 9
t-21 4q-22 0 -22 -16q0 -11 13 -25t35 -21h35v-36h-120v36h29q-26 24 -26 52q0 17 13 29.5t36 12.5q14 0 31 -5.5t31 -13.5z" />
    <glyph glyph-name="sadyehhmz" unicode="&#xfebb;&#xfe8a;" horiz-adv-x="1220" 
d="M694 0l-54 230h-120q-27 0 -50.5 -10t-41.5 -28t-28 -41.5t-10 -50.5v-10h120q21 0 35.5 -14.5t14.5 -35.5v-20q0 -38 -14 -70.5t-38.5 -57t-57.5 -38.5t-70 -14h-130q-38 0 -70.5 14t-57 38.5t-38.5 57t-14 70.5v120h60v-120q0 -25 9.5 -46.5t26 -38t38 -26t46.5 -9.5
h130q25 0 46.5 9.5t38 26t26 38t9.5 46.5v10h-120q-21 0 -35.5 14.5t-14.5 35.5v20q0 39 15 74t40.5 60.5t60.5 40.5t74 15h168l32 -139l84 67q44 35 75.5 55.5t54.5 31t41 13t35 2.5q28 0 53.5 -11t45 -30.5t30.5 -45t11 -53.5v-100q0 -17 -6.5 -31.5t-17.5 -25.5
t-25.5 -17t-30.5 -6h-376zM1070 60q8 0 14 6t6 14v100q0 33 -23.5 56.5t-56.5 23.5q-13 0 -26.5 -2.5t-32 -12t-45 -27t-65.5 -47.5l-106 -83l7 -28h328zM148 325q-7 5 -18 9t-21 4q-22 0 -22 -16q0 -11 13 -25t35 -21h35v-36h-120v36h29q-26 24 -26 52q0 17 13 29.5
t36 12.5q14 0 31 -5.5t31 -13.5z" />
    <glyph glyph-name="sadyehhmzf" unicode="&#xfebc;&#xfe8a;" horiz-adv-x="1220" 
d="M640 230h-120q-27 0 -50.5 -10t-41.5 -28t-28 -41.5t-10 -50.5v-10h120q21 0 35.5 -14.5t14.5 -35.5v-20q0 -38 -14 -70.5t-38.5 -57t-57.5 -38.5t-70 -14h-130q-38 0 -70.5 14t-57 38.5t-38.5 57t-14 70.5v120h60v-120q0 -25 9.5 -46.5t26 -38t38 -26t46.5 -9.5h130
q25 0 46.5 9.5t38 26t26 38t9.5 46.5v10h-120q-21 0 -35.5 14.5t-14.5 35.5v20q0 39 15 74t40.5 60.5t60.5 40.5t74 15h168l32 -139l84 67q44 35 75.5 55.5t54.5 31t41 13t35 2.5q28 0 53.5 -11t45 -30.5t30.5 -45t11 -53.5v-120h70v-60h-526zM1090 60v120q0 33 -23.5 56.5
t-56.5 23.5q-13 0 -26.5 -2.5t-32 -12t-45 -27t-65.5 -47.5l-106 -83l7 -28h348zM148 325q-7 5 -18 9t-21 4q-22 0 -22 -16q0 -11 13 -25t35 -21h35v-36h-120v36h29q-26 24 -26 52q0 17 13 29.5t36 12.5q14 0 31 -5.5t31 -13.5z" />
    <glyph glyph-name="dadyehhmz" unicode="&#xfebf;&#xfe8a;" horiz-adv-x="1220" 
d="M694 0l-54 230h-120q-27 0 -50.5 -10t-41.5 -28t-28 -41.5t-10 -50.5v-10h120q21 0 35.5 -14.5t14.5 -35.5v-20q0 -38 -14 -70.5t-38.5 -57t-57.5 -38.5t-70 -14h-130q-38 0 -70.5 14t-57 38.5t-38.5 57t-14 70.5v120h60v-120q0 -25 9.5 -46.5t26 -38t38 -26t46.5 -9.5
h130q25 0 46.5 9.5t38 26t26 38t9.5 46.5v10h-120q-21 0 -35.5 14.5t-14.5 35.5v20q0 39 15 74t40.5 60.5t60.5 40.5t74 15h168l32 -139l84 67q44 35 75.5 55.5t54.5 31t41 13t35 2.5q28 0 53.5 -11t45 -30.5t30.5 -45t11 -53.5v-100q0 -17 -6.5 -31.5t-17.5 -25.5
t-25.5 -17t-30.5 -6h-376zM1070 60q8 0 14 6t6 14v100q0 33 -23.5 56.5t-56.5 23.5q-13 0 -26.5 -2.5t-32 -12t-45 -27t-65.5 -47.5l-106 -83l7 -28h328zM873 492l49 -50l-42 -42l-50 49zM148 325q-7 5 -18 9t-21 4q-22 0 -22 -16q0 -11 13 -25t35 -21h35v-36h-120v36h29
q-26 24 -26 52q0 17 13 29.5t36 12.5q14 0 31 -5.5t31 -13.5z" />
    <glyph glyph-name="dadyehhmzf" unicode="&#xfec0;&#xfe8a;" horiz-adv-x="1220" 
d="M640 230h-120q-27 0 -50.5 -10t-41.5 -28t-28 -41.5t-10 -50.5v-10h120q21 0 35.5 -14.5t14.5 -35.5v-20q0 -38 -14 -70.5t-38.5 -57t-57.5 -38.5t-70 -14h-130q-38 0 -70.5 14t-57 38.5t-38.5 57t-14 70.5v120h60v-120q0 -25 9.5 -46.5t26 -38t38 -26t46.5 -9.5h130
q25 0 46.5 9.5t38 26t26 38t9.5 46.5v10h-120q-21 0 -35.5 14.5t-14.5 35.5v20q0 39 15 74t40.5 60.5t60.5 40.5t74 15h168l32 -139l84 67q44 35 75.5 55.5t54.5 31t41 13t35 2.5q28 0 53.5 -11t45 -30.5t30.5 -45t11 -53.5v-120h70v-60h-526zM1090 60v120q0 33 -23.5 56.5
t-56.5 23.5q-13 0 -26.5 -2.5t-32 -12t-45 -27t-65.5 -47.5l-106 -83l7 -28h348zM873 492l49 -50l-42 -42l-50 49zM148 325q-7 5 -18 9t-21 4q-22 0 -22 -16q0 -11 13 -25t35 -21h35v-36h-120v36h29q-26 24 -26 52q0 17 13 29.5t36 12.5q14 0 31 -5.5t31 -13.5z" />
    <glyph glyph-name="alefmd" unicode="&#x622;" horiz-adv-x="220" arabic-form="isolated" 
d="M140 540v-540h-60v540h60zM185 604q-12 -9 -22.5 -12.5t-19.5 -3.5q-17 0 -31 6.5t-31 6.5q-10 0 -21 -4.5t-25 -16.5v36q14 12 25 16.5t21 4.5q17 0 31 -6.5t31 -6.5q9 0 19.5 3.5t22.5 12.5v-36z" />
    <glyph glyph-name="alefhmz" unicode="&#x623;" horiz-adv-x="220" arabic-form="isolated" 
d="M140 540v-540h-60v540h60zM148 665q-7 5 -18 9t-21 4q-22 0 -22 -16q0 -11 13 -25t35 -21h35v-36h-120v36h29q-26 24 -26 52q0 17 13 29.5t36 12.5q14 0 31 -5.5t31 -13.5z" />
    <glyph glyph-name="wawhmz" unicode="&#x624;" horiz-adv-x="440" arabic-form="isolated" 
d="M310 0h-140q-42 0 -71 29t-29 71v50q0 44 12 76t33 53t49 31t60 10q36 0 73.5 -12.5t72.5 -37.5v-280q0 -42 -11 -71t-30.5 -46.5t-45.5 -25t-56 -7.5q-35 0 -72.5 8.5t-74.5 21.5q5 14 9 25q4 10 6.5 18t3.5 8q24 -8 55.5 -16t61.5 -8q19 0 36 4.5t30 15t20.5 28.5
t7.5 45v10zM310 60v177q-43 23 -86 23q-38 0 -66 -26.5t-28 -83.5v-50q0 -17 11.5 -28.5t28.5 -11.5h140zM-38 0v0v0v0zM-38 0v0v0v0v0v0zM-38 0v0v0zM-38 0v0v0zM-38 0zM-38 0zM-38 0zM-38 0v0v0v0zM-38 0v0v0v0v0v0zM-38 0v0v0v0v0v0zM-38 0v0v0v0v0zM-38 0v0v0v0zM-38 0z
M-38 0zM-38 0zM-38 0zM-38 0zM-38 0zM-38 0zM258 485q-7 5 -18 9t-21 4q-22 0 -22 -16q0 -11 13 -25t35 -21h35v-36h-120v36h29q-26 24 -26 52q0 17 13 29.5t36 12.5q14 0 31 -5.5t31 -13.5z" />
    <glyph glyph-name="alefhmz2" unicode="&#x625;" horiz-adv-x="220" arabic-form="isolated" 
d="M140 540v-540h-60v540h60zM148 -75q-7 5 -18 9t-21 4q-22 0 -22 -16q0 -11 13 -25t35 -21h35v-36h-120v36h29q-26 24 -26 52q0 17 13 29.5t36 12.5q14 0 31 -5.5t31 -13.5z" />
    <glyph glyph-name="yehhmz" unicode="&#x626;" horiz-adv-x="670" arabic-form="isolated" 
d="M576 272q-59 18 -92 18q-43 0 -68.5 -28.5t-25.5 -91.5v-50h160q21 0 35.5 -14.5t14.5 -35.5v-50q0 -38 -14 -70.5t-38.5 -57t-57.5 -38.5t-70 -14h-170q-38 0 -70.5 14t-57 38.5t-38.5 57t-14 70.5v120h60v-120q0 -25 9.5 -46.5t26 -38t38 -26t46.5 -9.5h170
q25 0 46.5 9.5t38 26t26 38t9.5 46.5v40h-160q-21 0 -35.5 14.5t-14.5 35.5v60q0 94 42 137t112 43q46 0 111 -20zM148 385q-7 5 -18 9t-21 4q-22 0 -22 -16q0 -11 13 -25t35 -21h35v-36h-120v36h29q-26 24 -26 52q0 17 13 29.5t36 12.5q14 0 31 -5.5t31 -13.5z" />
    <glyph glyph-name="beh" unicode="&#x628;" horiz-adv-x="770" arabic-form="isolated" 
d="M640 320h60v-240q0 -33 -23.5 -56.5t-56.5 -23.5h-470q-33 0 -56.5 23.5t-23.5 56.5v240h60v-240q0 -8 6 -14t14 -6h470q8 0 14 6t6 14v240zM378 -58l49 -50l-42 -42l-50 49z" />
    <glyph glyph-name="marbuta" unicode="&#x629;" horiz-adv-x="440" arabic-form="isolated" 
d="M70 0v175q0 39 13 66.5t34.5 45t49.5 25.5t59 8q38 0 75.5 -11.5t68.5 -31.5v-277h-300zM310 60v182q-39 18 -84 18q-19 0 -36 -5t-30.5 -15t-21.5 -26.5t-8 -38.5v-115h180zM158 492l49 -50l-42 -42l-50 49zM278 492l49 -50l-42 -42l-50 49z" />
    <glyph glyph-name="teh" unicode="&#x62a;" horiz-adv-x="770" arabic-form="isolated" 
d="M640 320h60v-240q0 -33 -23.5 -56.5t-56.5 -23.5h-470q-33 0 -56.5 23.5t-23.5 56.5v240h60v-240q0 -8 6 -14t14 -6h470q8 0 14 6t6 14v240zM323 492l49 -50l-42 -42l-50 49zM443 492l49 -50l-42 -42l-50 49z" />
    <glyph glyph-name="theh" unicode="&#x62b;" horiz-adv-x="770" arabic-form="isolated" 
d="M640 320h60v-240q0 -33 -23.5 -56.5t-56.5 -23.5h-470q-33 0 -56.5 23.5t-23.5 56.5v240h60v-240q0 -8 6 -14t14 -6h470q8 0 14 6t6 14v240zM378 572l49 -50l-42 -42l-50 49zM323 472l49 -50l-42 -42l-50 49zM443 472l49 -50l-42 -42l-50 49z" />
    <glyph glyph-name="jeem" unicode="&#x62c;" horiz-adv-x="480" arabic-form="isolated" 
d="M253 -270q-47 0 -82 14t-58 37t-34 52.5t-11 59.5q0 31 12 61t35 53.5t57 38t78 14.5h76q-30 22 -48 60q-12 25 -23 49.5t-23 44.5t-27.5 32.5t-36.5 12.5q-14 0 -31 -6.5t-39 -23.5l-28 48q26 19 49.5 31t52.5 12q37 0 61.5 -19.5t42.5 -48t32 -62.5t30.5 -62.5
t37.5 -48t54 -19.5v-60h-180q-30 0 -52.5 -9.5t-38 -24.5t-23.5 -34t-8 -39t8 -39t24.5 -34t41.5 -24t59 -9q37 0 69 9v-57q-42 -9 -77 -9zM-17 0v0v0v0zM-17 0v0v0v0v0v0zM-17 0v0v0zM-17 0v0v0zM-17 0zM-17 0zM-17 0zM-17 0v0v0v0zM-17 0v0v0v0v0v0zM-17 0v0v0v0v0v0z
M-17 0v0v0v0v0zM-17 0v0v0v0zM-17 0zM-17 0zM-17 0zM-17 0zM-17 0zM-17 0zM-17 0zM-5 0v0v0v0zM-5 0v0v0v0v0v0zM-5 0v0v0zM-5 0v0v0zM-5 0zM-5 0zM-5 0zM-5 0v0v0v0zM-5 0v0v0v0v0v0zM-5 0v0v0v0v0v0zM-5 0v0v0v0v0zM-5 0v0v0v0zM-5 0zM-5 0zM-5 0zM-5 0zM-5 0zM-5 0zM-5 0
zM271 -63l49 -50l-42 -42l-50 49z" />
    <glyph glyph-name="khah" unicode="&#x62e;" horiz-adv-x="480" arabic-form="isolated" 
d="M253 -270q-47 0 -82 14t-58 37t-34 52.5t-11 59.5q0 31 12 61t35 53.5t57 38t78 14.5h76q-30 22 -48 60q-12 25 -23 49.5t-23 44.5t-27.5 32.5t-36.5 12.5q-14 0 -31 -6.5t-39 -23.5l-28 48q26 19 49.5 31t52.5 12q37 0 61.5 -19.5t42.5 -48t32 -62.5t30.5 -62.5
t37.5 -48t54 -19.5v-60h-180q-30 0 -52.5 -9.5t-38 -24.5t-23.5 -34t-8 -39t8 -39t24.5 -34t41.5 -24t59 -9q37 0 69 9v-57q-42 -9 -77 -9zM-17 0v0v0v0zM-17 0v0v0v0v0v0zM-17 0v0v0zM-17 0v0v0zM-17 0zM-17 0zM-17 0zM-17 0v0v0v0zM-17 0v0v0v0v0v0zM-17 0v0v0v0v0v0z
M-17 0v0v0v0v0zM-17 0v0v0v0zM-17 0zM-17 0zM-17 0zM-17 0zM-17 0zM-17 0zM-17 0zM-5 0v0v0v0zM-5 0v0v0v0v0v0zM-5 0v0v0zM-5 0v0v0zM-5 0zM-5 0zM-5 0zM-5 0v0v0v0zM-5 0v0v0v0v0v0zM-5 0v0v0v0v0v0zM-5 0v0v0v0v0zM-5 0v0v0v0zM-5 0zM-5 0zM-5 0zM-5 0zM-5 0zM-5 0zM-5 0
zM183 502l49 -50l-42 -42l-50 49z" />
    <glyph glyph-name="zal" unicode="&#x630;" horiz-adv-x="410" arabic-form="isolated" 
d="M270 220q0 26 -24.5 38t-59.5 12q-23 0 -47.5 -5t-46.5 -15l-12 57q51 23 109 23q28 0 53.5 -6.5t45 -20t31 -34t11.5 -49.5v-220h-280v60h220v160zM148 532l49 -50l-42 -42l-50 49z" />
    <glyph glyph-name="zain" unicode="&#x632;" horiz-adv-x="240" arabic-form="isolated" 
d="M100 320h60v-330q0 -76 -35 -113t-97 -37q-53 0 -118 25q7 15 11 26q4 10 7 18.5t4 8.5q48 -17 87 -17q36 0 58.5 19.5t22.5 69.5v330zM113 492l49 -50l-42 -42l-50 49z" />
    <glyph glyph-name="sheen" unicode="&#x634;" horiz-adv-x="940" arabic-form="isolated" 
d="M810 320h60v-240q0 -33 -23.5 -56.5t-56.5 -23.5h-340v-60q0 -33 -23.5 -56.5t-56.5 -23.5h-120q-37 0 -70 14t-57.5 38.5t-38.5 57.5t-14 70v130h60v-130q0 -25 9.5 -46.5t26 -38t38 -26t46.5 -9.5h120q8 0 14 6t6 14v380h60v-260h150v260h60v-260h130q8 0 14 6t6 14
v240zM603 572l49 -50l-42 -42l-50 49zM548 472l49 -50l-42 -42l-50 49zM668 472l49 -50l-42 -42l-50 49z" />
    <glyph glyph-name="dad" unicode="&#x636;" horiz-adv-x="920" arabic-form="isolated" 
d="M430 156l76 62q40 33 70.5 53t54 31t42.5 14.5t37 3.5q29 0 54.5 -11t44.5 -30t30 -44.5t11 -54.5v-100q0 -33 -23.5 -56.5t-56.5 -23.5h-340v-60q0 -33 -23.5 -56.5t-56.5 -23.5h-100q-37 0 -70 14t-57.5 38.5t-38.5 57.5t-14 70v130h60v-130q0 -25 9.5 -46.5t26 -38
t38 -26t46.5 -9.5h100q8 0 14 6t6 14v370h60v-154zM430 82v-22h340q8 0 14 6t6 14v100q0 33 -23.5 56.5t-56.5 23.5q-13 0 -26 -2t-31.5 -10.5t-45 -26.5t-66.5 -50zM603 492l49 -50l-42 -42l-50 49z" />
    <glyph glyph-name="zah" unicode="&#x638;" horiz-adv-x="700" arabic-form="isolated" 
d="M80 0q-13 0 -21.5 8.5t-8.5 21.5t8.5 21.5t21.5 8.5h70v480h60v-384l76 62q40 33 70.5 53t54 31t42.5 14.5t37 3.5q29 0 54.5 -11t44.5 -30t30 -44.5t11 -54.5v-100q0 -33 -23.5 -56.5t-56.5 -23.5h-470zM210 82v-22h340q8 0 14 6t6 14v100q0 33 -23.5 56.5t-56.5 23.5
q-13 0 -26 -2t-31.5 -10.5t-45 -26.5t-66.5 -50zM453 492l49 -50l-42 -42l-50 49z" />
    <glyph glyph-name="ghain" unicode="&#x63a;" horiz-adv-x="450" arabic-form="isolated" 
d="M380 60v-60h-130q-30 0 -52.5 -9.5t-38 -24.5t-23.5 -34t-8 -39t8 -39t24.5 -34t41.5 -24t59 -9q37 0 69 9v-57q-42 -9 -77 -9q-46 0 -80.5 14t-58 36.5t-35 51.5t-11.5 60q0 46 25 88t78 67q-40 29 -60.5 68t-20.5 77q0 29 11.5 53t31.5 40.5t46.5 25.5t55.5 9
q32 0 65.5 -11.5t64.5 -37.5l-15 -52q-24 18 -56 29.5t-61 11.5q-43 0 -63 -20t-20 -49q0 -20 9 -42t26 -40.5t41 -32t54 -16.5h100zM213 492l49 -50l-42 -42l-50 49z" />
    <glyph glyph-name="feh" unicode="&#x641;" horiz-adv-x="850" arabic-form="isolated" 
d="M544 60q-35 30 -54.5 70t-19.5 78q0 46 31 79t99 33h100q33 0 56.5 -23.5t23.5 -56.5v-240h-630q-33 0 -56.5 23.5t-23.5 56.5v240h60v-240q0 -8 6 -14t14 -6h394zM530 203q0 -22 12 -47t32.5 -46.5t48 -35.5t57.5 -14h40v180q0 8 -6 14t-14 6h-100q-38 0 -54 -16.5
t-16 -40.5zM624 492l49 -50l-42 -42l-50 49z" />
    <glyph glyph-name="qaf" unicode="&#x642;" horiz-adv-x="640" arabic-form="isolated" 
d="M250 -140q-37 0 -70 14t-57.5 38.5t-38.5 57.5t-14 70v130h60v-130q0 -25 9.5 -46.5t26 -38t38 -26t46.5 -9.5h140q25 0 46.5 9.5t38 26t26 38t9.5 46.5h-140q-42 0 -71 29t-29 71v50q0 44 12 76t33 53t49 31t60 10q36 0 73.5 -12.5t72.5 -37.5v-270q0 -37 -14 -70
t-38.5 -57.5t-57.5 -38.5t-70 -14h-140zM510 100v177q-43 23 -86 23q-38 0 -66 -26.5t-28 -83.5v-50q0 -17 11.5 -28.5t28.5 -11.5h140zM358 532l49 -50l-42 -42l-50 49zM478 532l49 -50l-42 -42l-50 49z" />
    <glyph glyph-name="noon" unicode="&#x646;" horiz-adv-x="520" arabic-form="isolated" 
d="M450 -20q0 -33 -23.5 -56.5t-56.5 -23.5h-120q-37 0 -70 14t-57.5 38.5t-38.5 57.5t-14 70v140h60v-140q0 -25 9.5 -46.5t26 -38t38 -26t46.5 -9.5h120q8 0 14 6t6 14v340h60v-340zM28 0v0v0v0zM28 0v0v0v0v0v0zM28 0v0v0zM28 0v0v0zM28 0zM28 0zM28 0zM28 0v0v0v0zM28 0
v0v0v0v0v0zM28 0v0v0v0v0v0zM28 0v0v0v0v0zM28 0v0v0v0zM28 0zM28 0zM28 0zM28 0zM28 0zM28 0zM28 0zM28 0v0v0v0zM28 0v0v0v0v0v0zM28 0v0v0zM28 0v0v0zM28 0zM28 0zM28 0zM28 0v0v0v0zM28 0v0v0v0v0v0zM28 0v0v0v0v0v0zM28 0v0v0v0v0zM28 0v0v0v0zM28 0zM28 0zM28 0zM28 0
zM28 0zM28 0zM28 0zM253 492l49 -50l-42 -42l-50 49z" />
    <glyph glyph-name="yeh" unicode="&#x64a;" horiz-adv-x="670" arabic-form="isolated" 
d="M576 272q-59 18 -92 18q-43 0 -68.5 -28.5t-25.5 -91.5v-50h160q21 0 35.5 -14.5t14.5 -35.5v-50q0 -38 -14 -70.5t-38.5 -57t-57.5 -38.5t-70 -14h-170q-38 0 -70.5 14t-57 38.5t-38.5 57t-14 70.5v120h60v-120q0 -25 9.5 -46.5t26 -38t38 -26t46.5 -9.5h170
q25 0 46.5 9.5t38 26t26 38t9.5 46.5v40h-160q-21 0 -35.5 14.5t-14.5 35.5v60q0 94 42 137t112 43q46 0 111 -20zM273 -188l49 -45l-42 -38l-50 44zM393 -188l49 -45l-42 -38l-50 44z" />
    <glyph glyph-name="sennan" unicode="&#x66e;" horiz-adv-x="260" 
d="M130 320h60v-320h-190q-13 0 -21.5 8.5t-8.5 21.5t8.5 21.5t21.5 8.5h130v260z" />
    <glyph glyph-name="sennam" unicode="&#x66e;" horiz-adv-x="300" 
d="M-30 30q0 13 8.5 21.5t21.5 8.5h120v260h60v-260h120v-60h-300q-13 0 -21.5 8.5t-8.5 21.5z" />
    <glyph glyph-name="behfc" unicode="&#x66e;" horiz-adv-x="770" 
d="M130 80q0 -8 6 -14t14 -6h480v260h60v-260h80v-60h-620q-33 0 -56.5 23.5t-23.5 56.5v240h60v-240z" />
    <glyph glyph-name="uni066F.init" unicode="&#x66f;" horiz-adv-x="450" 
d="M144 60q-35 30 -54.5 70t-19.5 78q0 46 31 79t99 33h100q33 0 56.5 -23.5t23.5 -56.5v-240h-380q-13 0 -21.5 8.5t-8.5 21.5t8.5 21.5t21.5 8.5h144zM130 203q0 -22 12 -47t32.5 -46.5t48 -35.5t57.5 -14h40v180q0 8 -6 14t-14 6h-100q-38 0 -54 -16.5t-16 -40.5z" />
    <glyph glyph-name="uni066F.medi" unicode="&#x66f;" horiz-adv-x="480" 
d="M70 165q0 32 13.5 60.5t36.5 49.5t54 33t66 12t66 -12t54 -33t36.5 -49.5t13.5 -60.5q0 -31 -12 -58t-33 -47h115v-60h-480q-13 0 -21.5 8.5t-8.5 21.5t8.5 21.5t21.5 8.5h114q-44 42 -44 105zM130 160q0 -21 8.5 -39t23.5 -31.5t35 -21.5t43 -8t43 8t35 21.5t23.5 31.5
t8.5 39t-8.5 39t-23.5 31.5t-35 21.5t-43 8t-43 -8t-35 -21.5t-23.5 -31.5t-8.5 -39z" />
    <glyph glyph-name="qaffc" unicode="&#x66f;" horiz-adv-x="640" 
d="M390 -120q25 0 46.5 9.5t38 26t26 38t9.5 46.5h-140q-42 0 -71 29t-29 71v50q0 44 12 76t33 53t49 31t60 10q36 0 73.5 -12.5t72.5 -37.5v-210h70v-60h-70q0 -37 -14 -70t-38.5 -57.5t-57.5 -38.5t-70 -14h-140q-37 0 -70 14t-57.5 38.5t-38.5 57.5t-14 70v130h60v-130
q0 -25 9.5 -46.5t26 -38t38 -26t46.5 -9.5h140zM510 60v177q-43 23 -86 23q-38 0 -66 -26.5t-28 -83.5v-50q0 -17 11.5 -28.5t28.5 -11.5h140z" />
    <glyph glyph-name="wasl" unicode="&#x671;" horiz-adv-x="220" arabic-form="isolated" 
d="M140 540v-540h-60v540h60zM35 610h15v56h30v-23l15 14q9 8 21 8h39q8 0 14 -6.5t6 -15.5v-63h-140v30zM80 610h65v25h-35z" />
    <glyph glyph-name="uni0679" unicode="&#x679;" horiz-adv-x="770" arabic-form="isolated" 
d="M640 320h60v-240q0 -33 -23.5 -56.5t-56.5 -23.5h-470q-33 0 -56.5 23.5t-23.5 56.5v240h60v-240q0 -8 6 -14t14 -6h470q8 0 14 6t6 14v240zM320 430h15v106h28v-75l17 16q9 8 21 8h39q8 0 14 -6.5t6 -15.5v-63h-140v30zM365 430h65v25h-35z" />
    <glyph glyph-name="uni067E" unicode="&#x67e;" horiz-adv-x="770" arabic-form="isolated" 
d="M640 320h60v-240q0 -33 -23.5 -56.5t-56.5 -23.5h-470q-33 0 -56.5 23.5t-23.5 56.5v240h60v-240q0 -8 6 -14t14 -6h470q8 0 14 6t6 14v240zM388 -138l49 -50l-42 -42l-50 49zM323 -48l49 -50l-42 -42l-50 49zM443 -48l49 -50l-42 -42l-50 49z" />
    <glyph glyph-name="uni0686" unicode="&#x686;" horiz-adv-x="490" arabic-form="isolated" 
d="M280 -269q-7 -1 -14 -1h-13q-47 0 -82 14t-58 37t-34 52.5t-11 59.5q0 31 12 61t35 53.5t57 38t78 14.5h76q-30 22 -48 60q-12 25 -23 49.5t-23 44.5t-27.5 32.5t-36.5 12.5q-14 0 -31 -6.5t-39 -23.5l-28 48q26 19 49.5 31t52.5 12q37 0 61.5 -19.5t42.5 -48t32 -62.5
t30.5 -62.5t37.5 -48t54 -19.5v-60h-180q-30 0 -52.5 -9.5t-38 -24.5t-23.5 -34t-8 -39t8 -39t24.5 -34t41.5 -24t59 -9q5 0 9.5 0.5t9.5 0.5v-57zM345 -138l44 -50l-38 -42l-45 49zM286 -48l44 -50l-38 -42l-45 49zM394 -48l44 -50l-38 -42l-45 49z" />
    <glyph glyph-name="uni0688" unicode="&#x688;" horiz-adv-x="410" arabic-form="isolated" 
d="M270 220q0 26 -24.5 38t-59.5 12q-23 0 -47.5 -5t-46.5 -15l-12 57q51 23 109 23q28 0 53.5 -6.5t45 -20t31 -34t11.5 -49.5v-220h-280v60h220v160zM95 460h15v106h28v-75l17 16q9 8 21 8h39q8 0 14 -6.5t6 -15.5v-63h-140v30zM140 460h65v25h-35z" />
    <glyph glyph-name="uni0691" unicode="&#x691;" horiz-adv-x="240" arabic-form="isolated" 
d="M100 320h60v-330q0 -76 -35 -113t-97 -37q-53 0 -118 25q7 15 11 26q4 10 7 18.5t4 8.5q48 -17 87 -17q36 0 58.5 19.5t22.5 69.5v330zM39 430h15v106h28v-75l17 16q9 8 21 8h39q8 0 14 -6.5t6 -15.5v-63h-140v30zM84 430h65v25h-35z" />
    <glyph glyph-name="uni0698" unicode="&#x698;" horiz-adv-x="240" arabic-form="isolated" 
d="M100 320h60v-330q0 -76 -35 -113t-97 -37q-53 0 -118 25q7 15 11 26q4 10 7 18.5t4 8.5q48 -17 87 -17q36 0 58.5 19.5t22.5 69.5v330zM109 572l44 -50l-38 -42l-45 49zM59 472l44 -50l-38 -42l-45 49zM167 472l44 -50l-38 -42l-45 49z" />
    <glyph glyph-name="uni069C.init" unicode="&#x69c;" horiz-adv-x="660" 
d="M110 60v260h60v-260h150v260h60v-260h130q8 0 14 6t6 14v240h60v-240q0 -33 -23.5 -56.5t-56.5 -23.5h-510q-13 0 -21.5 8.5t-8.5 21.5t8.5 21.5t21.5 8.5h110zM353 -138l49 -50l-42 -42l-50 49zM288 -48l49 -50l-42 -42l-50 49zM408 -48l49 -50l-42 -42l-50 49zM343 572
l49 -50l-42 -42l-50 49zM288 472l49 -50l-42 -42l-50 49zM408 472l49 -50l-42 -42l-50 49z" />
    <glyph glyph-name="uni069C.medi" unicode="&#x69c;" horiz-adv-x="700" 
d="M110 60v260h60v-260h150v260h60v-260h150v260h60v-260h110v-60h-700q-13 0 -21.5 8.5t-8.5 21.5t8.5 21.5t21.5 8.5h110zM343 572l49 -50l-42 -42l-50 49zM288 472l49 -50l-42 -42l-50 49zM408 472l49 -50l-42 -42l-50 49zM353 -138l49 -50l-42 -42l-50 49zM288 -48
l49 -50l-42 -42l-50 49zM408 -48l49 -50l-42 -42l-50 49z" />
    <glyph glyph-name="uni069C.fina" unicode="&#x69c;" horiz-adv-x="980" 
d="M390 320h60v-260h150v260h60v-260h150v260h60v-260h110v-60h-530v-60q0 -33 -23.5 -56.5t-56.5 -23.5h-120q-37 0 -70 14t-57.5 38.5t-38.5 57.5t-14 70v130h60v-130q0 -25 9.5 -46.5t26 -38t38 -26t46.5 -9.5h120q8 0 14 6t6 14v380zM661 -138l49 -50l-42 -42l-50 49z
M596 -48l49 -50l-42 -42l-50 49zM716 -48l49 -50l-42 -42l-50 49zM603 572l49 -50l-42 -42l-50 49zM548 472l49 -50l-42 -42l-50 49zM668 472l49 -50l-42 -42l-50 49z" />
    <glyph glyph-name="fehnc" unicode="&#x6a1;" horiz-adv-x="450" 
d="M144 60q-35 30 -54.5 70t-19.5 78q0 46 31 79t99 33h100q33 0 56.5 -23.5t23.5 -56.5v-240h-380q-13 0 -21.5 8.5t-8.5 21.5t8.5 21.5t21.5 8.5h144zM130 203q0 -22 12 -47t32.5 -46.5t48 -35.5t57.5 -14h40v180q0 8 -6 14t-14 6h-100q-38 0 -54 -16.5t-16 -40.5z" />
    <glyph glyph-name="fehmc" unicode="&#x6a1;" horiz-adv-x="480" 
d="M70 165q0 32 13.5 60.5t36.5 49.5t54 33t66 12t66 -12t54 -33t36.5 -49.5t13.5 -60.5q0 -31 -12 -58t-33 -47h115v-60h-480q-13 0 -21.5 8.5t-8.5 21.5t8.5 21.5t21.5 8.5h114q-44 42 -44 105zM130 160q0 -21 8.5 -39t23.5 -31.5t35 -21.5t43 -8t43 8t35 21.5t23.5 31.5
t8.5 39t-8.5 39t-23.5 31.5t-35 21.5t-43 8t-43 -8t-35 -21.5t-23.5 -31.5t-8.5 -39z" />
    <glyph glyph-name="fehfc" unicode="&#x6a1;" horiz-adv-x="850" 
d="M850 0h-700q-33 0 -56.5 23.5t-23.5 56.5v210h60v-210q0 -8 6 -14t14 -6h334q-44 42 -44 105q0 32 13.5 60.5t36.5 49.5t54 33t66 12t66 -12t54 -33t36.5 -49.5t13.5 -60.5q0 -31 -12 -58t-33 -47h115v-60zM500 160q0 -20 8 -38.5t23 -32t35 -21.5t44 -8q23 0 43 8
t35 21.5t23.5 31.5t8.5 39t-8.5 39t-23.5 31.5t-35 21.5t-43 8t-43 -8t-35 -21.5t-23.5 -31.5t-8.5 -39z" />
    <glyph glyph-name="uni06A2.init" unicode="&#x6a2;" horiz-adv-x="450" 
d="M144 60q-35 30 -54.5 70t-19.5 78q0 46 31 79t99 33h100q33 0 56.5 -23.5t23.5 -56.5v-240h-380q-13 0 -21.5 8.5t-8.5 21.5t8.5 21.5t21.5 8.5h144zM130 203q0 -22 12 -47t32.5 -46.5t48 -35.5t57.5 -14h40v180q0 8 -6 14t-14 6h-100q-38 0 -54 -16.5t-16 -40.5z
M218 -58l49 -50l-42 -42l-50 49z" />
    <glyph glyph-name="uni06A2.medi" unicode="&#x6a2;" horiz-adv-x="480" 
d="M70 165q0 32 13.5 60.5t36.5 49.5t54 33t66 12t66 -12t54 -33t36.5 -49.5t13.5 -60.5q0 -31 -12 -58t-33 -47h115v-60h-480q-13 0 -21.5 8.5t-8.5 21.5t8.5 21.5t21.5 8.5h114q-44 42 -44 105zM130 160q0 -21 8.5 -39t23.5 -31.5t35 -21.5t43 -8t43 8t35 21.5t23.5 31.5
t8.5 39t-8.5 39t-23.5 31.5t-35 21.5t-43 8t-43 -8t-35 -21.5t-23.5 -31.5t-8.5 -39zM238 -58l49 -50l-42 -42l-50 49z" />
    <glyph glyph-name="uni06A2.fina" unicode="&#x6a2;" horiz-adv-x="850" 
d="M850 0h-700q-33 0 -56.5 23.5t-23.5 56.5v210h60v-210q0 -8 6 -14t14 -6h334q-44 42 -44 105q0 32 13.5 60.5t36.5 49.5t54 33t66 12t66 -12t54 -33t36.5 -49.5t13.5 -60.5q0 -31 -12 -58t-33 -47h115v-60zM500 160q0 -20 8 -38.5t23 -32t35 -21.5t44 -8q23 0 43 8
t35 21.5t23.5 31.5t8.5 39t-8.5 39t-23.5 31.5t-35 21.5t-43 8t-43 -8t-35 -21.5t-23.5 -31.5t-8.5 -39zM623 -58l49 -50l-42 -42l-50 49z" />
    <glyph glyph-name="uni06A4" unicode="&#x6a4;" horiz-adv-x="850" arabic-form="isolated" 
d="M544 60q-35 30 -54.5 70t-19.5 78q0 46 31 79t99 33h100q33 0 56.5 -23.5t23.5 -56.5v-240h-630q-33 0 -56.5 23.5t-23.5 56.5v240h60v-240q0 -8 6 -14t14 -6h394zM530 203q0 -22 12 -47t32.5 -46.5t48 -35.5t57.5 -14h40v180q0 8 -6 14t-14 6h-100q-38 0 -54 -16.5
t-16 -40.5zM623 572l49 -50l-42 -42l-50 49zM568 472l49 -50l-42 -42l-50 49zM688 472l49 -50l-42 -42l-50 49z" />
    <glyph glyph-name="uni06A5.init" unicode="&#x6a5;" horiz-adv-x="450" 
d="M144 60q-35 30 -54.5 70t-19.5 78q0 46 31 79t99 33h100q33 0 56.5 -23.5t23.5 -56.5v-240h-380q-13 0 -21.5 8.5t-8.5 21.5t8.5 21.5t21.5 8.5h144zM130 203q0 -22 12 -47t32.5 -46.5t48 -35.5t57.5 -14h40v180q0 8 -6 14t-14 6h-100q-38 0 -54 -16.5t-16 -40.5z
M233 -138l49 -50l-42 -42l-50 49zM168 -48l49 -50l-42 -42l-50 49zM288 -48l49 -50l-42 -42l-50 49z" />
    <glyph glyph-name="uni06A5.medi" unicode="&#x6a5;" horiz-adv-x="480" 
d="M70 165q0 32 13.5 60.5t36.5 49.5t54 33t66 12t66 -12t54 -33t36.5 -49.5t13.5 -60.5q0 -31 -12 -58t-33 -47h115v-60h-480q-13 0 -21.5 8.5t-8.5 21.5t8.5 21.5t21.5 8.5h114q-44 42 -44 105zM130 160q0 -21 8.5 -39t23.5 -31.5t35 -21.5t43 -8t43 8t35 21.5t23.5 31.5
t8.5 39t-8.5 39t-23.5 31.5t-35 21.5t-43 8t-43 -8t-35 -21.5t-23.5 -31.5t-8.5 -39zM242 -138l49 -50l-42 -42l-50 49zM177 -48l49 -50l-42 -42l-50 49zM297 -48l49 -50l-42 -42l-50 49z" />
    <glyph glyph-name="uni06A5.fina" unicode="&#x6a5;" horiz-adv-x="850" 
d="M850 0h-700q-33 0 -56.5 23.5t-23.5 56.5v210h60v-210q0 -8 6 -14t14 -6h334q-44 42 -44 105q0 32 13.5 60.5t36.5 49.5t54 33t66 12t66 -12t54 -33t36.5 -49.5t13.5 -60.5q0 -31 -12 -58t-33 -47h115v-60zM500 160q0 -20 8 -38.5t23 -32t35 -21.5t44 -8q23 0 43 8
t35 21.5t23.5 31.5t8.5 39t-8.5 39t-23.5 31.5t-35 21.5t-43 8t-43 -8t-35 -21.5t-23.5 -31.5t-8.5 -39zM633 -138l49 -50l-42 -42l-50 49zM568 -48l49 -50l-42 -42l-50 49zM688 -48l49 -50l-42 -42l-50 49z" />
    <glyph glyph-name="uni06A7.fina" unicode="&#x6a7;" horiz-adv-x="640" 
d="M390 -120q25 0 46.5 9.5t38 26t26 38t9.5 46.5h-140q-42 0 -71 29t-29 71v50q0 44 12 76t33 53t49 31t60 10q36 0 73.5 -12.5t72.5 -37.5v-210h70v-60h-70q0 -37 -14 -70t-38.5 -57.5t-57.5 -38.5t-70 -14h-140q-37 0 -70 14t-57.5 38.5t-38.5 57.5t-14 70v130h60v-130
q0 -25 9.5 -46.5t26 -38t38 -26t46.5 -9.5h140zM510 60v177q-43 23 -86 23q-38 0 -66 -26.5t-28 -83.5v-50q0 -17 11.5 -28.5t28.5 -11.5h140zM413 492l49 -50l-42 -42l-50 49z" />
    <glyph glyph-name="uni06A8.fina" unicode="&#x6a8;" horiz-adv-x="640" 
d="M390 -120q25 0 46.5 9.5t38 26t26 38t9.5 46.5h-140q-42 0 -71 29t-29 71v50q0 44 12 76t33 53t49 31t60 10q36 0 73.5 -12.5t72.5 -37.5v-210h70v-60h-70q0 -37 -14 -70t-38.5 -57.5t-57.5 -38.5t-70 -14h-140q-37 0 -70 14t-57.5 38.5t-38.5 57.5t-14 70v130h60v-130
q0 -25 9.5 -46.5t26 -38t38 -26t46.5 -9.5h140zM510 60v177q-43 23 -86 23q-38 0 -66 -26.5t-28 -83.5v-50q0 -17 11.5 -28.5t28.5 -11.5h140zM413 572l49 -50l-42 -42l-50 49zM358 472l49 -50l-42 -42l-50 49zM478 472l49 -50l-42 -42l-50 49z" />
    <glyph glyph-name="uni06A9" unicode="&#x6a9;" horiz-adv-x="712" arabic-form="isolated" 
d="M465 311q33 -4 64.5 -14t56 -29.5t39.5 -50.5t15 -77v-140h-490q-34 0 -57 23t-23 57v210h60v-210q0 -8 6 -14t14 -6h430v80q0 38 -18 61t-46 35t-62 16t-65 4l-13 54l224 216l42 -42z" />
    <glyph glyph-name="uni06AF" unicode="&#x6af;" horiz-adv-x="712" arabic-form="isolated" 
d="M465 311q33 -4 64.5 -14t56 -29.5t39.5 -50.5t15 -77v-140h-490q-34 0 -57 23t-23 57v210h60v-210q0 -8 6 -14t14 -6h430v80q0 38 -18 61t-46 35t-62 16t-65 4l-13 54l224 216l42 -42zM307 431l198 191l42 -43l-209 -201z" />
    <glyph glyph-name="uni06BA.init" unicode="&#x6ba;" horiz-adv-x="260" 
d="M130 320h60v-320h-190q-13 0 -21.5 8.5t-8.5 21.5t8.5 21.5t21.5 8.5h130v260zM143 492l49 -50l-42 -42l-50 49z" />
    <glyph glyph-name="uni06BA.medi" unicode="&#x6ba;" horiz-adv-x="300" 
d="M-30 30q0 13 8.5 21.5t21.5 8.5h120v260h60v-260h120v-60h-300q-13 0 -21.5 8.5t-8.5 21.5zM143 492l49 -50l-42 -42l-50 49z" />
    <glyph glyph-name="uni06BE" unicode="&#x6be;" horiz-adv-x="640" arabic-form="isolated" 
d="M270 240q-21 0 -37.5 -8.5t-28.5 -22.5t-18 -31.5t-6 -35.5q0 -32 21.5 -57t68.5 -25h60v160q0 8 -6 14t-14 6h-40zM310 300q33 0 56.5 -23.5t23.5 -56.5v-160h120v160q0 66 -30.5 93t-77.5 27q-18 0 -41 -2.5t-43 -8.5l-12 51q62 20 110 20q69 0 111.5 -43t42.5 -137
v-220h-510q-13 0 -21.5 8.5t-8.5 21.5t8.5 21.5t21.5 8.5h83q-12 18 -17.5 38.5t-5.5 43.5q0 28 10.5 56.5t30 51t47 36.5t62.5 14h40z" />
    <glyph glyph-name="uni06C0" unicode="&#x6c0;" horiz-adv-x="440" arabic-form="isolated" 
d="M70 0v175q0 39 13 66.5t34.5 45t49.5 25.5t59 8q38 0 75.5 -11.5t68.5 -31.5v-277h-300zM310 60v182q-39 18 -84 18q-19 0 -36 -5t-30.5 -15t-21.5 -26.5t-8 -38.5v-115h180zM258 485q-7 5 -18 9t-21 4q-22 0 -22 -16q0 -11 13 -25t35 -21h35v-36h-120v36h29
q-26 24 -26 52q0 17 13 29.5t36 12.5q14 0 31 -5.5t31 -13.5z" />
    <glyph glyph-name="uni06C1" unicode="&#x6c1;" horiz-adv-x="440" arabic-form="isolated" 
d="M70 0v175q0 39 13 66.5t34.5 45t49.5 25.5t59 8q38 0 75.5 -11.5t68.5 -31.5v-277h-300zM310 60v182q-39 18 -84 18q-19 0 -36 -5t-30.5 -15t-21.5 -26.5t-8 -38.5v-115h180z" />
    <glyph glyph-name="uni06C2.fina" unicode="&#x6c2;" horiz-adv-x="500" 
d="M135 0h-64l101 256q11 28 36 46t57 18h155v-240q0 -8 6 -14t14 -6h60v-60h-60q-33 0 -56.5 23.5t-23.5 56.5v180h-95q-12 0 -22 -7.5t-15 -18.5zM335 485q-7 5 -18 9t-21 4q-22 0 -22 -16q0 -11 13 -25t35 -21h35v-36h-120v36h29q-26 24 -26 52q0 17 13 29.5t36 12.5
q14 0 31 -5.5t31 -13.5z" />
    <glyph glyph-name="uni06C3.fina" unicode="&#x6c3;" horiz-adv-x="500" 
d="M135 0h-64l101 256q11 28 36 46t57 18h155v-240q0 -8 6 -14t14 -6h60v-60h-60q-33 0 -56.5 23.5t-23.5 56.5v180h-95q-12 0 -22 -7.5t-15 -18.5zM236 492l49 -50l-42 -42l-50 49zM356 492l49 -50l-42 -42l-50 49z" />
    <glyph glyph-name="uni06CC" unicode="&#x6cc;" horiz-adv-x="670" arabic-form="isolated" 
d="M576 272q-59 18 -92 18q-43 0 -68.5 -28.5t-25.5 -91.5v-50h160q21 0 35.5 -14.5t14.5 -35.5v-50q0 -38 -14 -70.5t-38.5 -57t-57.5 -38.5t-70 -14h-170q-38 0 -70.5 14t-57 38.5t-38.5 57t-14 70.5v120h60v-120q0 -25 9.5 -46.5t26 -38t38 -26t46.5 -9.5h170
q25 0 46.5 9.5t38 26t26 38t9.5 46.5v40h-160q-21 0 -35.5 14.5t-14.5 35.5v60q0 94 42 137t112 43q46 0 111 -20z" />
    <glyph glyph-name="uni06D2" unicode="&#x6d2;" horiz-adv-x="620" arabic-form="isolated" 
d="M550 0h-342q-32 0 -55 -23.5t-23 -56.5v-40h310q25 0 42.5 -17.5t17.5 -42.5h-370q-25 0 -42.5 17.5t-17.5 42.5v40q0 29 11 54.5t29.5 44.5t43.5 30t54 11h282v130q25 0 42.5 -17.5t17.5 -42.5v-130z" />
    <glyph glyph-name="uni06D3" unicode="&#x6d3;" horiz-adv-x="620" arabic-form="isolated" 
d="M550 0h-342q-32 0 -55 -23.5t-23 -56.5v-40h310q25 0 42.5 -17.5t17.5 -42.5h-370q-25 0 -42.5 17.5t-17.5 42.5v40q0 29 11 54.5t29.5 44.5t43.5 30t54 11h282v130q25 0 42.5 -17.5t17.5 -42.5v-130zM298 275q-7 5 -18 9t-21 4q-22 0 -22 -16q0 -11 13 -25t35 -21h35
v-36h-120v36h29q-26 24 -26 52q0 17 13 29.5t36 12.5q14 0 31 -5.5t31 -13.5z" />
    <glyph glyph-name="uni06D5.fina" unicode="&#x6d5;" horiz-adv-x="460" 
d="M70 122q0 31 16.5 65.5t47 64t75 49t101.5 19.5h70v-260h80v-60h-260q-35 0 -59.5 9.5t-40.5 26t-23 39t-7 47.5zM130 122q0 -24 16 -43t54 -19h120v200h-10q-43 0 -76.5 -13.5t-56.5 -33.5t-35 -44.5t-12 -46.5z" />
    <glyph glyph-name="waslf" unicode="&#x671;" horiz-adv-x="220" arabic-form="final" 
d="M130 540v-480h90v-60h-150v540h60zM35 610h15v56h30v-23l15 14q9 8 21 8h39q8 0 14 -6.5t6 -15.5v-63h-140v30zM80 610h65v25h-35z" />
    <glyph glyph-name="uni067E.fina" unicode="&#x67e;" horiz-adv-x="770" arabic-form="final" 
d="M130 80q0 -8 6 -14t14 -6h480v260h60v-260h80v-60h-620q-33 0 -56.5 23.5t-23.5 56.5v240h60v-240zM388 -138l49 -50l-42 -42l-50 49zM323 -48l49 -50l-42 -42l-50 49zM443 -48l49 -50l-42 -42l-50 49z" />
    <glyph glyph-name="uni067E.init" unicode="&#x67e;" horiz-adv-x="260" arabic-form="initial" 
d="M130 320h60v-320h-190q-13 0 -21.5 8.5t-8.5 21.5t8.5 21.5t21.5 8.5h130v260zM103 -138l49 -50l-42 -42l-50 49zM38 -48l49 -50l-42 -42l-50 49zM158 -48l49 -50l-42 -42l-50 49z" />
    <glyph glyph-name="uni067E.medi" unicode="&#x67e;" horiz-adv-x="300" arabic-form="medial" 
d="M-30 30q0 13 8.5 21.5t21.5 8.5h120v260h60v-260h120v-60h-300q-13 0 -21.5 8.5t-8.5 21.5zM128 -138l49 -50l-42 -42l-50 49zM63 -48l49 -50l-42 -42l-50 49zM183 -48l49 -50l-42 -42l-50 49z" />
    <glyph glyph-name="uni0679.fina" unicode="&#x679;" horiz-adv-x="770" arabic-form="final" 
d="M130 80q0 -8 6 -14t14 -6h480v260h60v-260h80v-60h-620q-33 0 -56.5 23.5t-23.5 56.5v240h60v-240zM320 430h15v106h28v-75l17 16q9 8 21 8h39q8 0 14 -6.5t6 -15.5v-63h-140v30zM365 430h65v25h-35z" />
    <glyph glyph-name="uni0679.init" unicode="&#x679;" horiz-adv-x="260" arabic-form="initial" 
d="M130 320h60v-320h-190q-13 0 -21.5 8.5t-8.5 21.5t8.5 21.5t21.5 8.5h130v260zM65 430h15v106h28v-75l17 16q9 8 21 8h39q8 0 14 -6.5t6 -15.5v-63h-140v30zM110 430h65v25h-35z" />
    <glyph glyph-name="uni0679.medi" unicode="&#x679;" horiz-adv-x="300" arabic-form="medial" 
d="M-30 30q0 13 8.5 21.5t21.5 8.5h120v260h60v-260h120v-60h-300q-13 0 -21.5 8.5t-8.5 21.5zM65 430h15v106h28v-75l17 16q9 8 21 8h39q8 0 14 -6.5t6 -15.5v-63h-140v30zM110 430h65v25h-35z" />
    <glyph glyph-name="uni06A4.fina" unicode="&#x6a4;" horiz-adv-x="850" arabic-form="final" 
d="M850 0h-700q-33 0 -56.5 23.5t-23.5 56.5v210h60v-210q0 -8 6 -14t14 -6h334q-44 42 -44 105q0 32 13.5 60.5t36.5 49.5t54 33t66 12t66 -12t54 -33t36.5 -49.5t13.5 -60.5q0 -31 -12 -58t-33 -47h115v-60zM500 160q0 -20 8 -38.5t23 -32t35 -21.5t44 -8q23 0 43 8
t35 21.5t23.5 31.5t8.5 39t-8.5 39t-23.5 31.5t-35 21.5t-43 8t-43 -8t-35 -21.5t-23.5 -31.5t-8.5 -39zM603 572l49 -50l-42 -42l-50 49zM548 472l49 -50l-42 -42l-50 49zM668 472l49 -50l-42 -42l-50 49z" />
    <glyph glyph-name="uni06A4.init" unicode="&#x6a4;" horiz-adv-x="450" arabic-form="initial" 
d="M144 60q-35 30 -54.5 70t-19.5 78q0 46 31 79t99 33h100q33 0 56.5 -23.5t23.5 -56.5v-240h-380q-13 0 -21.5 8.5t-8.5 21.5t8.5 21.5t21.5 8.5h144zM130 203q0 -22 12 -47t32.5 -46.5t48 -35.5t57.5 -14h40v180q0 8 -6 14t-14 6h-100q-38 0 -54 -16.5t-16 -40.5z
M218 572l49 -50l-42 -42l-50 49zM163 472l49 -50l-42 -42l-50 49zM283 472l49 -50l-42 -42l-50 49z" />
    <glyph glyph-name="uni06A4.medi" unicode="&#x6a4;" horiz-adv-x="480" arabic-form="medial" 
d="M70 165q0 32 13.5 60.5t36.5 49.5t54 33t66 12t66 -12t54 -33t36.5 -49.5t13.5 -60.5q0 -31 -12 -58t-33 -47h115v-60h-480q-13 0 -21.5 8.5t-8.5 21.5t8.5 21.5t21.5 8.5h114q-44 42 -44 105zM130 160q0 -21 8.5 -39t23.5 -31.5t35 -21.5t43 -8t43 8t35 21.5t23.5 31.5
t8.5 39t-8.5 39t-23.5 31.5t-35 21.5t-43 8t-43 -8t-35 -21.5t-23.5 -31.5t-8.5 -39zM232 572l49 -50l-42 -42l-50 49zM177 472l49 -50l-42 -42l-50 49zM297 472l49 -50l-42 -42l-50 49z" />
    <glyph glyph-name="uni0686.fina" unicode="&#x686;" horiz-adv-x="440" arabic-form="final" 
d="M280 -269q-7 -1 -14 -1h-13q-47 0 -82 14t-58 37t-34 52.5t-11 59.5q0 31 12 61t35 53.5t57 38t78 14.5h76q-30 22 -47 56t-31.5 66t-31.5 54.5t-48 22.5q-14 0 -31 -6.5t-39 -23.5l-28 48q26 19 49.5 31t52.5 12q37 0 61.5 -19.5t42.5 -48t32 -62.5t30.5 -62.5t37.5 -48
t54 -19.5h10v-60h-190q-30 0 -52.5 -9.5t-38 -24.5t-23.5 -34t-8 -39q0 -27 10.5 -47.5t28.5 -33.5t41 -19.5t48 -6.5q6 0 12 0.5t12 1.5v-57zM345 -138l44 -50l-38 -42l-45 49zM286 -48l44 -50l-38 -42l-45 49zM394 -48l44 -50l-38 -42l-45 49z" />
    <glyph glyph-name="uni0686.init" unicode="&#x686;" horiz-adv-x="490" arabic-form="initial" 
d="M-30 30q0 13 8.5 21.5t21.5 8.5h331q-17 11 -30 26t-26 35q-17 25 -32.5 49.5t-32 44t-34 32t-38.5 12.5q-14 0 -31 -6.5t-39 -23.5l-28 48q26 19 49.5 31t52.5 12q37 0 64.5 -19.5t50 -48t41.5 -62.5t40 -62.5t45 -48t57 -19.5h20v-60h-460q-13 0 -21.5 8.5t-8.5 21.5z
M223 -138l49 -50l-42 -42l-50 49zM158 -48l49 -50l-42 -42l-50 49zM278 -48l49 -50l-42 -42l-50 49z" />
    <glyph glyph-name="uni0686.medi" unicode="&#x686;" horiz-adv-x="480" arabic-form="medial" 
d="M480 60v-60h-480q-13 0 -21.5 8.5t-8.5 21.5t8.5 21.5t21.5 8.5h331q-17 11 -30 26t-26 35q-17 25 -32.5 49.5t-32 44t-34 32t-38.5 12.5q-14 0 -31 -6.5t-39 -23.5l-28 48q26 19 49.5 31t52.5 12q37 0 64.5 -19.5t50 -48t41.5 -62.5t40 -62.5t45 -48t57 -19.5h40z
M263 -138l49 -50l-42 -42l-50 49zM198 -48l49 -50l-42 -42l-50 49zM318 -48l49 -50l-42 -42l-50 49z" />
    <glyph glyph-name="uni0688.fina" unicode="&#x688;" horiz-adv-x="410" arabic-form="final" 
d="M270 220q0 26 -24.5 38t-59.5 12q-23 0 -47.5 -5t-46.5 -15l-12 57q51 23 109 23q28 0 53.5 -6.5t45 -20t31 -34t11.5 -49.5v-160h80v-60h-360v60h220v160zM95 460h15v106h28v-75l17 16q9 8 21 8h39q8 0 14 -6.5t6 -15.5v-63h-140v30zM140 460h65v25h-35z" />
    <glyph glyph-name="uni0698.fina" unicode="&#x698;" horiz-adv-x="240" arabic-form="final" 
d="M150 320v-260h90v-60h-90v-10q0 -76 -35 -113t-97 -37q-53 0 -118 25q7 15 11 26q4 10 7 18.5t4 8.5q48 -17 87 -17q36 0 58.5 19.5t22.5 69.5v330h60zM109 572l44 -50l-38 -42l-45 49zM59 472l44 -50l-38 -42l-45 49zM167 472l44 -50l-38 -42l-45 49z" />
    <glyph glyph-name="uni0691.fina" unicode="&#x691;" horiz-adv-x="240" arabic-form="final" 
d="M150 320v-260h90v-60h-90v-10q0 -76 -35 -113t-97 -37q-53 0 -118 25q7 15 11 26q4 10 7 18.5t4 8.5q48 -17 87 -17q36 0 58.5 19.5t22.5 69.5v330h60zM39 430h15v106h28v-75l17 16q9 8 21 8h39q8 0 14 -6.5t6 -15.5v-63h-140v30zM84 430h65v25h-35z" />
    <glyph glyph-name="uni06A9.fina" unicode="&#x6a9;" horiz-adv-x="710" arabic-form="final" 
d="M150 0q-34 0 -57 23t-23 57v210h60v-210q0 -8 6 -14t14 -6h430v80q0 38 -18 61t-46 35t-62 16t-65 4l-13 54l224 216l42 -42l-177 -173q33 -4 64.5 -14t56 -29.5t39.5 -50.5t15 -77v-80h70v-60h-560z" />
    <glyph glyph-name="uni06A9.init" unicode="&#x6a9;" horiz-adv-x="410" arabic-form="initial" 
d="M76 310l224 216l43 -43l-183 -176q37 -4 69.5 -13.5t57 -28t39 -49t14.5 -76.5v-140h-340q-13 0 -21.5 8.5t-8.5 21.5t8.5 21.5t21.5 8.5h280v80q0 39 -18.5 62t-46.5 35t-62 15.5t-64 3.5z" />
    <glyph glyph-name="uni06A9.medi" unicode="&#x6a9;" horiz-adv-x="390" arabic-form="medial" 
d="M56 310l224 216l43 -43l-183 -176q37 -4 69.5 -13.5t57 -28t39 -49t14.5 -76.5v-80h70v-60h-390q-13 0 -21.5 8.5t-8.5 21.5t8.5 21.5t21.5 8.5h260v80q0 39 -18.5 62t-46.5 35t-62 15.5t-64 3.5z" />
    <glyph glyph-name="uni06AF.fina" unicode="&#x6af;" horiz-adv-x="710" arabic-form="final" 
d="M150 0q-34 0 -57 23t-23 57v210h60v-210q0 -8 6 -14t14 -6h430v80q0 38 -18 61t-46 35t-62 16t-65 4l-13 54l224 216l42 -42l-177 -173q33 -4 64.5 -14t56 -29.5t39.5 -50.5t15 -77v-80h70v-60h-560zM307 431l198 191l42 -43l-209 -201z" />
    <glyph glyph-name="uni06AF.init" unicode="&#x6af;" horiz-adv-x="410" arabic-form="initial" 
d="M76 310l224 216l43 -43l-183 -176q37 -4 69.5 -13.5t57 -28t39 -49t14.5 -76.5v-140h-340q-13 0 -21.5 8.5t-8.5 21.5t8.5 21.5t21.5 8.5h280v80q0 39 -18.5 62t-46.5 35t-62 15.5t-64 3.5zM7 431l198 191l42 -43l-209 -201z" />
    <glyph glyph-name="uni06AF.medi" unicode="&#x6af;" horiz-adv-x="390" arabic-form="medial" 
d="M56 310l224 216l43 -43l-183 -176q37 -4 69.5 -13.5t57 -28t39 -49t14.5 -76.5v-80h70v-60h-390q-13 0 -21.5 8.5t-8.5 21.5t8.5 21.5t21.5 8.5h260v80q0 39 -18.5 62t-46.5 35t-62 15.5t-64 3.5zM-13 431l198 191l42 -43l-209 -201z" />
    <glyph glyph-name="noonfc" unicode="&#x6ba;" horiz-adv-x="520" arabic-form="final" 
d="M450 60h70v-60h-70v-70q0 -33 -23.5 -56.5t-56.5 -23.5h-120q-37 0 -70 14t-57.5 38.5t-38.5 57.5t-14 70v190h60v-190q0 -25 9.5 -46.5t26 -38t38 -26t46.5 -9.5h120q8 0 14 6t6 14v390h60v-260z" />
    <glyph glyph-name="uni06C0.fina" unicode="&#x6c0;" horiz-adv-x="460" arabic-form="final" 
d="M70 122q0 31 16.5 65.5t47 64t75 49t101.5 19.5h70v-260h80v-60h-260q-35 0 -59.5 9.5t-40.5 26t-23 39t-7 47.5zM130 122q0 -24 16 -43t54 -19h120v200h-10q-43 0 -76.5 -13.5t-56.5 -33.5t-35 -44.5t-12 -46.5zM298 485q-7 5 -18 9t-21 4q-22 0 -22 -16q0 -11 13 -25
t35 -21h35v-36h-120v36h29q-26 24 -26 52q0 17 13 29.5t36 12.5q14 0 31 -5.5t31 -13.5z" />
    <glyph glyph-name="uni06C1.fina" unicode="&#x6c1;" horiz-adv-x="500" arabic-form="final" 
d="M135 0h-64l101 256q11 28 36 46t57 18h155v-240q0 -8 6 -14t14 -6h60v-60h-60q-33 0 -56.5 23.5t-23.5 56.5v180h-95q-12 0 -22 -7.5t-15 -18.5z" />
    <glyph glyph-name="uni06C1.init" unicode="&#x6c1;" horiz-adv-x="450" arabic-form="initial" 
d="M110 60v210h60v-210h130q8 0 14 6t6 14v240h60v-240q0 -17 -6.5 -31.5t-17.5 -25.5t-25.5 -17t-30.5 -6h-63q-11 -15 -21 -37t-10 -43q0 -19 13 -36t48 -28l-11 -59q-58 15 -82 45.5t-24 66.5q0 23 7.5 46t21.5 45h-179q-13 0 -21.5 8.5t-8.5 21.5q0 12 8.5 21t21.5 9
h110z" />
    <glyph glyph-name="uni06C1.medi" unicode="&#x6c1;" horiz-adv-x="340" arabic-form="medial" 
d="M166 280q-17 -54 -25 -103.5t-8 -96.5q0 -58 10.5 -109t29.5 -93q-6 31 -6 56q0 38 11.5 62.5t29 38.5t39.5 19.5t43 5.5h50v-60h-49q-38 0 -54.5 -23.5t-16.5 -58.5q0 -36 15 -72l-81 -56q-30 52 -48.5 104t-26.5 106h-79q-13 0 -21.5 8.5t-8.5 21.5t8.5 21.5t21.5 8.5
h74q0 6 -0.5 12.5t-0.5 12.5q0 48 8 96.5t23 98.5h62z" />
    <glyph glyph-name="hehf2" unicode="&#x6be;" horiz-adv-x="680" arabic-form="final" 
d="M330 300q33 0 56.5 -23.5t23.5 -56.5v-160h120v160q0 66 -30.5 93t-77.5 27q-18 0 -41 -2.5t-43 -8.5l-12 51q62 20 110 20q69 0 111.5 -43t42.5 -137v-160h90v-60h-610q-13 0 -21.5 8.5t-8.5 21.5t8.5 21.5t21.5 8.5h93q-12 18 -17.5 38.5t-5.5 43.5q0 28 10.5 56.5
t30 51t47 36.5t62.5 14h40zM290 240q-21 0 -37.5 -8.5t-28.5 -22.5t-18 -31.5t-6 -35.5q0 -32 21.5 -57t68.5 -25h60v160q0 8 -6 14t-14 6h-40z" />
    <glyph glyph-name="uni06BE.init" unicode="&#x6be;" horiz-adv-x="600" arabic-form="initial" 
d="M220 240q-21 0 -37.5 -8.5t-28.5 -22.5t-18 -31.5t-6 -35.5q0 -32 21.5 -57t68.5 -25h60v160q0 8 -6 14t-14 6h-40zM260 300q33 0 56.5 -23.5t23.5 -56.5v-160h120v160q0 66 -30.5 93t-77.5 27q-18 0 -41 -2.5t-43 -8.5l-12 51q62 20 110 20q69 0 111.5 -43t42.5 -137
v-220h-520q-13 0 -21.5 8.5t-8.5 21.5t8.5 21.5t21.5 8.5h93q-12 18 -17.5 38.5t-5.5 43.5q0 28 10.5 56.5t30 51t47 36.5t62.5 14h40z" />
    <glyph glyph-name="uni06BE.medi" unicode="&#x6be;" horiz-adv-x="440" arabic-form="medial" 
d="M234 230q-20 0 -38.5 -14t-33 -37t-24 -54t-12.5 -65h124q11 12 20 42.5t9 61.5q0 26 -9.5 46t-35.5 20zM124 0q2 -29 9 -54t19 -44.5t30 -30.5t42 -11q27 0 41.5 21t14.5 47q0 27 -17 49.5t-55 22.5h-84zM220 -200q-36 0 -63.5 16.5t-46.5 44t-30 63.5t-13 76h-67
q-13 0 -21.5 8.5t-8.5 21.5q0 12 8.5 21t21.5 9h66q9 89 47 150q23 38 55 58.5t67 20.5q58 0 86 -49q18 -32 18 -76q0 -39 -11 -78q-2 -6 -4 -12.5t-5 -13.5h121v-60h-123q20 -29 20 -70q0 -24 -7 -47t-21.5 -41.5t-36.5 -30t-52 -11.5z" />
    <glyph glyph-name="uni06D2.fina" unicode="&#x6d2;" horiz-adv-x="560" arabic-form="final" 
d="M70 -80q0 29 11 54.5t30 44.5t44.5 30t54.5 11h350v-60h-352q-32 0 -55 -23.5t-23 -56.5v-40h310q25 0 42.5 -17.5t17.5 -42.5h-370q-25 0 -42.5 17.5t-17.5 42.5v40z" />
    <glyph glyph-name="uni06D3.fina" unicode="&#x6d3;" horiz-adv-x="560" arabic-form="final" 
d="M70 -80q0 29 11 54.5t30 44.5t44.5 30t54.5 11h350v-60h-352q-32 0 -55 -23.5t-23 -56.5v-40h310q25 0 42.5 -17.5t17.5 -42.5h-370q-25 0 -42.5 17.5t-17.5 42.5v40zM298 275q-7 5 -18 9t-21 4q-22 0 -22 -16q0 -11 13 -25t35 -21h35v-36h-120v36h29q-26 24 -26 52
q0 17 13 29.5t36 12.5q14 0 31 -5.5t31 -13.5z" />
    <glyph glyph-name="maksuran" unicode="&#x649;" horiz-adv-x="260" arabic-form="initial" 
d="M130 320h60v-320h-190q-13 0 -21.5 8.5t-8.5 21.5t8.5 21.5t21.5 8.5h130v260z" />
    <glyph glyph-name="maksuram" unicode="&#x649;" horiz-adv-x="300" arabic-form="medial" 
d="M-30 30q0 13 8.5 21.5t21.5 8.5h120v260h60v-260h120v-60h-300q-13 0 -21.5 8.5t-8.5 21.5z" />
    <glyph glyph-name="uni06CC.fina" unicode="&#x6cc;" horiz-adv-x="580" arabic-form="final" 
d="M480 -120q13 0 21.5 9t8.5 20q0 13 -13 26l-162 164l42 42l80 -81h123v-60h-63l23 -23q15 -15 23 -34.5t8 -39.5q0 -32 -22 -57.5t-69 -25.5h-230q-37 0 -70 14t-57.5 38.5t-38.5 57.5t-14 70v130h60v-130q0 -25 9.5 -46.5t26 -38t38 -26t46.5 -9.5h230z" />
    <glyph glyph-name="uni06CC.init" unicode="&#x6cc;" horiz-adv-x="260" arabic-form="initial" 
d="M130 320h60v-320h-190q-13 0 -21.5 8.5t-8.5 21.5t8.5 21.5t21.5 8.5h130v260zM36 -58l49 -50l-42 -42l-50 49zM156 -58l49 -50l-42 -42l-50 49z" />
    <glyph glyph-name="uni0651064C" unicode="&#xfc5e;" arabic-form="isolated" 
d="M-10 162q33 18 49 42q-2 0 -4.5 -0.5t-3.5 -0.5q-21 0 -37 12.5t-16 37.5t17 37t33 12q22 0 36 -15.5t14 -35.5q0 -10 -4 -23.5t-13 -29t-23.5 -31t-36.5 -26.5zM-40 171q-19 18 -27.5 38.5t-8.5 41.5q0 36 20 65l22 -14q-16 -24 -16 -49q0 -18 8 -35t26 -30zM54 233
q3 9 3 17q0 11 -8 19.5t-20 8.5q-7 0 -16 -6t-9 -19t9.5 -18.5t21 -5.5t19.5 4zM15 104q-1 -5 -1 -8v-8q0 -21 7.5 -31.5t13.5 -10.5t10.5 8t4.5 29q0 5 -0.5 11.5t-1.5 13.5l29 5q1 -5 1.5 -11.5t0.5 -14.5q0 -12 -2 -25t-7 -23.5t-13.5 -17t-21.5 -6.5q-8 0 -17 5t-14 13
q-6 -13 -16 -20t-20 -7q-17 0 -31.5 13.5t-14.5 43.5q0 11 3 25l30 5q-3 -15 -3 -26q0 -32 16 -32q7 0 14 10.5t7 30.5v11q0 5 -2 12z" />
    <glyph glyph-name="uni0651064D" unicode="&#xfc5f;" arabic-form="isolated" 
d="M-88 46l177 28v-28l-177 -29v29zM-88 103l177 29v-29l-177 -28v28zM15 259q-1 -5 -1 -8v-8q0 -21 7.5 -31.5t13.5 -10.5t10.5 8t4.5 29q0 5 -0.5 11.5t-1.5 13.5l29 5q1 -5 1.5 -11.5t0.5 -14.5q0 -12 -2 -25t-7 -23.5t-13.5 -17t-21.5 -6.5q-8 0 -17 5t-14 13
q-6 -13 -16 -20t-20 -7q-17 0 -31.5 13.5t-14.5 43.5q0 11 3 25l30 5q-3 -15 -3 -26q0 -32 16 -32q7 0 14 10.5t7 30.5v11q0 5 -2 12z" />
    <glyph glyph-name="uni0651064E" unicode="&#xfc60;" arabic-form="isolated" 
d="M-89 171l177 28v-28l-177 -28v28zM15 104q-1 -5 -1 -8v-8q0 -21 7.5 -31.5t13.5 -10.5t10.5 8t4.5 29q0 5 -0.5 11.5t-1.5 13.5l29 5q1 -5 1.5 -11.5t0.5 -14.5q0 -12 -2 -25t-7 -23.5t-13.5 -17t-21.5 -6.5q-8 0 -17 5t-14 13q-6 -13 -16 -20t-20 -7q-17 0 -31.5 13.5
t-14.5 43.5q0 11 3 25l30 5q-3 -15 -3 -26q0 -32 16 -32q7 0 14 10.5t7 30.5v11q0 5 -2 12z" />
    <glyph glyph-name="uni0651064F" unicode="&#xfc61;" arabic-form="isolated" 
d="M-42 155q19 11 31.5 22t20.5 22q-2 0 -4 -0.5t-4 -0.5q-22 0 -38.5 13t-16.5 38q0 26 17 39t35 13q24 0 38.5 -16t14.5 -38q0 -10 -4 -24t-14 -30.5t-25.5 -32t-38.5 -28.5zM27 249.5q0 11.5 -7.5 19t-19.5 7.5t-19.5 -7.5t-7.5 -19t7.5 -19.5t19.5 -8t19.5 8t7.5 19.5z
M15 104q-1 -5 -1 -8v-8q0 -21 7.5 -31.5t13.5 -10.5t10.5 8t4.5 29q0 5 -0.5 11.5t-1.5 13.5l29 5q1 -5 1.5 -11.5t0.5 -14.5q0 -12 -2 -25t-7 -23.5t-13.5 -17t-21.5 -6.5q-8 0 -17 5t-14 13q-6 -13 -16 -20t-20 -7q-17 0 -31.5 13.5t-14.5 43.5q0 11 3 25l30 5
q-3 -15 -3 -26q0 -32 16 -32q7 0 14 10.5t7 30.5v11q0 5 -2 12z" />
    <glyph glyph-name="uni06510650" unicode="&#xfc62;" arabic-form="isolated" 
d="M-64 43l147 24v-28l-147 -24v28zM15 195q-1 -5 -1 -8v-8q0 -21 7.5 -31.5t13.5 -10.5t10.5 8t4.5 29q0 5 -0.5 11.5t-1.5 13.5l29 5q1 -5 1.5 -11.5t0.5 -14.5q0 -12 -2 -25t-7 -23.5t-13.5 -17t-21.5 -6.5q-8 0 -17 5t-14 13q-6 -13 -16 -20t-20 -7q-17 0 -31.5 13.5
t-14.5 43.5q0 11 3 25l30 5q-3 -15 -3 -26q0 -32 16 -32q7 0 14 10.5t7 30.5v11q0 5 -2 12z" />
    <glyph glyph-name="uni06510670" unicode="&#xfc63;" arabic-form="isolated" 
d="M15 104q-1 -5 -1 -8v-8q0 -21 7.5 -31.5t13.5 -10.5t10.5 8t4.5 29q0 5 -0.5 11.5t-1.5 13.5l29 5q1 -5 1.5 -11.5t0.5 -14.5q0 -12 -2 -25t-7 -23.5t-13.5 -17t-21.5 -6.5q-8 0 -17 5t-14 13q-6 -13 -16 -20t-20 -7q-17 0 -31.5 13.5t-14.5 43.5q0 11 3 25l30 5
q-3 -15 -3 -26q0 -32 16 -32q7 0 14 10.5t7 30.5v11q0 5 -2 12zM-11 323q11 -29 16.5 -67t5.5 -72v-15q0 -8 -1 -15l-23 -9q0 36 -7.5 71t-21.5 65z" />
    <glyph glyph-name="behmaksuraf" unicode="&#xfc6e;" horiz-adv-x="840" arabic-form="final" 
d="M330 100q0 39 15 74t40.5 60.5t60.5 40.5t74 15h168l53 -230h99v-60h-149l-51 230h-120q-27 0 -50.5 -10t-41.5 -28t-28 -41.5t-10 -50.5v-10h120q21 0 35.5 -14.5t14.5 -35.5v-20q0 -38 -14 -70.5t-38.5 -57t-57.5 -38.5t-70 -14h-130q-38 0 -70.5 14t-57 38.5t-38.5 57
t-14 70.5v120h60v-120q0 -25 9.5 -46.5t26 -38t38 -26t46.5 -9.5h130q25 0 46.5 9.5t38 26t26 38t9.5 46.5v10h-120q-21 0 -35.5 14.5t-14.5 35.5v20zM667 -108l49 -50l-42 -42l-50 49z" />
    <glyph glyph-name="behyehf" unicode="&#xfc6f;" horiz-adv-x="840" arabic-form="final" 
d="M330 100q0 39 15 74t40.5 60.5t60.5 40.5t74 15h168l53 -230h99v-60h-149l-51 230h-120q-27 0 -50.5 -10t-41.5 -28t-28 -41.5t-10 -50.5v-10h120q21 0 35.5 -14.5t14.5 -35.5v-20q0 -38 -14 -70.5t-38.5 -57t-57.5 -38.5t-70 -14h-130q-38 0 -70.5 14t-57 38.5t-38.5 57
t-14 70.5v120h60v-120q0 -25 9.5 -46.5t26 -38t38 -26t46.5 -9.5h130q25 0 46.5 9.5t38 26t26 38t9.5 46.5v10h-120q-21 0 -35.5 14.5t-14.5 35.5v20zM667 -58l49 -50l-42 -42l-50 49zM248 -208l49 -45l-42 -38l-50 44zM368 -208l49 -45l-42 -38l-50 44z" />
    <glyph glyph-name="Salla" unicode="&#xfdfa;" horiz-adv-x="1540" arabic-form="isolated" 
d="M895 210q7 0 11 4.5t4 9.5q0 6 -7 13l-86 87l22 22l46 -46h115v245h30v-245h100v135h30v-81l37 30q23 19 39 29t27.5 15t20 6t16.5 1q29 0 49.5 -20.5t20.5 -49.5v-55q0 -17 -11.5 -28.5t-28.5 -11.5h-415l11 -12q8 -8 11 -18t3 -16q0 -18 -12.5 -31t-32.5 -13h-120
q-38 0 -64 26t-26 64v70h30v-70q0 -25 17.5 -42.5t42.5 -17.5h120zM70 17q0 39 23.5 56t54.5 17q18 0 37 -6t35 -15v-104h66v245h30v-245h76v135h30v-135h75v135h30v-135h65q10 0 10 10v125h30v-125q0 -17 -11.5 -28.5t-28.5 -11.5h-492v-80h-30v162zM1470 -35v-30h-555
q-23 0 -31.5 10.5t-8.5 27.5q0 9 5 22l26 73q5 14 17.5 23t29.5 9h77v-135h76v135h30v-135h91v245h30v-245h106q-17 17 -27.5 39t-10.5 42q0 27 17 45.5t55 18.5q17 0 34 -6t33 -16l-9 -29q-14 10 -29 15.5t-29 5.5q-22 0 -32 -10t-10 -24q0 -11 5.5 -24t14.5 -24.5
t20.5 -20.5t24.5 -12h50zM195 270q-23 0 -31.5 10.5t-8.5 27.5q0 9 5 22l26 73q5 14 17.5 23t29.5 9h77v-135h80v200h30v-200h85v235h30v-265h-340zM729 -65q-21 0 -35.5 14.5t-14.5 35.5v30q0 44 22.5 64.5t54.5 20.5q13 0 31.5 -6t41.5 -19v-140q0 -46 -22.5 -63
t-54.5 -17q-16 0 -35 4t-38 10l12 29q18 -6 34 -9.5t27 -3.5q20 0 33.5 10.5t13.5 39.5h-70zM1160 317v-17h170q10 0 10 10v55q0 16 -11.5 28t-28.5 12q-8 0 -14 -1t-15 -5.5t-21.5 -13.5t-33.5 -25zM799 -35v93q-11 5 -23 8.5t-20 3.5q-19 0 -33 -13t-14 -42v-30
q0 -8 6 -14t14 -6h70zM1000 -35v105h-47q-6 0 -11 -4t-7 -9l-27 -73q0 -3 -1.5 -6t-1.5 -5q0 -8 10 -8h85zM280 300v105h-47q-6 0 -11 -4t-7 -9l-27 -73q0 -3 -1.5 -6t-1.5 -5q0 -8 10 -8h85zM190 -35v85q-11 4 -22 7t-20 3q-18 0 -33 -10t-15 -33v-52h90zM630 540v-275h-30
v275h30zM1082 -95l33 -33l-22 -22l-33 33zM1142 -95l33 -33l-22 -22l-33 33z" />
    <glyph glyph-name="alefmdf" unicode="&#x622;" horiz-adv-x="220" arabic-form="final" 
d="M130 540v-480h90v-60h-150v540h60zM185 604q-12 -9 -22.5 -12.5t-19.5 -3.5q-17 0 -31 6.5t-31 6.5q-10 0 -21 -4.5t-25 -16.5v36q14 12 25 16.5t21 4.5q17 0 31 -6.5t31 -6.5q9 0 19.5 3.5t22.5 12.5v-36z" />
    <glyph glyph-name="alefhmzf" unicode="&#x623;" horiz-adv-x="220" arabic-form="final" 
d="M130 540v-480h90v-60h-150v540h60zM148 665q-7 5 -18 9t-21 4q-22 0 -22 -16q0 -11 13 -25t35 -21h35v-36h-120v36h29q-26 24 -26 52q0 17 13 29.5t36 12.5q14 0 31 -5.5t31 -13.5z" />
    <glyph glyph-name="wawhmzf" unicode="&#x624;" horiz-adv-x="440" arabic-form="final" 
d="M310 0h-140q-42 0 -71 29t-29 71v50q0 44 12 76t33 53t49 31t60 10q36 0 73.5 -12.5t72.5 -37.5v-210h70v-60h-70v-10q0 -42 -11 -71t-30.5 -46.5t-45.5 -25t-56 -7.5q-35 0 -72.5 8.5t-74.5 21.5q5 14 9 25q4 10 6.5 18t3.5 8q24 -8 55.5 -16t61.5 -8q19 0 36 4.5t30 15
t20.5 28.5t7.5 45v10zM310 60v177q-43 23 -86 23q-38 0 -66 -26.5t-28 -83.5v-50q0 -17 11.5 -28.5t28.5 -11.5h140zM258 485q-7 5 -18 9t-21 4q-22 0 -22 -16q0 -11 13 -25t35 -21h35v-36h-120v36h29q-26 24 -26 52q0 17 13 29.5t36 12.5q14 0 31 -5.5t31 -13.5z" />
    <glyph glyph-name="alefhmz2f" unicode="&#x625;" horiz-adv-x="220" arabic-form="final" 
d="M130 540v-480h90v-60h-150v540h60zM148 -75q-7 5 -18 9t-21 4q-22 0 -22 -16q0 -11 13 -25t35 -21h35v-36h-120v36h29q-26 24 -26 52q0 17 13 29.5t36 12.5q14 0 31 -5.5t31 -13.5z" />
    <glyph glyph-name="yehhmzf" unicode="&#x626;" horiz-adv-x="580" arabic-form="final" 
d="M480 -120q13 0 21.5 9t8.5 20q0 13 -13 26l-162 164l42 42l80 -81h123v-60h-63l23 -23q15 -15 23 -34.5t8 -39.5q0 -32 -22 -57.5t-69 -25.5h-230q-37 0 -70 14t-57.5 38.5t-38.5 57.5t-14 70v130h60v-130q0 -25 9.5 -46.5t26 -38t38 -26t46.5 -9.5h230zM148 325
q-7 5 -18 9t-21 4q-22 0 -22 -16q0 -11 13 -25t35 -21h35v-36h-120v36h29q-26 24 -26 52q0 17 13 29.5t36 12.5q14 0 31 -5.5t31 -13.5z" />
    <glyph glyph-name="hmzn" unicode="&#x626;" horiz-adv-x="260" arabic-form="initial" 
d="M130 320h60v-320h-190q-13 0 -21.5 8.5t-8.5 21.5t8.5 21.5t21.5 8.5h130v260zM188 485q-7 5 -18 9t-21 4q-22 0 -22 -16q0 -11 13 -25t35 -21h35v-36h-120v36h29q-26 24 -26 52q0 17 13 29.5t36 12.5q14 0 31 -5.5t31 -13.5z" />
    <glyph glyph-name="hmzm" unicode="&#x626;" horiz-adv-x="300" arabic-form="medial" 
d="M-30 30q0 13 8.5 21.5t21.5 8.5h120v260h60v-260h120v-60h-300q-13 0 -21.5 8.5t-8.5 21.5zM188 485q-7 5 -18 9t-21 4q-22 0 -22 -16q0 -11 13 -25t35 -21h35v-36h-120v36h29q-26 24 -26 52q0 17 13 29.5t36 12.5q14 0 31 -5.5t31 -13.5z" />
    <glyph glyph-name="aleff" unicode="&#x627;" horiz-adv-x="220" arabic-form="final" 
d="M130 540v-480h90v-60h-150v540h60z" />
    <glyph glyph-name="behf" unicode="&#x628;" horiz-adv-x="770" arabic-form="final" 
d="M130 80q0 -8 6 -14t14 -6h480v260h60v-260h80v-60h-620q-33 0 -56.5 23.5t-23.5 56.5v240h60v-240zM378 -88l49 -50l-42 -42l-50 49z" />
    <glyph glyph-name="behn" unicode="&#x628;" horiz-adv-x="260" arabic-form="initial" 
d="M130 320h60v-320h-190q-13 0 -21.5 8.5t-8.5 21.5t8.5 21.5t21.5 8.5h130v260zM94 -58l49 -50l-42 -42l-50 49z" />
    <glyph glyph-name="behm" unicode="&#x628;" horiz-adv-x="300" arabic-form="medial" 
d="M-30 30q0 13 8.5 21.5t21.5 8.5h120v260h60v-260h120v-60h-300q-13 0 -21.5 8.5t-8.5 21.5zM143 -58l49 -50l-42 -42l-50 49z" />
    <glyph glyph-name="marbutaf" unicode="&#x629;" horiz-adv-x="460" arabic-form="final" 
d="M70 122q0 31 16.5 65.5t47 64t75 49t101.5 19.5h70v-260h80v-60h-260q-35 0 -59.5 9.5t-40.5 26t-23 39t-7 47.5zM130 122q0 -24 16 -43t54 -19h120v200h-10q-43 0 -76.5 -13.5t-56.5 -33.5t-35 -44.5t-12 -46.5zM-16 0v0v0v0zM-16 0v0v0v0v0v0zM-16 0v0v0zM-16 0v0v0z
M-16 0zM-16 0zM-16 0zM-16 0v0v0v0zM-16 0v0v0v0v0v0zM-16 0v0v0v0v0v0zM-16 0v0v0v0v0zM-16 0v0v0v0zM-16 0zM-16 0zM-16 0zM-16 0zM-16 0zM-16 0zM-16 0zM218 492l49 -50l-42 -42l-50 49zM338 492l49 -50l-42 -42l-50 49z" />
    <glyph glyph-name="tehf" unicode="&#x62a;" horiz-adv-x="770" arabic-form="final" 
d="M130 80q0 -8 6 -14t14 -6h480v260h60v-260h80v-60h-620q-33 0 -56.5 23.5t-23.5 56.5v240h60v-240zM323 492l49 -50l-42 -42l-50 49zM443 492l49 -50l-42 -42l-50 49z" />
    <glyph glyph-name="tehn" unicode="&#x62a;" horiz-adv-x="260" arabic-form="initial" 
d="M130 320h60v-320h-190q-13 0 -21.5 8.5t-8.5 21.5t8.5 21.5t21.5 8.5h130v260zM63 492l49 -50l-42 -42l-50 49zM183 492l49 -50l-42 -42l-50 49z" />
    <glyph glyph-name="tehm" unicode="&#x62a;" horiz-adv-x="300" arabic-form="medial" 
d="M-30 30q0 13 8.5 21.5t21.5 8.5h120v260h60v-260h120v-60h-300q-13 0 -21.5 8.5t-8.5 21.5zM63 492l49 -50l-42 -42l-50 49zM183 492l49 -50l-42 -42l-50 49z" />
    <glyph glyph-name="thehf" unicode="&#x62b;" horiz-adv-x="770" arabic-form="final" 
d="M130 80q0 -8 6 -14t14 -6h480v260h60v-260h80v-60h-620q-33 0 -56.5 23.5t-23.5 56.5v240h60v-240zM378 572l49 -50l-42 -42l-50 49zM323 472l49 -50l-42 -42l-50 49zM443 472l49 -50l-42 -42l-50 49z" />
    <glyph glyph-name="thehn" unicode="&#x62b;" horiz-adv-x="260" arabic-form="initial" 
d="M130 320h60v-320h-190q-13 0 -21.5 8.5t-8.5 21.5t8.5 21.5t21.5 8.5h130v260zM118 572l49 -50l-42 -42l-50 49zM63 472l49 -50l-42 -42l-50 49zM183 472l49 -50l-42 -42l-50 49z" />
    <glyph glyph-name="thehm" unicode="&#x62b;" horiz-adv-x="300" arabic-form="medial" 
d="M-30 30q0 13 8.5 21.5t21.5 8.5h120v260h60v-260h120v-60h-300q-13 0 -21.5 8.5t-8.5 21.5zM118 572l49 -50l-42 -42l-50 49zM63 472l49 -50l-42 -42l-50 49zM183 472l49 -50l-42 -42l-50 49z" />
    <glyph glyph-name="jeemf" unicode="&#x62c;" horiz-adv-x="440" arabic-form="final" 
d="M253 -270q-47 0 -82 14t-58 37t-34 52.5t-11 59.5q0 31 12 61t35 53.5t57 38t78 14.5h76q-30 22 -48 60q-12 25 -23 49.5t-23 44.5t-27.5 32.5t-36.5 12.5q-14 0 -31 -6.5t-39 -23.5l-28 48q26 19 49.5 31t52.5 12q37 0 61.5 -19.5t42.5 -48t32 -62.5t30.5 -62.5
t37.5 -48t54 -19.5h10v-60h-190q-30 0 -52.5 -9.5t-38 -24.5t-23.5 -34t-8 -39t8 -39t24.5 -34t41.5 -24t59 -9q37 0 69 9v-57q-42 -9 -77 -9zM-17 0v0v0v0zM-17 0v0v0v0v0v0zM-17 0v0v0zM-17 0v0v0zM-17 0zM-17 0zM-17 0zM-17 0v0v0v0zM-17 0v0v0v0v0v0zM-17 0v0v0v0v0v0z
M-17 0v0v0v0v0zM-17 0v0v0v0zM-17 0zM-17 0zM-17 0zM-17 0zM-17 0zM-17 0zM-17 0zM-17 0v0v0v0zM-17 0v0v0v0v0v0zM-17 0v0v0zM-17 0v0v0zM-17 0zM-17 0zM-17 0zM-17 0v0v0v0zM-17 0v0v0v0v0v0zM-17 0v0v0v0v0v0zM-17 0v0v0v0v0zM-17 0v0v0v0zM-17 0zM-17 0zM-17 0zM-17 0z
M-17 0zM-17 0zM-17 0zM271 -63l49 -50l-42 -42l-50 49z" />
    <glyph glyph-name="jeemn" unicode="&#x62c;" horiz-adv-x="490" arabic-form="initial" 
d="M-30 30q0 13 8.5 21.5t21.5 8.5h331q-17 11 -30 26t-26 35q-17 25 -32.5 49.5t-32 44t-34 32t-38.5 12.5q-14 0 -31 -6.5t-39 -23.5l-28 48q26 19 49.5 31t52.5 12q37 0 64.5 -19.5t50 -48t41.5 -62.5t40 -62.5t45 -48t57 -19.5h20v-60h-460q-13 0 -21.5 8.5t-8.5 21.5z
M218 -58l49 -50l-42 -42l-50 49z" />
    <glyph glyph-name="jeemm" unicode="&#x62c;" horiz-adv-x="480" arabic-form="medial" 
d="M480 60v-60h-480q-13 0 -21.5 8.5t-8.5 21.5t8.5 21.5t21.5 8.5h331q-17 11 -30 26t-26 35q-17 25 -32.5 49.5t-32 44t-34 32t-38.5 12.5q-14 0 -31 -6.5t-39 -23.5l-28 48q26 19 49.5 31t52.5 12q37 0 64.5 -19.5t50 -48t41.5 -62.5t40 -62.5t45 -48t57 -19.5h40z
M258 -58l49 -50l-42 -42l-50 49z" />
    <glyph glyph-name="hahf" unicode="&#x62d;" horiz-adv-x="440" arabic-form="final" 
d="M253 -270q-47 0 -82 14t-58 37t-34 52.5t-11 59.5q0 31 12 61t35 53.5t57 38t78 14.5h76q-30 22 -48 60q-12 25 -23 49.5t-23 44.5t-27.5 32.5t-36.5 12.5q-14 0 -31 -6.5t-39 -23.5l-28 48q26 19 49.5 31t52.5 12q37 0 61.5 -19.5t42.5 -48t32 -62.5t30.5 -62.5
t37.5 -48t54 -19.5h10v-60h-190q-30 0 -52.5 -9.5t-38 -24.5t-23.5 -34t-8 -39t8 -39t24.5 -34t41.5 -24t59 -9q37 0 69 9v-57q-42 -9 -77 -9z" />
    <glyph glyph-name="hahn" unicode="&#x62d;" horiz-adv-x="490" arabic-form="initial" 
d="M-30 30q0 13 8.5 21.5t21.5 8.5h331q-17 11 -30 26t-26 35q-17 25 -32.5 49.5t-32 44t-34 32t-38.5 12.5q-14 0 -31 -6.5t-39 -23.5l-28 48q26 19 49.5 31t52.5 12q37 0 64.5 -19.5t50 -48t41.5 -62.5t40 -62.5t45 -48t57 -19.5h20v-60h-460q-13 0 -21.5 8.5t-8.5 21.5z
" />
    <glyph glyph-name="hahm" unicode="&#x62d;" horiz-adv-x="480" arabic-form="medial" 
d="M480 60v-60h-480q-13 0 -21.5 8.5t-8.5 21.5t8.5 21.5t21.5 8.5h331q-17 11 -30 26t-26 35q-17 25 -32.5 49.5t-32 44t-34 32t-38.5 12.5q-14 0 -31 -6.5t-39 -23.5l-28 48q26 19 49.5 31t52.5 12q37 0 64.5 -19.5t50 -48t41.5 -62.5t40 -62.5t45 -48t57 -19.5h40z" />
    <glyph glyph-name="khahf" unicode="&#x62e;" horiz-adv-x="440" arabic-form="final" 
d="M253 -270q-47 0 -82 14t-58 37t-34 52.5t-11 59.5q0 31 12 61t35 53.5t57 38t78 14.5h76q-30 22 -48 60q-12 25 -23 49.5t-23 44.5t-27.5 32.5t-36.5 12.5q-14 0 -31 -6.5t-39 -23.5l-28 48q26 19 49.5 31t52.5 12q37 0 61.5 -19.5t42.5 -48t32 -62.5t30.5 -62.5
t37.5 -48t54 -19.5h10v-60h-190q-30 0 -52.5 -9.5t-38 -24.5t-23.5 -34t-8 -39t8 -39t24.5 -34t41.5 -24t59 -9q37 0 69 9v-57q-42 -9 -77 -9zM-17 0v0v0v0zM-17 0v0v0v0v0v0zM-17 0v0v0zM-17 0v0v0zM-17 0zM-17 0zM-17 0zM-17 0v0v0v0zM-17 0v0v0v0v0v0zM-17 0v0v0v0v0v0z
M-17 0v0v0v0v0zM-17 0v0v0v0zM-17 0zM-17 0zM-17 0zM-17 0zM-17 0zM-17 0zM-17 0zM-17 0v0v0v0zM-17 0v0v0v0v0v0zM-17 0v0v0zM-17 0v0v0zM-17 0zM-17 0zM-17 0zM-17 0v0v0v0zM-17 0v0v0v0v0v0zM-17 0v0v0v0v0v0zM-17 0v0v0v0v0zM-17 0v0v0v0zM-17 0zM-17 0zM-17 0zM-17 0z
M-17 0zM-17 0zM-17 0zM183 502l49 -50l-42 -42l-50 49z" />
    <glyph glyph-name="khahn" unicode="&#x62e;" horiz-adv-x="490" arabic-form="initial" 
d="M-30 30q0 13 8.5 21.5t21.5 8.5h331q-17 11 -30 26t-26 35q-17 25 -32.5 49.5t-32 44t-34 32t-38.5 12.5q-14 0 -31 -6.5t-39 -23.5l-28 48q26 19 49.5 31t52.5 12q37 0 64.5 -19.5t50 -48t41.5 -62.5t40 -62.5t45 -48t57 -19.5h20v-60h-460q-13 0 -21.5 8.5t-8.5 21.5z
M-4 0v0v0v0zM-4 0v0v0v0v0v0zM-4 0v0v0zM-4 0v0v0zM-4 0zM-4 0zM-4 0zM-4 0v0v0v0zM-4 0v0v0v0v0v0zM-4 0v0v0v0v0v0zM-4 0v0v0v0v0zM-4 0v0v0v0zM-4 0zM-4 0zM-4 0zM-4 0zM-4 0zM-4 0zM-4 0zM-4 0v0v0v0zM-4 0v0v0v0v0v0zM-4 0v0v0zM-4 0v0v0zM-4 0zM-4 0zM-4 0zM-4 0v0v0
v0zM-4 0v0v0v0v0v0zM-4 0v0v0v0v0v0zM-4 0v0v0v0v0zM-4 0v0v0v0zM-4 0zM-4 0zM-4 0zM-4 0zM-4 0zM-4 0zM-4 0zM148 502l49 -50l-42 -42l-50 49z" />
    <glyph glyph-name="khahm" unicode="&#x62e;" horiz-adv-x="480" arabic-form="medial" 
d="M480 60v-60h-480q-13 0 -21.5 8.5t-8.5 21.5t8.5 21.5t21.5 8.5h331q-17 11 -30 26t-26 35q-17 25 -32.5 49.5t-32 44t-34 32t-38.5 12.5q-14 0 -31 -6.5t-39 -23.5l-28 48q26 19 49.5 31t52.5 12q37 0 64.5 -19.5t50 -48t41.5 -62.5t40 -62.5t45 -48t57 -19.5h40zM38 0
v0v0v0zM38 0v0v0v0v0v0zM38 0v0v0zM38 0v0v0zM38 0zM38 0zM38 0zM38 0v0v0v0zM38 0v0v0v0v0v0zM38 0v0v0v0v0v0zM38 0v0v0v0v0zM38 0v0v0v0zM38 0zM38 0zM38 0zM38 0zM38 0zM38 0zM38 0zM38 0v0v0v0zM38 0v0v0v0v0v0zM38 0v0v0zM38 0v0v0zM38 0zM38 0zM38 0zM38 0v0v0v0z
M38 0v0v0v0v0v0zM38 0v0v0v0v0v0zM38 0v0v0v0v0zM38 0v0v0v0zM38 0zM38 0zM38 0zM38 0zM38 0zM38 0zM38 0zM38 0v0v0v0zM38 0v0v0v0v0v0zM38 0v0v0zM38 0v0v0zM38 0zM38 0zM38 0zM38 0v0v0v0zM38 0v0v0v0v0v0zM38 0v0v0v0v0v0zM38 0v0v0v0v0zM38 0v0v0v0zM38 0zM38 0zM38 0z
M38 0zM38 0zM38 0zM38 0zM148 502l49 -50l-42 -42l-50 49z" />
    <glyph glyph-name="dalf" unicode="&#x62f;" horiz-adv-x="410" arabic-form="final" 
d="M270 220q0 26 -24.5 38t-59.5 12q-23 0 -47.5 -5t-46.5 -15l-12 57q51 23 109 23q28 0 53.5 -6.5t45 -20t31 -34t11.5 -49.5v-160h80v-60h-360v60h220v160z" />
    <glyph glyph-name="zalf" unicode="&#x630;" horiz-adv-x="410" arabic-form="final" 
d="M270 220q0 26 -24.5 38t-59.5 12q-23 0 -47.5 -5t-46.5 -15l-12 57q51 23 109 23q28 0 53.5 -6.5t45 -20t31 -34t11.5 -49.5v-160h80v-60h-360v60h220v160zM148 532l49 -50l-42 -42l-50 49z" />
    <glyph glyph-name="rehf" unicode="&#x631;" horiz-adv-x="250" arabic-form="final" 
d="M160 320v-260h90v-60h-90v-10q0 -76 -35 -113t-97 -37q-53 0 -118 25q7 15 11 26q4 10 7 18.5t4 8.5q48 -17 87 -17q36 0 58.5 19.5t22.5 69.5v330h60z" />
    <glyph glyph-name="zainf" unicode="&#x632;" horiz-adv-x="240" arabic-form="final" 
d="M150 320v-260h90v-60h-90v-10q0 -76 -35 -113t-97 -37q-53 0 -118 25q7 15 11 26q4 10 7 18.5t4 8.5q48 -17 87 -17q36 0 58.5 19.5t22.5 69.5v330h60zM113 492l49 -50l-42 -42l-50 49z" />
    <glyph glyph-name="seenf" unicode="&#x633;" horiz-adv-x="980" arabic-form="final" 
d="M390 320h60v-260h150v260h60v-260h150v260h60v-260h110v-60h-530v-60q0 -33 -23.5 -56.5t-56.5 -23.5h-120q-37 0 -70 14t-57.5 38.5t-38.5 57.5t-14 70v130h60v-130q0 -25 9.5 -46.5t26 -38t38 -26t46.5 -9.5h120q8 0 14 6t6 14v380z" />
    <glyph glyph-name="seenn" unicode="&#x633;" horiz-adv-x="660" arabic-form="initial" 
d="M110 60v260h60v-260h150v260h60v-260h130q8 0 14 6t6 14v240h60v-240q0 -33 -23.5 -56.5t-56.5 -23.5h-510q-13 0 -21.5 8.5t-8.5 21.5t8.5 21.5t21.5 8.5h110z" />
    <glyph glyph-name="seenm" unicode="&#x633;" horiz-adv-x="700" arabic-form="medial" 
d="M110 60v260h60v-260h150v260h60v-260h150v260h60v-260h110v-60h-700q-13 0 -21.5 8.5t-8.5 21.5t8.5 21.5t21.5 8.5h110z" />
    <glyph glyph-name="sheenf" unicode="&#x634;" horiz-adv-x="980" arabic-form="final" 
d="M390 320h60v-260h150v260h60v-260h150v260h60v-260h110v-60h-530v-60q0 -33 -23.5 -56.5t-56.5 -23.5h-120q-37 0 -70 14t-57.5 38.5t-38.5 57.5t-14 70v130h60v-130q0 -25 9.5 -46.5t26 -38t38 -26t46.5 -9.5h120q8 0 14 6t6 14v380zM603 572l49 -50l-42 -42l-50 49z
M548 472l49 -50l-42 -42l-50 49zM668 472l49 -50l-42 -42l-50 49z" />
    <glyph glyph-name="sheenn" unicode="&#x634;" horiz-adv-x="660" arabic-form="initial" 
d="M110 60v260h60v-260h150v260h60v-260h130q8 0 14 6t6 14v240h60v-240q0 -33 -23.5 -56.5t-56.5 -23.5h-510q-13 0 -21.5 8.5t-8.5 21.5t8.5 21.5t21.5 8.5h110zM343 572l49 -50l-42 -42l-50 49zM288 472l49 -50l-42 -42l-50 49zM408 472l49 -50l-42 -42l-50 49z" />
    <glyph glyph-name="sheenm" unicode="&#x634;" horiz-adv-x="700" arabic-form="medial" 
d="M110 60v260h60v-260h150v260h60v-260h150v260h60v-260h110v-60h-700q-13 0 -21.5 8.5t-8.5 21.5t8.5 21.5t21.5 8.5h110zM343 572l49 -50l-42 -42l-50 49zM288 472l49 -50l-42 -42l-50 49zM408 472l49 -50l-42 -42l-50 49z" />
    <glyph glyph-name="sadf" unicode="&#x635;" horiz-adv-x="920" arabic-form="final" 
d="M710 320q29 0 54.5 -11t44.5 -30t30 -44.5t11 -54.5v-120h70v-60h-490v-60q0 -33 -23.5 -56.5t-56.5 -23.5h-100q-37 0 -70 14t-57.5 38.5t-38.5 57.5t-14 70v130h60v-130q0 -25 9.5 -46.5t26 -38t38 -26t46.5 -9.5h100q8 0 14 6t6 14v370h60v-154l76 62q40 33 70.5 53
t54 31t42.5 14.5t37 3.5zM430 82v-22h360v120q0 33 -23.5 56.5t-56.5 23.5q-13 0 -26 -2t-31.5 -10.5t-45 -26.5t-66.5 -50z" />
    <glyph glyph-name="sadn" unicode="&#x635;" horiz-adv-x="620" arabic-form="initial" 
d="M0 0q-13 0 -21.5 8.5t-8.5 21.5t8.5 21.5t21.5 8.5h70v250h60v-154l76 62q40 33 70.5 53t54 31t42.5 14.5t37 3.5q29 0 54.5 -11t44.5 -30t30 -44.5t11 -54.5v-100q0 -33 -23.5 -56.5t-56.5 -23.5h-470zM130 82v-22h340q8 0 14 6t6 14v100q0 33 -23.5 56.5t-56.5 23.5
q-13 0 -26 -2t-31.5 -10.5t-45 -26.5t-66.5 -50z" />
    <glyph glyph-name="sadm" unicode="&#x635;" horiz-adv-x="620" arabic-form="medial" 
d="M70 60v250h60v-154l76 62q40 33 70.5 53t54 31t42.5 14.5t37 3.5q29 0 54.5 -11t44.5 -30t30 -44.5t11 -54.5v-120h70v-60h-620q-13 0 -21.5 8.5t-8.5 21.5t8.5 21.5t21.5 8.5h70zM130 82v-22h360v120q0 33 -23.5 56.5t-56.5 23.5q-13 0 -26 -2t-31.5 -10.5t-45 -26.5
t-66.5 -50z" />
    <glyph glyph-name="dadf" unicode="&#x636;" horiz-adv-x="920" arabic-form="final" 
d="M710 320q29 0 54.5 -11t44.5 -30t30 -44.5t11 -54.5v-120h70v-60h-490v-60q0 -33 -23.5 -56.5t-56.5 -23.5h-100q-37 0 -70 14t-57.5 38.5t-38.5 57.5t-14 70v130h60v-130q0 -25 9.5 -46.5t26 -38t38 -26t46.5 -9.5h100q8 0 14 6t6 14v370h60v-154l76 62q40 33 70.5 53
t54 31t42.5 14.5t37 3.5zM430 82v-22h360v120q0 33 -23.5 56.5t-56.5 23.5q-13 0 -26 -2t-31.5 -10.5t-45 -26.5t-66.5 -50zM603 492l49 -50l-42 -42l-50 49z" />
    <glyph glyph-name="dadn" unicode="&#x636;" horiz-adv-x="620" arabic-form="initial" 
d="M0 0q-13 0 -21.5 8.5t-8.5 21.5t8.5 21.5t21.5 8.5h70v250h60v-154l76 62q40 33 70.5 53t54 31t42.5 14.5t37 3.5q29 0 54.5 -11t44.5 -30t30 -44.5t11 -54.5v-100q0 -33 -23.5 -56.5t-56.5 -23.5h-470zM130 82v-22h340q8 0 14 6t6 14v100q0 33 -23.5 56.5t-56.5 23.5
q-13 0 -26 -2t-31.5 -10.5t-45 -26.5t-66.5 -50zM343 492l49 -50l-42 -42l-50 49z" />
    <glyph glyph-name="dadm" unicode="&#x636;" horiz-adv-x="620" arabic-form="medial" 
d="M70 60v250h60v-154l76 62q40 33 70.5 53t54 31t42.5 14.5t37 3.5q29 0 54.5 -11t44.5 -30t30 -44.5t11 -54.5v-120h70v-60h-620q-13 0 -21.5 8.5t-8.5 21.5t8.5 21.5t21.5 8.5h70zM130 82v-22h360v120q0 33 -23.5 56.5t-56.5 23.5q-13 0 -26 -2t-31.5 -10.5t-45 -26.5
t-66.5 -50zM343 492l49 -50l-42 -42l-50 49z" />
    <glyph glyph-name="tahf" unicode="&#x637;" horiz-adv-x="700" arabic-form="final" 
d="M80 0q-13 0 -21.5 8.5t-8.5 21.5t8.5 21.5t21.5 8.5h70v480h60v-384l76 62q40 33 70.5 53t54 31t42.5 14.5t37 3.5q29 0 54.5 -11t44.5 -30t30 -44.5t11 -54.5v-120h70v-60h-620zM210 82v-22h360v120q0 33 -23.5 56.5t-56.5 23.5q-13 0 -26 -2t-31.5 -10.5t-45 -26.5
t-66.5 -50z" />
    <glyph glyph-name="tahn" unicode="&#x637;" horiz-adv-x="620" arabic-form="initial" 
d="M0 0q-13 0 -21.5 8.5t-8.5 21.5t8.5 21.5t21.5 8.5h70v480h60v-384l76 62q40 33 70.5 53t54 31t42.5 14.5t37 3.5q29 0 54.5 -11t44.5 -30t30 -44.5t11 -54.5v-100q0 -33 -23.5 -56.5t-56.5 -23.5h-470zM130 82v-22h340q8 0 14 6t6 14v100q0 33 -23.5 56.5t-56.5 23.5
q-13 0 -26 -2t-31.5 -10.5t-45 -26.5t-66.5 -50z" />
    <glyph glyph-name="tahm" unicode="&#x637;" horiz-adv-x="620" arabic-form="medial" 
d="M0 0q-13 0 -21.5 8.5t-8.5 21.5t8.5 21.5t21.5 8.5h70v480h60v-384l76 62q40 33 70.5 53t54 31t42.5 14.5t37 3.5q29 0 54.5 -11t44.5 -30t30 -44.5t11 -54.5v-120h70v-60h-620zM130 82v-22h360v120q0 33 -23.5 56.5t-56.5 23.5q-13 0 -26 -2t-31.5 -10.5t-45 -26.5
t-66.5 -50z" />
    <glyph glyph-name="zahf" unicode="&#x638;" horiz-adv-x="700" arabic-form="final" 
d="M80 0q-13 0 -21.5 8.5t-8.5 21.5t8.5 21.5t21.5 8.5h70v480h60v-384l76 62q40 33 70.5 53t54 31t42.5 14.5t37 3.5q29 0 54.5 -11t44.5 -30t30 -44.5t11 -54.5v-120h70v-60h-620zM210 82v-22h360v120q0 33 -23.5 56.5t-56.5 23.5q-13 0 -26 -2t-31.5 -10.5t-45 -26.5
t-66.5 -50zM453 492l49 -50l-42 -42l-50 49z" />
    <glyph glyph-name="zahn" unicode="&#x638;" horiz-adv-x="620" arabic-form="initial" 
d="M0 0q-13 0 -21.5 8.5t-8.5 21.5t8.5 21.5t21.5 8.5h70v480h60v-384l76 62q40 33 70.5 53t54 31t42.5 14.5t37 3.5q29 0 54.5 -11t44.5 -30t30 -44.5t11 -54.5v-100q0 -33 -23.5 -56.5t-56.5 -23.5h-470zM130 82v-22h340q8 0 14 6t6 14v100q0 33 -23.5 56.5t-56.5 23.5
q-13 0 -26 -2t-31.5 -10.5t-45 -26.5t-66.5 -50zM373 492l49 -50l-42 -42l-50 49z" />
    <glyph glyph-name="zahm" unicode="&#x638;" horiz-adv-x="620" arabic-form="medial" 
d="M0 0q-13 0 -21.5 8.5t-8.5 21.5t8.5 21.5t21.5 8.5h70v480h60v-384l76 62q40 33 70.5 53t54 31t42.5 14.5t37 3.5q29 0 54.5 -11t44.5 -30t30 -44.5t11 -54.5v-120h70v-60h-620zM130 82v-22h360v120q0 33 -23.5 56.5t-56.5 23.5q-13 0 -26 -2t-31.5 -10.5t-45 -26.5
t-66.5 -50zM373 492l49 -50l-42 -42l-50 49z" />
    <glyph glyph-name="ainf" unicode="&#x639;" horiz-adv-x="510" arabic-form="final" 
d="M330 -261q-42 -9 -77 -9q-46 0 -80.5 14t-58 36.5t-35 51.5t-11.5 60q0 46 25.5 89t79.5 67l-85 147q-11 19 -11 42q0 35 24 59t59 24h200q35 0 59 -24t24 -59q0 -23 -11 -42l-78 -135h156v-60h-260q-30 0 -52.5 -9.5t-38 -24.5t-23.5 -34t-8 -39t8 -39t24.5 -34
t41.5 -24t59 -9q37 0 69 9v-57zM235 60h50l95 165q3 4 3 12q0 10 -6.5 16.5t-16.5 6.5h-200q-10 0 -16.5 -6.5t-6.5 -16.5q0 -8 3 -12z" />
    <glyph glyph-name="ainn" unicode="&#x639;" horiz-adv-x="420" arabic-form="initial" 
d="M-30 30q0 13 8.5 21.5t21.5 8.5h134q-36 32 -55 72.5t-19 80.5q0 25 8.5 48.5t26.5 40.5t45 27.5t65 10.5q32 0 65.5 -11.5t64.5 -37.5l-15 -52q-24 18 -56 29.5t-61 11.5q-45 0 -64 -19.5t-19 -48.5q0 -23 10.5 -47.5t28 -46t41 -37.5t50.5 -21h100v-60h-350
q-13 0 -21.5 8.5t-8.5 21.5z" />
    <glyph glyph-name="ainm" unicode="&#x639;" horiz-adv-x="500" arabic-form="medial" 
d="M156 60l-78 135q-11 19 -11 42q0 35 24 59t59 24h200q35 0 59 -24t24 -59q0 -23 -11 -42l-78 -135h156v-60h-500q-13 0 -21.5 8.5t-8.5 21.5t8.5 21.5t21.5 8.5h156zM225 60h50l95 165q3 4 3 12q0 10 -6.5 16.5t-16.5 6.5h-200q-10 0 -16.5 -6.5t-6.5 -16.5q0 -8 3 -12z
" />
    <glyph glyph-name="ghainf" unicode="&#x63a;" horiz-adv-x="510" arabic-form="final" 
d="M330 -261q-42 -9 -77 -9q-46 0 -80.5 14t-58 36.5t-35 51.5t-11.5 60q0 46 25.5 89t79.5 67l-85 147q-11 19 -11 42q0 35 24 59t59 24h200q35 0 59 -24t24 -59q0 -23 -11 -42l-78 -135h156v-60h-260q-30 0 -52.5 -9.5t-38 -24.5t-23.5 -34t-8 -39t8 -39t24.5 -34
t41.5 -24t59 -9q37 0 69 9v-57zM235 60h50l95 165q3 4 3 12q0 10 -6.5 16.5t-16.5 6.5h-200q-10 0 -16.5 -6.5t-6.5 -16.5q0 -8 3 -12zM248 492l49 -50l-42 -42l-50 49z" />
    <glyph glyph-name="ghainn" unicode="&#x63a;" horiz-adv-x="420" arabic-form="initial" 
d="M-30 30q0 13 8.5 21.5t21.5 8.5h134q-36 32 -55 72.5t-19 80.5q0 25 8.5 48.5t26.5 40.5t45 27.5t65 10.5q32 0 65.5 -11.5t64.5 -37.5l-15 -52q-24 18 -56 29.5t-61 11.5q-45 0 -64 -19.5t-19 -48.5q0 -23 10.5 -47.5t28 -46t41 -37.5t50.5 -21h100v-60h-350
q-13 0 -21.5 8.5t-8.5 21.5zM183 492l49 -50l-42 -42l-50 49z" />
    <glyph glyph-name="ghainm" unicode="&#x63a;" horiz-adv-x="500" arabic-form="medial" 
d="M156 60l-78 135q-11 19 -11 42q0 35 24 59t59 24h200q35 0 59 -24t24 -59q0 -23 -11 -42l-78 -135h156v-60h-500q-13 0 -21.5 8.5t-8.5 21.5t8.5 21.5t21.5 8.5h156zM225 60h50l95 165q3 4 3 12q0 10 -6.5 16.5t-16.5 6.5h-200q-10 0 -16.5 -6.5t-6.5 -16.5q0 -8 3 -12z
M243 492l49 -50l-42 -42l-50 49z" />
    <glyph glyph-name="fehf" unicode="&#x641;" horiz-adv-x="850" arabic-form="final" 
d="M850 0h-700q-33 0 -56.5 23.5t-23.5 56.5v210h60v-210q0 -8 6 -14t14 -6h334q-44 42 -44 105q0 32 13.5 60.5t36.5 49.5t54 33t66 12t66 -12t54 -33t36.5 -49.5t13.5 -60.5q0 -31 -12 -58t-33 -47h115v-60zM500 160q0 -20 8 -38.5t23 -32t35 -21.5t44 -8q23 0 43 8
t35 21.5t23.5 31.5t8.5 39t-8.5 39t-23.5 31.5t-35 21.5t-43 8t-43 -8t-35 -21.5t-23.5 -31.5t-8.5 -39zM624 492l49 -50l-42 -42l-50 49z" />
    <glyph glyph-name="fehn" unicode="&#x641;" horiz-adv-x="450" arabic-form="initial" 
d="M144 60q-35 30 -54.5 70t-19.5 78q0 46 31 79t99 33h100q33 0 56.5 -23.5t23.5 -56.5v-240h-380q-13 0 -21.5 8.5t-8.5 21.5t8.5 21.5t21.5 8.5h144zM130 203q0 -22 12 -47t32.5 -46.5t48 -35.5t57.5 -14h40v180q0 8 -6 14t-14 6h-100q-38 0 -54 -16.5t-16 -40.5z
M218 492l49 -50l-42 -42l-50 49z" />
    <glyph glyph-name="fehm" unicode="&#x641;" horiz-adv-x="480" arabic-form="medial" 
d="M70 165q0 32 13.5 60.5t36.5 49.5t54 33t66 12t66 -12t54 -33t36.5 -49.5t13.5 -60.5q0 -31 -12 -58t-33 -47h115v-60h-480q-13 0 -21.5 8.5t-8.5 21.5t8.5 21.5t21.5 8.5h114q-44 42 -44 105zM130 160q0 -21 8.5 -39t23.5 -31.5t35 -21.5t43 -8t43 8t35 21.5t23.5 31.5
t8.5 39t-8.5 39t-23.5 31.5t-35 21.5t-43 8t-43 -8t-35 -21.5t-23.5 -31.5t-8.5 -39zM238 492l49 -50l-42 -42l-50 49z" />
    <glyph glyph-name="qaff" unicode="&#x642;" horiz-adv-x="640" arabic-form="final" 
d="M390 -120q25 0 46.5 9.5t38 26t26 38t9.5 46.5h-140q-42 0 -71 29t-29 71v50q0 44 12 76t33 53t49 31t60 10q36 0 73.5 -12.5t72.5 -37.5v-210h70v-60h-70q0 -37 -14 -70t-38.5 -57.5t-57.5 -38.5t-70 -14h-140q-37 0 -70 14t-57.5 38.5t-38.5 57.5t-14 70v130h60v-130
q0 -25 9.5 -46.5t26 -38t38 -26t46.5 -9.5h140zM510 60v177q-43 23 -86 23q-38 0 -66 -26.5t-28 -83.5v-50q0 -17 11.5 -28.5t28.5 -11.5h140zM358 492l49 -50l-42 -42l-50 49zM478 492l49 -50l-42 -42l-50 49z" />
    <glyph glyph-name="qafn" unicode="&#x642;" horiz-adv-x="450" arabic-form="initial" 
d="M144 60q-35 30 -54.5 70t-19.5 78q0 46 31 79t99 33h100q33 0 56.5 -23.5t23.5 -56.5v-240h-380q-13 0 -21.5 8.5t-8.5 21.5t8.5 21.5t21.5 8.5h144zM130 203q0 -22 12 -47t32.5 -46.5t48 -35.5t57.5 -14h40v180q0 8 -6 14t-14 6h-100q-38 0 -54 -16.5t-16 -40.5z
M163 492l49 -50l-42 -42l-50 49zM283 492l49 -50l-42 -42l-50 49z" />
    <glyph glyph-name="qafm" unicode="&#x642;" horiz-adv-x="480" arabic-form="medial" 
d="M70 165q0 32 13.5 60.5t36.5 49.5t54 33t66 12t66 -12t54 -33t36.5 -49.5t13.5 -60.5q0 -31 -12 -58t-33 -47h115v-60h-480q-13 0 -21.5 8.5t-8.5 21.5t8.5 21.5t21.5 8.5h114q-44 42 -44 105zM130 160q0 -21 8.5 -39t23.5 -31.5t35 -21.5t43 -8t43 8t35 21.5t23.5 31.5
t8.5 39t-8.5 39t-23.5 31.5t-35 21.5t-43 8t-43 -8t-35 -21.5t-23.5 -31.5t-8.5 -39zM183 492l49 -50l-42 -42l-50 49zM303 492l49 -50l-42 -42l-50 49z" />
    <glyph glyph-name="kaff" unicode="&#x643;" horiz-adv-x="670" arabic-form="final" 
d="M130 80q0 -8 6 -14t14 -6h380v480h60v-480h80v-60h-520q-33 0 -56.5 23.5t-23.5 56.5v210h60v-210zM262 417l119 113l29 -28l-88 -85q16 -3 31 -9t26.5 -16t18.5 -25.5t7 -36.5v-75h-180v40h140v35q0 18 -9 28.5t-23 16t-30.5 7t-31.5 1.5z" />
    <glyph glyph-name="kafn" unicode="&#x643;" horiz-adv-x="410" arabic-form="initial" 
d="M76 310l224 216l43 -43l-183 -176q37 -4 69.5 -13.5t57 -28t39 -49t14.5 -76.5v-140h-340q-13 0 -21.5 8.5t-8.5 21.5t8.5 21.5t21.5 8.5h280v80q0 39 -18.5 62t-46.5 35t-62 15.5t-64 3.5z" />
    <glyph glyph-name="kafm" unicode="&#x643;" horiz-adv-x="390" arabic-form="medial" 
d="M56 310l224 216l43 -43l-183 -176q37 -4 69.5 -13.5t57 -28t39 -49t14.5 -76.5v-80h70v-60h-390q-13 0 -21.5 8.5t-8.5 21.5t8.5 21.5t21.5 8.5h260v80q0 39 -18.5 62t-46.5 35t-62 15.5t-64 3.5z" />
    <glyph glyph-name="lamf" unicode="&#x644;" horiz-adv-x="520" arabic-form="final" 
d="M440 60h80v-60h-80v-70q0 -33 -23.5 -56.5t-56.5 -23.5h-110q-37 0 -70 14t-57.5 38.5t-38.5 57.5t-14 70v140h60v-140q0 -25 9.5 -46.5t26 -38t38 -26t46.5 -9.5h110q8 0 14 6t6 14v610h60v-480z" />
    <glyph glyph-name="lamn" unicode="&#x644;" horiz-adv-x="220" arabic-form="initial" 
d="M90 540h60v-540h-150q-13 0 -21.5 8.5t-8.5 21.5t8.5 21.5t21.5 8.5h90v480z" />
    <glyph glyph-name="lamm" unicode="&#x644;" horiz-adv-x="220" arabic-form="medial" 
d="M-30 30q0 13 8.5 21.5t21.5 8.5h80v480h60v-480h80v-60h-220q-13 0 -21.5 8.5t-8.5 21.5z" />
    <glyph glyph-name="meemf" unicode="&#x645;" horiz-adv-x="440" arabic-form="final" 
d="M70 155q0 39 13 66.5t34.5 45t49.5 25.5t59 8q38 0 75.5 -11.5t68.5 -31.5v-197h70v-60h-310v-140h-60v295zM310 60v162q-39 18 -84 18q-19 0 -36 -5t-30.5 -15t-21.5 -26.5t-8 -38.5v-95h180z" />
    <glyph glyph-name="meemn" unicode="&#x645;" horiz-adv-x="440" arabic-form="initial" 
d="M0 0q-13 0 -21.5 8.5t-8.5 21.5t8.5 21.5t21.5 8.5h70v100q0 32 13 56t35 40.5t50.5 25t59.5 8.5q38 0 75 -12t67 -38v-148q0 -35 -12 -59.5t-32 -41t-45.5 -24t-53.5 -7.5q-33 0 -65.5 10t-58.5 30h-103zM130 50q24 -17 49 -23.5t48 -6.5q32 0 57.5 17t25.5 55v117
q-38 21 -82 21q-19 0 -37 -4.5t-31.5 -13.5t-21.5 -22t-8 -30v-110z" />
    <glyph glyph-name="meemm" unicode="&#x645;" horiz-adv-x="440" arabic-form="medial" 
d="M-30 30q0 13 8.5 21.5t21.5 8.5h70v62q0 38 12 66t33 46t48 27t57 9t57 -9t48 -27t33 -46t12 -66v-62h70v-60h-83q-18 -37 -55 -56t-82 -19t-82.5 19t-55.5 56h-82q-13 0 -21.5 8.5t-8.5 21.5zM130 60q0 -37 27 -56t63 -19t63 19t27 56v62q0 46 -27 67t-63 21t-63 -21
t-27 -67v-62z" />
    <glyph glyph-name="noonf" unicode="&#x646;" horiz-adv-x="520" arabic-form="final" 
d="M450 60h70v-60h-70v-70q0 -33 -23.5 -56.5t-56.5 -23.5h-120q-37 0 -70 14t-57.5 38.5t-38.5 57.5t-14 70v190h60v-190q0 -25 9.5 -46.5t26 -38t38 -26t46.5 -9.5h120q8 0 14 6t6 14v390h60v-260zM253 492l49 -50l-42 -42l-50 49z" />
    <glyph glyph-name="noonn" unicode="&#x646;" horiz-adv-x="260" arabic-form="initial" 
d="M130 320h60v-320h-190q-13 0 -21.5 8.5t-8.5 21.5t8.5 21.5t21.5 8.5h130v260zM143 492l49 -50l-42 -42l-50 49z" />
    <glyph glyph-name="noonm" unicode="&#x646;" horiz-adv-x="300" arabic-form="medial" 
d="M-30 30q0 13 8.5 21.5t21.5 8.5h120v260h60v-260h120v-60h-300q-13 0 -21.5 8.5t-8.5 21.5zM143 492l49 -50l-42 -42l-50 49z" />
    <glyph glyph-name="heh" unicode="&#x647;" horiz-adv-x="440" arabic-form="isolated" 
d="M70 0v175q0 39 13 66.5t34.5 45t49.5 25.5t59 8q38 0 75.5 -11.5t68.5 -31.5v-277h-300zM310 60v182q-39 18 -84 18q-19 0 -36 -5t-30.5 -15t-21.5 -26.5t-8 -38.5v-115h180z" />
    <glyph glyph-name="hehf" unicode="&#x647;" horiz-adv-x="460" arabic-form="final" 
d="M70 122q0 31 16.5 65.5t47 64t75 49t101.5 19.5h70v-260h80v-60h-260q-35 0 -59.5 9.5t-40.5 26t-23 39t-7 47.5zM130 122q0 -24 16 -43t54 -19h120v200h-10q-43 0 -76.5 -13.5t-56.5 -33.5t-35 -44.5t-12 -46.5z" />
    <glyph glyph-name="hehn" unicode="&#x647;" horiz-adv-x="600" arabic-form="initial" 
d="M220 240q-21 0 -37.5 -8.5t-28.5 -22.5t-18 -31.5t-6 -35.5q0 -32 21.5 -57t68.5 -25h60v160q0 8 -6 14t-14 6h-40zM260 300q33 0 56.5 -23.5t23.5 -56.5v-160h120v160q0 66 -30.5 93t-77.5 27q-18 0 -41 -2.5t-43 -8.5l-12 51q62 20 110 20q69 0 111.5 -43t42.5 -137
v-220h-520q-13 0 -21.5 8.5t-8.5 21.5t8.5 21.5t21.5 8.5h93q-12 18 -17.5 38.5t-5.5 43.5q0 28 10.5 56.5t30 51t47 36.5t62.5 14h40z" />
    <glyph glyph-name="hehm" unicode="&#x647;" horiz-adv-x="440" arabic-form="medial" 
d="M234 230q-20 0 -38.5 -14t-33 -37t-24 -54t-12.5 -65h124q11 12 20 42.5t9 61.5q0 26 -9.5 46t-35.5 20zM124 0q2 -29 9 -54t19 -44.5t30 -30.5t42 -11q27 0 41.5 21t14.5 47q0 27 -17 49.5t-55 22.5h-84zM220 -200q-36 0 -63.5 16.5t-46.5 44t-30 63.5t-13 76h-67
q-13 0 -21.5 8.5t-8.5 21.5q0 12 8.5 21t21.5 9h66q9 89 47 150q23 38 55 58.5t67 20.5q58 0 86 -49q18 -32 18 -76q0 -39 -11 -78q-2 -6 -4 -12.5t-5 -13.5h121v-60h-123q20 -29 20 -70q0 -24 -7 -47t-21.5 -41.5t-36.5 -30t-52 -11.5z" />
    <glyph glyph-name="wawf" unicode="&#x648;" horiz-adv-x="440" arabic-form="final" 
d="M310 0h-140q-42 0 -71 29t-29 71v50q0 44 12 76t33 53t49 31t60 10q36 0 73.5 -12.5t72.5 -37.5v-210h70v-60h-70v-10q0 -42 -11 -71t-30.5 -46.5t-45.5 -25t-56 -7.5q-35 0 -72.5 8.5t-74.5 21.5q5 14 9 25q4 10 6.5 18t3.5 8q24 -8 55.5 -16t61.5 -8q19 0 36 4.5t30 15
t20.5 28.5t7.5 45v10zM310 60v177q-43 23 -86 23q-38 0 -66 -26.5t-28 -83.5v-50q0 -17 11.5 -28.5t28.5 -11.5h140z" />
    <glyph glyph-name="maksuraf" unicode="&#x649;" horiz-adv-x="580" arabic-form="final" 
d="M480 -120q13 0 21.5 9t8.5 20q0 13 -13 26l-162 164l42 42l80 -81h123v-60h-63l23 -23q15 -15 23 -34.5t8 -39.5q0 -32 -22 -57.5t-69 -25.5h-230q-37 0 -70 14t-57.5 38.5t-38.5 57.5t-14 70v130h60v-130q0 -25 9.5 -46.5t26 -38t38 -26t46.5 -9.5h230z" />
    <glyph glyph-name="yehf" unicode="&#x64a;" horiz-adv-x="580" arabic-form="final" 
d="M480 -120q13 0 21.5 9t8.5 20q0 13 -13 26l-162 164l42 42l80 -81h123v-60h-63l23 -23q15 -15 23 -34.5t8 -39.5q0 -32 -22 -57.5t-69 -25.5h-230q-37 0 -70 14t-57.5 38.5t-38.5 57.5t-14 70v130h60v-130q0 -25 9.5 -46.5t26 -38t38 -26t46.5 -9.5h230zM273 -238l49 -45
l-42 -38l-50 44zM393 -238l49 -45l-42 -38l-50 44z" />
    <glyph glyph-name="yehn" unicode="&#x64a;" horiz-adv-x="260" arabic-form="initial" 
d="M130 320h60v-320h-190q-13 0 -21.5 8.5t-8.5 21.5t8.5 21.5t21.5 8.5h130v260zM38 -58l49 -50l-42 -42l-50 49zM158 -58l49 -50l-42 -42l-50 49z" />
    <glyph glyph-name="yehm" unicode="&#x64a;" horiz-adv-x="300" arabic-form="medial" 
d="M-30 30q0 13 8.5 21.5t21.5 8.5h120v260h60v-260h120v-60h-300q-13 0 -21.5 8.5t-8.5 21.5zM58 -58l49 -50l-42 -42l-50 49zM178 -58l49 -50l-42 -42l-50 49z" />
    <glyph glyph-name=".notdef" horiz-adv-x="592" 
d="M108 365h-21v-47h-37v146h95v-146h-37v47zM490 -40h-37v87h-21v-87h-37v87h-21v-87h-37v106h153v-106zM165 464h37v-40h58v-106h-95v146zM375 318h-95v106h58v40h37v-146zM490 318h-95v106h95v-106zM235 117h-95v106h95v-106zM317 -40h-95v106h95v-106zM350 117h-37v87
h-21v-87h-37v106h95v-106zM107 66h95v-34h-37v15h-21v-68h21v15h37v-34h-95v106zM484 204v-24h58v-63h-95v19h58v25h-58v62h95v-19h-58zM87 164v-47h-37v146h75v-19h-38v-61h38v-19h-38zM407 204v-87h-37v146h37v-40h25v-19h-25zM317 337h21v68h-21v-68zM177 136h21v68h-21
v-68zM202 337h21v68h-21v-68zM259 -21h21v68h-21v-68zM432 337h21v68h-21v-68zM87 384h21v61h-21v-61zM87 -40h-37v29h37v-29z" />
    <glyph glyph-name=".null" 
 />
    <glyph glyph-name="nonmarkingreturn" horiz-adv-x="439" 
 />
    <glyph glyph-name="space" unicode=" " horiz-adv-x="150" 
 />
    <glyph glyph-name="space" unicode="&#xa0;" horiz-adv-x="150" 
 />
    <glyph glyph-name="exclam" unicode="!" horiz-adv-x="220" 
d="M80 80h60v-80h-60v80zM80 540h60v-390h-60v390z" />
    <glyph glyph-name="quotedbl" unicode="&#x22;" horiz-adv-x="430" 
d="M110 370l-10 220h70l-10 -220h-50zM270 370l-10 220h70l-10 -220h-50z" />
    <glyph glyph-name="numbersign" unicode="#" horiz-adv-x="640" 
d="M120 420h111l16 100h60l-16 -100h120l16 100h60l-16 -100h89v-60h-98l-22 -140h100v-60h-109l-15 -100h-60l15 100h-120l-15 -100h-60l15 100h-91v60h100l22 140h-102v60zM260 220h120l22 140h-120z" />
    <glyph glyph-name="percent" unicode="%" horiz-adv-x="620" 
d="M177 0l207 520h64l-207 -520h-64zM60 441q0 33 23.5 56t56.5 23t56 -23t23 -56t-23 -56.5t-56 -23.5t-56.5 23.5t-23.5 56.5zM97 441q0 -18 12.5 -30.5t30.5 -12.5t30 12.5t12 30.5t-12 30t-30 12t-30.5 -12t-12.5 -30zM401 80q0 33 23.5 56t56.5 23t56 -23t23 -56
t-23 -56.5t-56 -23.5t-56.5 23.5t-23.5 56.5zM438 80q0 -18 12.5 -30.5t30.5 -12.5t30 12.5t12 30.5t-12 30t-30 12t-30.5 -12t-12.5 -30z" />
    <glyph glyph-name="ampersand" unicode="&#x26;" horiz-adv-x="532" 
d="M421 10l-52 61q-31 -39 -71.5 -55t-86.5 -16q-33 0 -64 9t-55 25.5t-38 41t-14 56.5q0 34 11.5 59.5t30.5 45.5t43 36t50 31q-17 20 -29 35.5t-20 29t-12 26.5t-4 27q0 49 33.5 75.5t84.5 26.5q48 0 83 -26t35 -76q0 -45 -25.5 -75.5t-62.5 -55.5l105 -127q4 11 7 26.5
t5 32.5h52q-9 -64 -28 -103l93 -110h-71zM211 55q35 0 67 13.5t57 43.5l-124 149q-21 -12 -41.5 -25t-37 -29t-26.5 -34.5t-10 -40.5q0 -18 9.5 -32.5t25 -24t36.5 -15t44 -5.5zM166 422q0 -16 13 -34.5t45 -54.5q28 18 47 39t19 50q0 23 -18 35t-44 12t-44 -12.5t-18 -34.5
z" />
    <glyph glyph-name="quotesingle" unicode="'" horiz-adv-x="270" 
d="M110 370l-10 220h70l-10 -220h-50z" />
    <glyph glyph-name="parenleft" unicode="(" horiz-adv-x="383" 
d="M264 585q-53 -70 -88.5 -150t-35.5 -160q0 -83 36 -165.5t92 -156.5l-48 -37q-61 80 -100.5 171.5t-39.5 187.5q0 94 38.5 182t98.5 164z" />
    <glyph glyph-name="parenright" unicode=")" horiz-adv-x="383" 
d="M119 585q53 -70 88.5 -150t35.5 -160q0 -83 -36 -165.5t-92 -156.5l48 -37q61 80 100.5 171.5t39.5 187.5q0 94 -38.5 182t-98.5 164z" />
    <glyph glyph-name="asterisk" unicode="*" horiz-adv-x="442" 
d="M291 470l-6 -43l-50 -14l-26 35l11 108l-48 -100l-39 -17l-37 39l17 39l101 45l-110 -12l-34 27l13 53l43 4l91 -65l-65 90l5 43l50 14l27 -35l-12 -110l47 101l40 18l37 -39l-15 -40l-102 -45l111 12l32 -26l-12 -52l-44 -6l-90 64z" />
    <glyph glyph-name="plus" unicode="+" horiz-adv-x="510" 
d="M285 230h145v-60h-145v-140h-60v140h-145v60h145v140h60v-140z" />
    <glyph glyph-name="comma" unicode="," horiz-adv-x="266" 
d="M95 101q55 -28 78 -61t23 -68q0 -44 -28.5 -90.5t-69.5 -88.5l-17 35q23 24 42 58t19 67q0 24 -16 47t-56 41z" />
    <glyph glyph-name="hyphen" unicode="-" horiz-adv-x="450" 
d="M80 100v60h290v-60h-290z" />
    <glyph glyph-name="period" unicode="." horiz-adv-x="220" 
d="M70 80h80v-80h-80v80z" />
    <glyph glyph-name="slash" unicode="/" horiz-adv-x="431" 
d="M80 0l207 520h64l-207 -520h-64z" />
    <glyph glyph-name="zero" unicode="0" horiz-adv-x="480" 
d="M410 260q0 -43 -4 -89t-20.5 -84t-51 -62.5t-94.5 -24.5t-94.5 24.5t-51 62.5t-20.5 84t-4 89t4 89t20.5 84t51 62.5t94.5 24.5t94.5 -24.5t51 -62.5t20.5 -84t4 -89zM350 260q0 33 -2.5 69t-13.5 65.5t-33 49t-61 19.5t-61 -19.5t-33 -49t-13.5 -65.5t-2.5 -69
t2.5 -68.5t13.5 -65.5t33 -49t61 -19t61 19t33 49t13.5 65.5t2.5 68.5z" />
    <glyph glyph-name="one" unicode="1" horiz-adv-x="290" 
d="M70 460l90 60h60v-520h-60v451l-74 -49z" />
    <glyph glyph-name="two" unicode="2" horiz-adv-x="471" 
d="M71 0q0 52 20 88.5t50 64t65 49.5t65 45.5t50 52.5t20 70q0 43 -29 66.5t-71 23.5q-27 0 -47.5 -10t-35 -25.5t-21.5 -35.5t-7 -39h-60q0 31 11 61.5t33 54.5t53.5 39t73.5 15q34 0 63 -10t50.5 -29.5t34 -47t12.5 -63.5q0 -43 -14.5 -75t-38 -56.5t-52 -45t-56.5 -40.5
t-52.5 -42.5t-39.5 -50.5h252v-60h-329z" />
    <glyph glyph-name="three" unicode="3" horiz-adv-x="480" 
d="M200 300h35q39 0 67 23.5t28 56.5t-28 56.5t-67 23.5t-67 -23.5t-28 -56.5h-60q0 31 12 56.5t33 44t49.5 29t60.5 10.5t60.5 -10.5t49.5 -29t33 -43t12 -52.5q0 -33 -16.5 -61t-44.5 -47q37 -20 59 -53t22 -74q0 -31 -13.5 -58.5t-36.5 -47.5t-54 -32t-66 -12t-66 12
t-54 32t-36.5 47.5t-13.5 58.5h60q0 -17 8.5 -33.5t23.5 -29t35 -20t43 -7.5t43 7.5t35 20.5t23.5 30t8.5 37q0 19 -8.5 36.5t-23.5 30.5t-35 20.5t-43 7.5h-40v50z" />
    <glyph glyph-name="four" unicode="4" horiz-adv-x="470" 
d="M70 180l240 340h60v-340h30v-60h-30v-120h-60v120h-240v60zM141 180h169v241z" />
    <glyph glyph-name="five" unicode="5" horiz-adv-x="477" 
d="M133 141q11 -42 42 -61.5t63 -19.5q21 0 40.5 8t34.5 23.5t24.5 37.5t9.5 51q0 27 -10 48.5t-26.5 36.5t-37.5 23t-43 8q-25 0 -48 -11t-40 -35h-55v270h273v-60h-213v-137q41 27 90 27q35 0 66 -13.5t54 -37.5t36.5 -56t13.5 -68t-13.5 -68t-36.5 -56t-54 -37.5
t-66 -13.5q-31 0 -58.5 10.5t-50 29.5t-37.5 44.5t-21 55.5z" />
    <glyph glyph-name="six" unicode="6" horiz-adv-x="494" 
d="M253 340q35 0 66 -13.5t54 -36.5t36.5 -54t13.5 -66t-13.5 -66t-36.5 -54t-54 -36.5t-66 -13.5q-47 0 -81.5 20.5t-57 54.5t-33.5 77.5t-11 90.5q0 70 16.5 122t44.5 86.5t64.5 51.5t76.5 17q38 0 77.5 -16.5t74.5 -48.5l-41 -44q-26 24 -54.5 36.5t-56.5 12.5
q-51 0 -91 -43.5t-49 -131.5q22 26 52.5 40.5t68.5 14.5zM363 175q0 24 -8.5 44.5t-23.5 36.5t-35 25t-43 9t-43.5 -9t-36.5 -24.5t-25 -35.5t-9 -41q0 -22 8.5 -43.5t24 -38.5t36.5 -27.5t45 -10.5q21 0 41 8t35 23t24.5 36.5t9.5 47.5z" />
    <glyph glyph-name="seven" unicode="7" horiz-adv-x="450" 
d="M400 460q-40 -39 -73 -93t-57.5 -115.5t-40 -126.5t-19.5 -125h-60q10 134 55 250t120 210h-255v60h330v-60z" />
    <glyph glyph-name="eight" unicode="8" horiz-adv-x="480" 
d="M90 385q0 28 12 52.5t32 43t47.5 29t58.5 10.5t58.5 -10.5t47.5 -29t32 -43t12 -52.5q0 -34 -16.5 -62t-43.5 -46q36 -20 58 -53.5t22 -73.5q0 -31 -13.5 -58.5t-36.5 -47.5t-54 -32t-66 -12t-66 12t-54 32t-36.5 47.5t-13.5 58.5q0 40 22 73.5t58 53.5q-28 18 -44 46
t-16 62zM130 155q0 -20 8.5 -37t23.5 -30t35 -20.5t43 -7.5t43 7.5t35 20.5t23.5 30t8.5 37q0 19 -8.5 36.5t-23.5 30.5t-35 20.5t-43 7.5t-43 -7.5t-35 -20.5t-23.5 -30.5t-8.5 -36.5zM150 380q0 -32 25.5 -56t64.5 -24q38 0 64 23.5t26 56.5t-26 56.5t-64 23.5t-64 -23.5
t-26 -56.5z" />
    <glyph glyph-name="nine" unicode="9" horiz-adv-x="494" 
d="M241 180q-35 0 -66 13.5t-54 36.5t-36.5 54t-13.5 66t13.5 66t36.5 54t54 36.5t66 13.5q47 0 81.5 -20.5t57 -54.5t33.5 -78t11 -90q0 -70 -16.5 -122t-44.5 -86.5t-64.5 -51.5t-76.5 -17q-38 0 -77.5 16.5t-74.5 48.5l41 44q26 -24 54.5 -36.5t56.5 -12.5
q25 0 48.5 10.5t42 32.5t31.5 54.5t18 76.5q-22 -25 -53 -39.5t-68 -14.5zM131 345q0 -29 10 -50.5t26 -35.5t37 -21.5t42 -7.5q20 0 39.5 6.5t34.5 20t24 33t9 46.5q0 22 -7.5 44.5t-22 39.5t-35 28t-47.5 11q-21 0 -41 -8t-35 -23t-24.5 -36t-9.5 -47z" />
    <glyph glyph-name="colon" unicode=":" horiz-adv-x="220" 
d="M70 80h80v-80h-80v80zM70 290h80v-80h-80v80z" />
    <glyph glyph-name="semicolon" unicode=";" horiz-adv-x="266" 
d="M83 243h64v-64h-64v64zM95 101q55 -28 78 -61t23 -68q0 -44 -28.5 -90.5t-69.5 -88.5l-17 35q23 24 42 58t19 67q0 24 -16 47t-56 41z" />
    <glyph glyph-name="less" unicode="&#x3c;" horiz-adv-x="610" 
d="M80 226v78l450 196v-65l-390 -170l390 -171v-66z" />
    <glyph glyph-name="equal" unicode="=" horiz-adv-x="550" 
d="M80 30v60h390v-60h-390zM80 190v60h390v-60h-390z" />
    <glyph glyph-name="greater" unicode="&#x3e;" horiz-adv-x="610" 
d="M530 226v78l-450 196v-65l390 -170l-390 -171v-66z" />
    <glyph glyph-name="question" unicode="?" horiz-adv-x="460" 
d="M130 360h-60v63q0 29 12.5 51t34 36.5t50.5 22t63 7.5t63 -7.5t50.5 -22t34 -36.5t12.5 -51v-93q0 -28 -9.5 -45.5t-24 -29t-31.5 -19t-31.5 -15t-24 -17t-9.5 -24.5v-60h-60v60q0 22 9.5 36.5t24 25t31.5 19.5t31.5 18.5t24 21t9.5 29.5v93q0 29 -27.5 43t-72.5 14
t-72.5 -14t-27.5 -43v-63zM260 0h-60v80h60v-80z" />
    <glyph glyph-name="at" unicode="@" horiz-adv-x="649" 
d="M550 60q-45 -31 -96.5 -45.5t-103.5 -14.5q-54 0 -104.5 16t-89.5 48t-62.5 78.5t-23.5 108.5q0 51 18.5 101t53 89t84.5 63.5t113 24.5q46 0 89.5 -14t77 -42.5t53.5 -71t20 -98.5q0 -39 -12 -69.5t-30.5 -51.5t-41.5 -32.5t-45 -11.5q-24 0 -41 9t-28 24
q-33 -27 -69 -27q-26 0 -45 8.5t-32 23t-19 33t-6 38.5q0 24 8 47t24 41.5t40 30t55 11.5q17 0 33.5 -7t31.5 -19l6 27h49l-31 -127q-2 -5 -3 -13.5t-1 -16.5q0 -24 11 -35t25 -11q12 0 26.5 8.5t27 25t20.5 40.5t8 54q0 35 -13.5 68.5t-39.5 60t-63.5 42.5t-85.5 16
q-51 0 -91 -21t-68 -55t-42.5 -77t-14.5 -88q0 -42 14 -81t42.5 -68t73 -46.5t105.5 -17.5q48 0 95.5 14t91.5 42zM337 337q-16 0 -28.5 -8.5t-21 -22t-13 -30.5t-4.5 -33q0 -25 10 -42t32 -17q14 0 26.5 9.5t21.5 24.5t14 32.5t5 33.5q0 23 -10 38t-32 15z" />
    <glyph glyph-name="A" unicode="A" horiz-adv-x="440" 
d="M390 0h-60v190h-220v-190h-60v355q0 42 13.5 73t37 51.5t54 30.5t63.5 10q34 0 65 -10.5t55 -31t38 -51.5t14 -72v-355zM110 250h220v105q0 26 -10 45.5t-25.5 33t-36 20t-41.5 6.5q-20 0 -39.5 -6.5t-34.5 -19.5t-24 -32.5t-9 -46.5v-105z" />
    <glyph glyph-name="B" unicode="B" horiz-adv-x="470" 
d="M252 520q34 0 61 -11.5t46.5 -31t30 -44.5t10.5 -52q0 -32 -16.5 -63t-51.5 -54q47 -15 67.5 -48t20.5 -70q0 -27 -10 -53t-28 -47t-43.5 -33.5t-56.5 -12.5h-232v520h202zM110 235v-175h160q22 0 39 7.5t28.5 20t17 28t5.5 31.5q0 33 -22.5 60.5t-67.5 27.5h-160z
M110 460v-165h140q45 0 67.5 25.5t22.5 56.5q0 32 -22.5 57.5t-67.5 25.5h-140z" />
    <glyph glyph-name="C" unicode="C" horiz-adv-x="483" 
d="M433 161q-16 -89 -63 -125t-120 -36q-47 0 -84 13.5t-63 44t-39.5 79.5t-13.5 121t13.5 121.5t39.5 81t63 45.5t84 14q72 0 120 -37.5t62 -115.5h-55q-17 51 -49 72.5t-78 21.5q-33 0 -59 -11t-44 -35t-27.5 -62.5t-9.5 -94.5t9.5 -94t27.5 -61t44 -33.5t59 -10.5
q47 0 79.5 23.5t49.5 78.5h54z" />
    <glyph glyph-name="D" unicode="D" horiz-adv-x="460" 
d="M210 520q37 0 73 -11.5t64.5 -34t45.5 -56t17 -78.5v-161q0 -45 -17 -78.5t-45.5 -56t-64.5 -33.5t-73 -11h-160v520h160zM110 460v-400h100q26 0 51.5 7.5t45 22.5t31.5 37t12 52v161q0 30 -12 52.5t-31.5 37.5t-45 22.5t-51.5 7.5h-100z" />
    <glyph glyph-name="E" unicode="E" horiz-adv-x="420" 
d="M370 0h-320v520h320v-60h-260v-170h260v-60h-260v-170h260v-60z" />
    <glyph glyph-name="F" unicode="F" horiz-adv-x="420" 
d="M110 230v-230h-60v520h320v-60h-260v-170h240v-60h-240z" />
    <glyph glyph-name="G" unicode="G" horiz-adv-x="499" 
d="M249 274h200v-22q0 -64 -9 -111.5t-32 -78.5t-61.5 -46.5t-97.5 -15.5t-97 13.5t-61 44t-32 79.5t-9 121t9 121.5t32 81t61 45.5t97 14q86 0 131 -34t62 -112h-64q-14 48 -44.5 67.5t-84.5 19.5q-41 0 -68 -11t-42.5 -35t-22 -62.5t-6.5 -94.5t6.5 -94t22 -61t42.5 -33.5
t68 -10.5q38 0 64 7t42.5 24.5t24 47.5t9.5 77h-140v59z" />
    <glyph glyph-name="H" unicode="H" horiz-adv-x="470" 
d="M420 520v-520h-60v230h-250v-230h-60v520h60v-230h250v230h60z" />
    <glyph glyph-name="I" unicode="I" horiz-adv-x="160" 
d="M110 520v-520h-60v520h60z" />
    <glyph glyph-name="J" unicode="J" horiz-adv-x="300" 
d="M190 520h60v-370q0 -76 -35 -113t-97 -37q-53 0 -118 25q7 15 11 26q4 10 7 18.5t4 8.5q48 -17 87 -17q36 0 58.5 19.5t22.5 69.5v370z" />
    <glyph glyph-name="K" unicode="K" horiz-adv-x="424" 
d="M404 0h-81l-213 229v-229h-60v520h60v-221l212 221h82l-245 -255z" />
    <glyph glyph-name="L" unicode="L" horiz-adv-x="350" 
d="M110 60h240v-60h-300v520h60v-460z" />
    <glyph glyph-name="M" unicode="M" horiz-adv-x="611" 
d="M30 0l67 520h55l153 -446l153 446h55l68 -520h-61l-50 374q-32 -94 -64.5 -187t-63.5 -187h-74l-129 373l-48 -373h-61z" />
    <glyph glyph-name="N" unicode="N" horiz-adv-x="520" 
d="M110 399v-399h-60v520h37l323 -395v395h60v-520h-33z" />
    <glyph glyph-name="O" unicode="O" horiz-adv-x="500" 
d="M50 258q0 72 13.5 121.5t39.5 81t63 45.5t84 14t84 -14t63 -45.5t39.5 -81t13.5 -121.5t-13.5 -121t-39.5 -79.5t-63 -44t-84 -13.5t-84 13.5t-63 44t-39.5 79.5t-13.5 121zM110 258q0 -56 9.5 -94t27.5 -61t44 -33.5t59 -10.5t59 10.5t44 33.5t27.5 61t9.5 94t-9.5 94.5
t-27.5 62.5t-44 35t-59 11t-59 -11t-44 -35t-27.5 -62.5t-9.5 -94.5z" />
    <glyph glyph-name="P" unicode="P" horiz-adv-x="470" 
d="M250 520q35 0 66 -13.5t54 -36.5t36.5 -54t13.5 -66t-13.5 -66t-36.5 -54t-54 -36.5t-66 -13.5h-140v-180h-60v520h200zM110 460v-220h140q23 0 43 8.5t35 23.5t23.5 35t8.5 43t-8.5 43t-23.5 35t-35 23.5t-43 8.5h-140z" />
    <glyph glyph-name="Q" unicode="Q" horiz-adv-x="500" 
d="M50 258q0 72 13.5 121.5t39.5 81t63 45.5t84 14t84 -14t63 -45.5t39.5 -81t13.5 -121.5q0 -75 -15 -125.5t-44 -81.5l57 -55l-42 -41l-64 61q-40 -17 -92 -17q-47 0 -84 13.5t-63 44t-39.5 80t-13.5 121.5zM110 258q0 -56 9.5 -94t27.5 -61.5t44 -34t59 -10.5
q13 0 23.5 1t21.5 4l-45 44l42 42l55 -54q20 23 31.5 63t11.5 100q0 56 -9.5 94.5t-27.5 62.5t-44 35t-59 11t-59 -11t-44 -35t-27.5 -62.5t-9.5 -94.5z" />
    <glyph glyph-name="R" unicode="R" horiz-adv-x="463" 
d="M213 200h-103v-200h-60v520h210q33 0 62 -12.5t51 -34.5t34.5 -51t12.5 -62q0 -30 -10 -56.5t-28 -47.5t-42.5 -35t-52.5 -19l156 -202h-75zM260 260q42 0 71 29t29 71t-29 71t-71 29h-150v-200h150z" />
    <glyph glyph-name="S" unicode="S" horiz-adv-x="434" 
d="M324 132q0 24 -20.5 43t-50.5 36.5t-66 35t-66 38t-50.5 45.5t-20.5 58q0 25 12 48.5t34.5 42t56 30t76.5 11.5q36 0 71 -6.5t61 -15.5l-19 -57q-23 8 -52.5 13.5t-60.5 5.5q-57 0 -88 -21.5t-31 -50.5q0 -24 20.5 -43t50.5 -36.5t66 -35t66 -38t50.5 -45.5t20.5 -58
q0 -25 -12 -48.5t-34.5 -42t-56 -30t-76.5 -11.5q-36 0 -71 6.5t-61 15.5l19 57q23 -8 52.5 -13.5t60.5 -5.5q57 0 88 21.5t31 50.5z" />
    <glyph glyph-name="T" unicode="T" horiz-adv-x="380" 
d="M220 460v-460h-60v460h-160v60h380v-60h-160z" />
    <glyph glyph-name="U" unicode="U" horiz-adv-x="440" 
d="M330 520h60v-341q0 -45 -14 -78.5t-37 -56t-54 -33.5t-64 -11q-34 0 -65 11t-54.5 33.5t-37.5 56t-14 78.5v341h60v-341q0 -30 9 -52t24.5 -37t35.5 -22.5t42 -7.5q21 0 41 7.5t35 22t24 37t9 52.5v341z" />
    <glyph glyph-name="V" unicode="V" horiz-adv-x="445" 
d="M93 520l131 -432l128 432h63l-153 -520h-77l-155 520h63z" />
    <glyph glyph-name="W" unicode="W" horiz-adv-x="746" 
d="M193 0l-163 520h64l137 -439l114 439h58l112 -437l138 437h63l-161 -520h-82l-99 389l-100 -389h-81z" />
    <glyph glyph-name="X" unicode="X" horiz-adv-x="464" 
d="M267 252l157 -252h-70l-122 196l-122 -196h-70l157 252l-167 268h71l131 -211l131 211h71z" />
    <glyph glyph-name="Y" unicode="Y" horiz-adv-x="500" 
d="M280 215v-215h-60v215l-190 305h70l150 -240l149 240h71z" />
    <glyph glyph-name="Z" unicode="Z" horiz-adv-x="410" 
d="M26 0l260 460h-266v60h369l-261 -460h262v-60h-364z" />
    <glyph glyph-name="bracketleft" unicode="[" horiz-adv-x="320" 
d="M80 -80v700h160v-60h-100v-580h100v-60h-160z" />
    <glyph glyph-name="backslash" unicode="\" horiz-adv-x="431" 
d="M351 0l-207 520h-64l207 -520h64z" />
    <glyph glyph-name="bracketright" unicode="]" horiz-adv-x="320" 
d="M240 -80v700h-160v-60h100v-580h-100v-60h160z" />
    <glyph glyph-name="asciicircum" unicode="^" horiz-adv-x="440" 
d="M264 540l126 -160h-78l-93 115q-23 -28 -46 -58t-45 -57h-78l126 160h88z" />
    <glyph glyph-name="underscore" unicode="_" horiz-adv-x="680" 
d="M630 60v-60h-580v60h580z" />
    <glyph glyph-name="grave" unicode="`" horiz-adv-x="310" 
d="M147 540l113 -150h-60l-150 150h97z" />
    <glyph glyph-name="a" unicode="a" horiz-adv-x="390" 
d="M120 0q-35 0 -57.5 22.5t-22.5 57.5v58q0 22 11 40t30.5 30.5t45.5 19t56 6.5q42 0 107 -23v17q0 26 -8.5 44t-23 28.5t-34 15t-40.5 4.5q-29 0 -59.5 -6.5t-60.5 -17.5l-23 49q35 16 75.5 25.5t77.5 9.5q31 0 59.5 -8t50 -26t34 -47t12.5 -71v-228h-230zM290 60v89
q-26 11 -55.5 18t-51.5 7q-35 0 -59 -9.5t-24 -26.5v-58q0 -20 20 -20h170z" />
    <glyph glyph-name="b" unicode="b" horiz-adv-x="390" 
d="M40 0v520h60v-164q26 11 51 17.5t45 6.5q31 0 59 -10t49 -30.5t33.5 -51.5t12.5 -74v-114q0 -21 -8 -39.5t-21.5 -32t-31.5 -21t-39 -7.5h-210zM250 60q17 0 28.5 11.5t11.5 28.5v114q0 28 -9 49t-24 34.5t-33.5 20t-37.5 6.5q-40 0 -86 -23v-241h150z" />
    <glyph glyph-name="c" unicode="c" horiz-adv-x="401" 
d="M40 240q0 45 11 72.5t31 42.5t49.5 20t67.5 5q36 0 65.5 -4.5t50.5 -17.5t32.5 -36.5t12.5 -61.5h-59q-3 38 -29.5 49t-72.5 11q-24 0 -42.5 -3t-31 -11.5t-19 -24t-6.5 -41.5v-100q0 -26 6.5 -41.5t19 -24t31 -11.5t42.5 -3q46 0 72.5 11t29.5 49h60q-2 -37 -14 -60
t-33 -36.5t-50 -18.5t-65 -5q-38 0 -67.5 5t-49.5 20t-31 42.5t-11 72.5v100z" />
    <glyph glyph-name="d" unicode="d" horiz-adv-x="390" 
d="M140 0q-42 0 -71 29t-29 71v114q0 43 12.5 74t33.5 51.5t49 30.5t59 10q20 0 45 -6.5t51 -17.5v164h60v-520h-210zM290 60v241q-46 23 -86 23q-19 0 -37.5 -6.5t-33.5 -20t-24 -34.5t-9 -49v-114q0 -17 11.5 -28.5t28.5 -11.5h150z" />
    <glyph glyph-name="e" unicode="e" horiz-adv-x="400" 
d="M101 215h200v43q0 22 -7 34.5t-19.5 18.5t-31.5 7.5t-43 1.5t-42 -1.5t-31 -8t-19.5 -21t-6.5 -39.5v-35zM358 74q-5 -25 -18 -39.5t-33.5 -22t-47.5 -10t-59 -2.5q-38 0 -67.5 3.5t-49.5 16.5t-31 39t-11 71v120q0 45 11 71t31 39t49.5 16.5t67.5 3.5q37 0 67 -3.5
t51 -16t32 -36.5t11 -66v-103h-260v-25q0 -26 6.5 -40t19.5 -20.5t31 -8t42 -1.5q37 0 63 4t40 20z" />
    <glyph glyph-name="f" unicode="f" horiz-adv-x="247" 
d="M211 457q-9 2 -18 3t-18 1q-31 0 -53 -17.5t-22 -63.5v-50h100v-60h-100v-270h-60v380q0 74 35.5 107t95.5 33q26 0 56 -6z" />
    <glyph glyph-name="g" unicode="g" horiz-adv-x="400" 
d="M88 -84q25 -6 51.5 -11t52.5 -5q22 0 41.5 5t34.5 17.5t23.5 33.5t8.5 54v34q-23 -22 -54.5 -33.5t-63.5 -11.5q-27 0 -52.5 8t-45.5 25t-32 43.5t-12 64.5v100q0 76 41 108t119 32q27 0 52.5 -9t47.5 -22v31h60v-370q0 -49 -13.5 -82t-36 -52.5t-52 -27.5t-62.5 -8
q-32 0 -64 6t-62 15zM200 320q-48 0 -74 -18t-26 -62v-100q0 -21 8.5 -36t22 -24.5t31 -14.5t36.5 -5t37 4.5t32.5 13.5t23.5 22t9 30v115q0 41 -26 58t-74 17z" />
    <glyph glyph-name="h" unicode="h" horiz-adv-x="380" 
d="M100 328q26 26 57 39t61 13q24 0 46.5 -8.5t39 -26t26.5 -43.5t10 -62v-240h-60v240q0 45 -17.5 62.5t-42.5 17.5q-20 0 -41.5 -8.5t-39 -22t-28.5 -30.5t-11 -34v-225h-60v520h60v-192z" />
    <glyph glyph-name="i" unicode="i" horiz-adv-x="140" 
d="M100 520v-90h-60v90h60zM100 380v-380h-60v380h60z" />
    <glyph glyph-name="j" unicode="j" horiz-adv-x="167" 
d="M-44 -97q9 -2 18 -3t18 -1q15 0 29 4t24 13.5t16 25t6 38.5v390h60v-390q0 -74 -35.5 -107t-95.5 -33q-26 0 -56 6zM127 520v-90h-60v90h60z" />
    <glyph glyph-name="k" unicode="k" horiz-adv-x="361" 
d="M361 0h-82l-179 189v-189h-60v520h60v-269l130 139h81l-157 -170z" />
    <glyph glyph-name="l" unicode="l" horiz-adv-x="140" 
d="M100 520v-520h-60v520h60z" />
    <glyph glyph-name="m" unicode="m" horiz-adv-x="550" 
d="M250 260q0 33 -15.5 46.5t-34.5 13.5q-16 0 -31 -7.5t-28 -19.5t-23.5 -26.5t-17.5 -28.5v-238h-60v380h60v-49q19 21 43.5 35t56.5 14q28 0 53.5 -12.5t40.5 -41.5q21 23 47.5 38.5t58.5 15.5q21 0 40.5 -6.5t35 -21t25 -37t9.5 -55.5v-260h-60v260q0 33 -15.5 46.5
t-34.5 13.5q-28 0 -51 -20.5t-39 -44.5v-255h-60v260z" />
    <glyph glyph-name="n" unicode="n" horiz-adv-x="380" 
d="M100 328q26 26 57 39t61 13q24 0 46.5 -8.5t39 -26t26.5 -43.5t10 -62v-240h-60v240q0 45 -17.5 62.5t-42.5 17.5q-20 0 -41.5 -8.5t-39 -22t-28.5 -30.5t-11 -34v-225h-60v380h60v-52z" />
    <glyph glyph-name="o" unicode="o" horiz-adv-x="420" 
d="M380 139q0 -45 -12.5 -72t-35.5 -42t-54.5 -20t-68.5 -5q-38 0 -69 5t-53 19.5t-34.5 42t-12.5 72.5v101q0 45 12.5 72.5t34.5 42.5t53 20t69 5q37 0 68.5 -5.5t54.5 -20.5t35.5 -42.5t12.5 -71.5v-101zM320 240q0 25 -8 41t-23 24.5t-35.5 11.5t-44.5 3t-44 -3
t-34.5 -11.5t-22.5 -24t-8 -41.5v-101q0 -26 8 -41.5t22.5 -23.5t34.5 -11t44 -3t44.5 3t35.5 11t23 23.5t8 41.5v101z" />
    <glyph glyph-name="p" unicode="p" horiz-adv-x="400" 
d="M200 380q78 0 119 -32t41 -108v-100q0 -76 -41 -108t-119 -32q-61 0 -100 27v-187h-60v540h60v-27q39 27 100 27zM200 320q-48 0 -74 -17t-26 -58v-115q0 -38 26.5 -54t73.5 -16q49 0 74.5 18t25.5 62v100q0 44 -25.5 62t-74.5 18z" />
    <glyph glyph-name="q" unicode="q" horiz-adv-x="400" 
d="M200 380q61 0 100 -27v27h60v-540h-60v187q-39 -27 -100 -27q-78 0 -119 32t-41 108v100q0 76 41 108t119 32zM200 320q-49 0 -74.5 -18t-25.5 -62v-100q0 -44 25.5 -62t74.5 -18q47 0 73.5 16t26.5 54v115q0 41 -26 58t-74 17z" />
    <glyph glyph-name="r" unicode="r" horiz-adv-x="240" 
d="M100 380v-66q20 29 55.5 47.5t84.5 18.5v-60q-63 0 -101.5 -29t-38.5 -85v-206h-60v380h60z" />
    <glyph glyph-name="s" unicode="s" horiz-adv-x="390" 
d="M103 93q6 -20 34 -30t60 -10q18 0 34.5 3t29.5 8.5t21 13.5t8 19q0 13 -18 24.5t-44.5 23t-57.5 25t-57.5 30.5t-44.5 39.5t-18 52.5q0 22 11.5 38.5t31 27.5t44 16.5t50.5 5.5q25 0 50 -6t45 -17.5t34 -29t17 -41.5q-14 -1 -23.5 -1.5t-16 -1t-11.5 -0.5h-11
q-5 23 -30.5 33.5t-54.5 10.5t-52.5 -9t-23.5 -26q0 -20 18 -35t44.5 -28t57.5 -25.5t57.5 -27.5t44.5 -34t18 -45q0 -24 -13 -42.5t-34.5 -30.5t-49 -18t-56.5 -6t-56 6t-49 17t-36 28t-16 40z" />
    <glyph glyph-name="t" unicode="t" horiz-adv-x="230" 
d="M100 520v-100h130v-60h-130v-220q0 -44 24 -62t57 -18q15 0 30 3l16 -57q-30 -6 -56 -6q-60 0 -95.5 33t-35.5 107v380h60z" />
    <glyph glyph-name="u" unicode="u" horiz-adv-x="380" 
d="M280 52q-26 -26 -57 -39t-61 -13q-24 0 -46.5 8.5t-39 26t-26.5 43.5t-10 62v240h60v-240q0 -45 17.5 -62.5t42.5 -17.5q20 0 41.5 8.5t39 22t28.5 30.5t11 34v225h60v-380h-60v52z" />
    <glyph glyph-name="v" unicode="v" horiz-adv-x="336" 
d="M129 0l-119 380h65l93 -302l93 302h65l-119 -380h-78z" />
    <glyph glyph-name="w" unicode="w" horiz-adv-x="480" 
d="M303 0l-63 273q-15 -68 -31.5 -137t-31.5 -136h-75l-92 380h63l66 -280l64 280h74l64 -280l66 280h63l-92 -380h-75z" />
    <glyph glyph-name="x" unicode="x" horiz-adv-x="362" 
d="M83 0h-73l134 190l-134 190h75l96 -141l96 141h75l-135 -190l135 -190h-73l-98 142z" />
    <glyph glyph-name="y" unicode="y" horiz-adv-x="380" 
d="M340 10q0 -49 -13.5 -82t-36 -52.5t-52 -27.5t-62.5 -8q-32 0 -64 6t-62 15l18 55q25 -6 51.5 -11t52.5 -5q22 0 41.5 5t34.5 17.5t23.5 33.5t8.5 54v47q-29 -25 -60 -38.5t-58 -13.5q-24 0 -46.5 8.5t-39 26t-26.5 43.5t-10 62v235h60v-235q0 -45 19.5 -62.5t47.5 -17.5
q19 0 39 7.5t36.5 20t27 27.5t10.5 30v230h60v-370z" />
    <glyph glyph-name="z" unicode="z" horiz-adv-x="350" 
d="M20 0l199 322h-192v58h303l-200 -322h187v-58h-297z" />
    <glyph glyph-name="braceleft" unicode="{" horiz-adv-x="340" 
d="M80 290q36 3 49 31.5t13 65.5q0 26 -4.5 53t-9.5 49q-6 26 -14 50l122 92l24 -56l-77 -59q8 -32 14.5 -65t6.5 -65q0 -33 -9.5 -65t-34.5 -61q25 -29 34.5 -61t9.5 -65q0 -32 -6.5 -65t-14.5 -65l77 -59l-24 -56l-122 92q8 24 14 50q5 22 9.5 49t4.5 53q0 37 -13 65.5
t-49 31.5v60z" />
    <glyph glyph-name="braceright" unicode="}" horiz-adv-x="340" 
d="M260 290q-36 3 -49 31.5t-13 65.5q0 26 4.5 53t9.5 49q6 26 14 50l-122 92l-24 -56l77 -59q-8 -32 -14.5 -65t-6.5 -65q0 -33 9.5 -65t34.5 -61q-25 -29 -34.5 -61t-9.5 -65q0 -32 6.5 -65t14.5 -65l-77 -59l24 -56l122 92q-8 24 -14 50q-5 22 -9.5 49t-4.5 53
q0 37 13 65.5t49 31.5v60z" />
    <glyph glyph-name="asciitilde" unicode="~" horiz-adv-x="540" 
d="M500 543q-28 -59 -61.5 -82t-72.5 -23q-26 0 -50 8t-47.5 18t-47 18t-49.5 8q-23 0 -42.5 -12.5t-33.5 -49.5l-56 20q23 60 58 81t74 21q25 0 50.5 -8t50 -18t48 -18t45.5 -8q21 0 41 15t39 55z" />
    <glyph glyph-name="copyright" unicode="&#xa9;" horiz-adv-x="548" 
d="M40 222q0 49 18.5 91.5t50 74t74 50t91.5 18.5t91.5 -18.5t74 -50t50 -74t18.5 -91.5t-18.5 -91.5t-50 -74t-74 -50t-91.5 -18.5t-91.5 18.5t-74 50t-50 74t-18.5 91.5zM84 222q0 -39 15 -74t40.5 -60.5t60.5 -40.5t74 -15t74 15t60.5 40.5t40.5 60.5t15 74t-15 74
t-40.5 60.5t-60.5 40.5t-74 15t-74 -15t-60.5 -40.5t-40.5 -60.5t-15 -74zM396 83h-49l-62 105h-59v-110h-44v284h127q36 0 61.5 -25.5t25.5 -61.5q0 -27 -17 -51.5t-46 -32.5zM309 232q17 0 30 13t13 30q0 18 -13 30.5t-30 12.5h-83v-86h83z" />
    <glyph glyph-name="guillemotleft" unicode="&#xab;" horiz-adv-x="537" 
d="M205 10l-125 188l124 182h73l-124 -183l124 -187h-72zM385 10l-125 188l124 182h73l-124 -183l124 -187h-72z" />
    <glyph glyph-name="registered" unicode="&#xae;" horiz-adv-x="548" 
d="M84 222q0 -39 15 -74t40.5 -60.5t60.5 -40.5t74 -15t74 15t60.5 40.5t40.5 60.5t15 74t-15 74t-40.5 60.5t-60.5 40.5t-74 15t-74 -15t-60.5 -40.5t-40.5 -60.5t-15 -74zM384 183q-11 -54 -37.5 -76.5t-67.5 -22.5q-50 0 -78.5 31t-28.5 108t28.5 108.5t78.5 31.5
q38 0 64 -21t39 -71h-45q-9 26 -23.5 37t-34.5 11q-30 0 -46.5 -21.5t-16.5 -74.5t16.5 -74t46.5 -21q21 0 36 13t23 42h46zM40 222q0 49 18.5 91.5t50 74t74 50t91.5 18.5t91.5 -18.5t74 -50t50 -74t18.5 -91.5t-18.5 -91.5t-50 -74t-74 -50t-91.5 -18.5t-91.5 18.5t-74 50
t-50 74t-18.5 91.5z" />
    <glyph glyph-name="degree" unicode="&#xb0;" horiz-adv-x="380" 
d="M100 480q0 38 26 64t64 26t64 -26t26 -64t-26 -64t-64 -26t-64 26t-26 64zM135 480q0 -24 15.5 -39.5t39.5 -15.5t39.5 15.5t15.5 39.5t-15.5 39.5t-39.5 15.5t-39.5 -15.5t-15.5 -39.5z" />
    <glyph glyph-name="paragraph" unicode="&#xb6;" horiz-adv-x="635" 
d="M261 0v230q-39 0 -69 14t-50.5 37.5t-31 52.5t-10.5 59q0 28 9.5 54.5t29 47t49 33t70.5 12.5h277v-56h-54v-484h-60v484h-100v-484h-60z" />
    <glyph glyph-name="periodcentered" unicode="&#xb7;" horiz-adv-x="238" 
d="M117 133q-29 0 -48 19t-19 54q0 29 19 49t48 20q31 0 51 -20t20 -49q0 -35 -20 -54t-51 -19z" />
    <glyph glyph-name="guillemotright" unicode="&#xbb;" horiz-adv-x="537" 
d="M332 10l125 188l-124 182h-73l124 -183l-124 -187h72zM152 10l125 188l-124 182h-73l124 -183l-124 -187h72z" />
    <glyph glyph-name="multiply" unicode="&#xd7;" horiz-adv-x="450" 
d="M225 272l103 103l42 -42l-103 -103l99 -99l-42 -42l-99 99l-103 -103l-42 42l103 103l-99 99l42 42z" />
    <glyph glyph-name="divide" unicode="&#xf7;" horiz-adv-x="550" 
d="M80 110v60h390v-60h-390zM246 32h72v-72h-72v72zM246 326h72v-72h-72v72z" />
    <glyph glyph-name="uni060C" unicode="&#x60c;" horiz-adv-x="281" 
d="M211 0q-73 4 -107 34.5t-34 75.5q0 42 27 90.5t77 95.5l21 -31q-35 -38 -53 -72t-18 -61q0 -30 21 -49t66 -23v-60z" />
    <glyph glyph-name="uni0615" unicode="&#x615;" 
d="M-65 30h15v106h28v-75l17 16q9 8 21 8h39q8 0 14 -6.5t6 -15.5v-63h-140v30zM-20 30h65v25h-35z" />
    <glyph glyph-name="uni061B" unicode="&#x61b;" horiz-adv-x="281" 
d="M130 64h64v-64h-64v64zM211 168q-73 4 -107 34.5t-34 75.5q0 42 27 90.5t77 95.5l21 -31q-35 -38 -53 -72t-18 -61q0 -30 21 -49t66 -23v-60z" />
    <glyph glyph-name="uni061F" unicode="&#x61f;" horiz-adv-x="460" 
d="M330 423q0 29 -27.5 43t-72.5 14t-72.5 -14t-27.5 -43v-93q0 -18 9.5 -29.5t24 -21t31.5 -18.5t31.5 -19.5t24 -25.5t9.5 -36v-60h-60v60q0 15 -9.5 24.5t-24 17t-31.5 15t-31.5 19t-24 29t-9.5 45.5v93q0 29 12.5 51t34 36.5t50.5 22t63 7.5t63 -7.5t50.5 -22t34 -36.5
t12.5 -51v-63h-60v63zM200 80h60v-80h-60v80z" />
    <glyph glyph-name="hmz" unicode="&#x621;" horiz-adv-x="380" 
d="M262 219q-17 9 -38.5 16t-39.5 7q-23 0 -33.5 -10.5t-10.5 -27.5q0 -26 23.5 -65t66.5 -79h90v-60h-260v60h87q-32 38 -49.5 76t-17.5 68q0 51 27 73.5t68 22.5q26 0 56 -9t59 -26z" />
    <glyph glyph-name="aalef" unicode="&#x627;" horiz-adv-x="220" 
d="M140 540v-540h-60v540h60z" />
    <glyph glyph-name="hah" unicode="&#x62d;" horiz-adv-x="480" 
d="M253 -270q-47 0 -82 14t-58 37t-34 52.5t-11 59.5q0 31 12 61t35 53.5t57 38t78 14.5h76q-30 22 -48 60q-12 25 -23 49.5t-23 44.5t-27.5 32.5t-36.5 12.5q-14 0 -31 -6.5t-39 -23.5l-28 48q26 19 49.5 31t52.5 12q37 0 61.5 -19.5t42.5 -48t32 -62.5t30.5 -62.5
t37.5 -48t54 -19.5v-60h-180q-30 0 -52.5 -9.5t-38 -24.5t-23.5 -34t-8 -39t8 -39t24.5 -34t41.5 -24t59 -9q37 0 69 9v-57q-42 -9 -77 -9z" />
    <glyph glyph-name="dal" unicode="&#x62f;" horiz-adv-x="410" 
d="M270 220q0 26 -24.5 38t-59.5 12q-23 0 -47.5 -5t-46.5 -15l-12 57q51 23 109 23q28 0 53.5 -6.5t45 -20t31 -34t11.5 -49.5v-220h-280v60h220v160z" />
    <glyph glyph-name="reh" unicode="&#x631;" horiz-adv-x="240" 
d="M100 320h60v-330q0 -76 -35 -113t-97 -37q-53 0 -118 25q7 15 11 26q4 10 7 18.5t4 8.5q48 -17 87 -17q36 0 58.5 19.5t22.5 69.5v330z" />
    <glyph glyph-name="seen" unicode="&#x633;" horiz-adv-x="940" 
d="M810 320h60v-240q0 -33 -23.5 -56.5t-56.5 -23.5h-340v-60q0 -33 -23.5 -56.5t-56.5 -23.5h-120q-37 0 -70 14t-57.5 38.5t-38.5 57.5t-14 70v130h60v-130q0 -25 9.5 -46.5t26 -38t38 -26t46.5 -9.5h120q8 0 14 6t6 14v380h60v-260h150v260h60v-260h130q8 0 14 6t6 14
v240z" />
    <glyph glyph-name="sad" unicode="&#x635;" horiz-adv-x="920" 
d="M430 156l76 62q40 33 70.5 53t54 31t42.5 14.5t37 3.5q29 0 54.5 -11t44.5 -30t30 -44.5t11 -54.5v-100q0 -33 -23.5 -56.5t-56.5 -23.5h-340v-60q0 -33 -23.5 -56.5t-56.5 -23.5h-100q-37 0 -70 14t-57.5 38.5t-38.5 57.5t-14 70v130h60v-130q0 -25 9.5 -46.5t26 -38
t38 -26t46.5 -9.5h100q8 0 14 6t6 14v370h60v-154zM430 82v-22h340q8 0 14 6t6 14v100q0 33 -23.5 56.5t-56.5 23.5q-13 0 -26 -2t-31.5 -10.5t-45 -26.5t-66.5 -50z" />
    <glyph glyph-name="tah" unicode="&#x637;" horiz-adv-x="700" 
d="M80 0q-13 0 -21.5 8.5t-8.5 21.5t8.5 21.5t21.5 8.5h70v480h60v-384l76 62q40 33 70.5 53t54 31t42.5 14.5t37 3.5q29 0 54.5 -11t44.5 -30t30 -44.5t11 -54.5v-100q0 -33 -23.5 -56.5t-56.5 -23.5h-470zM210 82v-22h340q8 0 14 6t6 14v100q0 33 -23.5 56.5t-56.5 23.5
q-13 0 -26 -2t-31.5 -10.5t-45 -26.5t-66.5 -50z" />
    <glyph glyph-name="ain" unicode="&#x639;" horiz-adv-x="450" 
d="M380 60v-60h-130q-30 0 -52.5 -9.5t-38 -24.5t-23.5 -34t-8 -39t8 -39t24.5 -34t41.5 -24t59 -9q37 0 69 9v-57q-42 -9 -77 -9q-46 0 -80.5 14t-58 36.5t-35 51.5t-11.5 60q0 46 25 88t78 67q-40 29 -60.5 68t-20.5 77q0 29 11.5 53t31.5 40.5t46.5 25.5t55.5 9
q32 0 65.5 -11.5t64.5 -37.5l-15 -52q-24 18 -56 29.5t-61 11.5q-43 0 -63 -20t-20 -49q0 -20 9 -42t26 -40.5t41 -32t54 -16.5h100z" />
    <glyph glyph-name="tatweel" unicode="&#x640;" horiz-adv-x="200" 
d="M-30 30q0 13 8.5 21.5t21.5 8.5h200v-60h-200q-13 0 -21.5 8.5t-8.5 21.5z" />
    <glyph glyph-name="kaf" unicode="&#x643;" horiz-adv-x="670" 
d="M540 540h60v-460q0 -33 -23.5 -56.5t-56.5 -23.5h-370q-33 0 -56.5 23.5t-23.5 56.5v210h60v-210q0 -8 6 -14t14 -6h370q8 0 14 6t6 14v460zM262 417l119 113l29 -28l-88 -85q16 -3 31 -9t26.5 -16t18.5 -25.5t7 -36.5v-75h-180v40h140v35q0 18 -9 28.5t-23 16t-30.5 7
t-31.5 1.5z" />
    <glyph glyph-name="lam" unicode="&#x644;" horiz-adv-x="520" 
d="M450 -20q0 -33 -23.5 -56.5t-56.5 -23.5h-120q-37 0 -70 14t-57.5 38.5t-38.5 57.5t-14 70v130h60v-130q0 -25 9.5 -46.5t26 -38t38 -26t46.5 -9.5h120q8 0 14 6t6 14v560h60v-560z" />
    <glyph glyph-name="meem" unicode="&#x645;" horiz-adv-x="440" 
d="M130 0v-140h-60v295q0 39 13 66.5t34.5 45t49.5 25.5t59 8q38 0 75.5 -11.5t68.5 -31.5v-257h-240zM310 60v162q-39 18 -84 18q-19 0 -36 -5t-30.5 -15t-21.5 -26.5t-8 -38.5v-95h180z" />
    <glyph glyph-name="heh2" unicode="&#x647;" horiz-adv-x="660" 
d="M290 240q-21 0 -37.5 -8.5t-28.5 -22.5t-18 -31.5t-6 -35.5q0 -32 21.5 -57t68.5 -25h60v160q0 8 -6 14t-14 6h-40zM330 300q33 0 56.5 -23.5t23.5 -56.5v-160h120v160q0 66 -30.5 93t-77.5 27q-18 0 -41 -2.5t-43 -8.5l-12 51q62 20 110 20q69 0 111.5 -43t42.5 -137
v-220h-510q-13 0 -21.5 8.5t-8.5 21.5t8.5 21.5t21.5 8.5h83q-12 18 -17.5 38.5t-5.5 43.5q0 28 10.5 56.5t30 51t47 36.5t62.5 14h40z" />
    <glyph glyph-name="waw" unicode="&#x648;" horiz-adv-x="440" 
d="M310 0h-140q-42 0 -71 29t-29 71v50q0 44 12 76t33 53t49 31t60 10q36 0 73.5 -12.5t72.5 -37.5v-280q0 -42 -11 -71t-30.5 -46.5t-45.5 -25t-56 -7.5q-35 0 -72.5 8.5t-74.5 21.5q5 14 9 25q4 10 6.5 18t3.5 8q24 -8 55.5 -16t61.5 -8q19 0 36 4.5t30 15t20.5 28.5
t7.5 45v10zM310 60v177q-43 23 -86 23q-38 0 -66 -26.5t-28 -83.5v-50q0 -17 11.5 -28.5t28.5 -11.5h140z" />
    <glyph glyph-name="maksura" unicode="&#x649;" horiz-adv-x="670" 
d="M576 272q-59 18 -92 18q-43 0 -68.5 -28.5t-25.5 -91.5v-50h160q21 0 35.5 -14.5t14.5 -35.5v-50q0 -38 -14 -70.5t-38.5 -57t-57.5 -38.5t-70 -14h-170q-38 0 -70.5 14t-57 38.5t-38.5 57t-14 70.5v120h60v-120q0 -25 9.5 -46.5t26 -38t38 -26t46.5 -9.5h170
q25 0 46.5 9.5t38 26t26 38t9.5 46.5v40h-160q-21 0 -35.5 14.5t-14.5 35.5v60q0 94 42 137t112 43q46 0 111 -20z" />
    <glyph glyph-name="uni064B" unicode="&#x64b;" 
d="M-89 46l177 28v-28l-177 -29v29zM-89 103l177 29v-29l-177 -28v28z" />
    <glyph glyph-name="uni064C" unicode="&#x64c;" 
d="M-11 37q36 20 54 46q-2 0 -4.5 -0.5t-4.5 -0.5q-23 0 -40.5 14t-17.5 42q0 27 18.5 40.5t36.5 13.5q25 0 40.5 -17t15.5 -40q0 -11 -4.5 -26t-14.5 -32t-26.5 -34t-40.5 -30zM-44 47q-22 20 -31.5 42.5t-9.5 46.5q0 40 23 72l24 -16q-18 -27 -18 -54q0 -20 9 -39t29 -34z
M60 115q3 10 3 19q0 13 -9 22t-22 9q-8 0 -18 -6.5t-10 -20.5q0 -15 10.5 -21t23.5 -6t22 4z" />
    <glyph glyph-name="uni064D" unicode="&#x64d;" 
d="M-88 -86l177 28v-28l-177 -29v29zM-88 -29l177 29v-29l-177 -28v28z" />
    <glyph glyph-name="uni064E" unicode="&#x64e;" 
d="M-89 32l177 28v-28l-177 -28v28z" />
    <glyph glyph-name="uni064F" unicode="&#x64f;" 
d="M-47 23q21 12 35 24.5t23 24.5q-2 0 -4.5 -0.5t-4.5 -0.5q-24 0 -42.5 14.5t-18.5 42.5q0 29 19 43.5t39 14.5q26 0 42.5 -18t16.5 -43q0 -11 -4.5 -26.5t-15.5 -33.5t-28.5 -35.5t-42.5 -31.5zM30 128q0 13 -8.5 21.5t-21.5 8.5t-21.5 -8.5t-8.5 -21.5t8.5 -21.5
t21.5 -8.5t21.5 8.5t8.5 21.5z" />
    <glyph glyph-name="uni0650" unicode="&#x650;" 
d="M-74 -24l147 24v-28l-147 -24v28z" />
    <glyph glyph-name="uni0651" unicode="&#x651;" 
d="M15 104q-1 -5 -1 -8v-8q0 -21 7.5 -31.5t13.5 -10.5t10.5 8t4.5 29q0 5 -0.5 11.5t-1.5 13.5l29 5q1 -5 1.5 -11.5t0.5 -14.5q0 -12 -2 -25t-7 -23.5t-13.5 -17t-21.5 -6.5q-8 0 -17 5t-14 13q-6 -13 -16 -20t-20 -7q-17 0 -31.5 13.5t-14.5 43.5q0 11 3 25l30 5
q-3 -15 -3 -26q0 -32 16 -32q7 0 14 10.5t7 30.5v11q0 5 -2 12z" />
    <glyph glyph-name="uni0652" unicode="&#x652;" 
d="M-64 64q0 26 19 44.5t45 18.5t44.5 -18.5t18.5 -44.5t-18.5 -45t-44.5 -19t-45 19t-19 45zM-34 64q0 -14 10 -24t24 -10t24 10t10 24t-10 24t-24 10t-24 -10t-10 -24z" />
    <glyph glyph-name="uni0653" unicode="&#x653;" 
d="M74 24q-12 -9 -22.5 -12.5t-19.5 -3.5q-17 0 -31 6.5t-31 6.5q-10 0 -21 -4.5t-25 -16.5v36q14 12 25 16.5t21 4.5q17 0 31 -6.5t31 -6.5q9 0 19.5 3.5t22.5 12.5v-36z" />
    <glyph glyph-name="uni0654" unicode="&#x654;" 
d="M38 85q-7 5 -18 9t-21 4q-22 0 -22 -16q0 -11 13 -25t35 -21h35v-36h-120v36h29q-26 24 -26 52q0 17 13 29.5t36 12.5q14 0 31 -5.5t31 -13.5z" />
    <glyph glyph-name="uni0655" unicode="&#x655;" 
d="M38 -80q-7 5 -18 9t-21 4q-22 0 -22 -16q0 -11 13 -25t35 -21h35v-36h-120v36h29q-26 24 -26 52q0 17 13 29.5t36 12.5q14 0 31 -5.5t31 -13.5z" />
    <glyph glyph-name="uni0656" unicode="&#x656;" 
d="M-4 -39q11 -29 16.5 -67t5.5 -72v-16q0 -7 -1 -14l-23 -9q0 36 -7.5 71t-21.5 65z" />
    <glyph glyph-name="uni0657" unicode="&#x657;" 
d="M46 163q-21 -12 -35 -24.5t-23 -24.5q2 0 4.5 0.5t4.5 0.5q24 0 42.5 -14.5t18.5 -42.5q0 -29 -19 -43.5t-39 -14.5q-26 0 -42.5 18t-16.5 43q0 10 4.5 26t15.5 34t28 35.5t43 31.5zM-31 58q0 -13 8.5 -21.5t21.5 -8.5t21.5 8.5t8.5 21.5t-8.5 21.5t-21.5 8.5t-21.5 -8.5
t-8.5 -21.5z" />
    <glyph glyph-name="uni0658" unicode="&#x658;" 
d="M-41 93q2 -31 15.5 -46.5t28.5 -15.5q14 0 24.5 13.5t10.5 40.5v8q0 4 -1 9l33 8q1 -5 1 -10v-11q0 -43 -22.5 -66t-49.5 -23q-25 0 -46.5 21.5t-23.5 68.5z" />
    <glyph glyph-name="uni0660" unicode="&#x660;" horiz-adv-x="321" 
d="M90 213l70 71l71 -71l-71 -70z" />
    <glyph glyph-name="uni0661" unicode="&#x661;" horiz-adv-x="240" 
d="M150 520v-520h-60v520h60z" />
    <glyph glyph-name="uni0662" unicode="&#x662;" horiz-adv-x="460" 
d="M365 424q-12 7 -28 14t-33 11.5t-34 7.5t-30 3q-43 0 -66.5 -24t-23.5 -59q0 -7 1 -13.5t3 -12.5l101 -351h-63l-96 334q-6 22 -6 43q0 30 10 56t29.5 45.5t47 30.5t63.5 11q33 0 66 -8.5t64 -25.5z" />
    <glyph glyph-name="uni0663" unicode="&#x663;" horiz-adv-x="680" 
d="M150 300q19 -7 45 -13.5t50 -6.5q26 0 45.5 10.5t19.5 39.5v190h60v-191q22 -16 53.5 -27.5t56.5 -11.5q21 0 35.5 9t14.5 31v190h60v-190q0 -55 -31 -77.5t-75 -22.5q-32 0 -67 11t-63 28q-17 -26 -45 -37.5t-60 -11.5q-25 0 -50.5 4.5t-48.5 12.5v-237h-60v520h60v-220
z" />
    <glyph glyph-name="uni0664" unicode="&#x664;" horiz-adv-x="439" 
d="M90 139q0 33 15 66t46 56q-18 12 -30 27.5t-18.5 31.5t-9.5 31t-3 27q0 42 15.5 69t40.5 43.5t56.5 23t63.5 6.5q17 0 34 -1.5t32 -4.5l-7 -60q-13 2 -28 4t-31 2q-21 0 -42 -4t-37.5 -13t-26.5 -25t-10 -40q0 -11 5 -26.5t18.5 -29.5t36.5 -23.5t60 -9.5q17 0 40 3
l-3 -59q-21 3 -39 3q-29 0 -51 -8.5t-37 -22.5t-22.5 -31t-7.5 -35q0 -31 23.5 -55t71.5 -24q22 0 47 4.5t44 9.5l13 -59q-22 -6 -50 -10.5t-54 -4.5q-39 0 -68 11.5t-48.5 31t-29 44.5t-9.5 52z" />
    <glyph glyph-name="uni0665" unicode="&#x665;" horiz-adv-x="540" 
d="M440 305q4 -53 6 -83l3 -45q1 -15 1 -20v-8q0 -38 -15 -63t-40 -39.5t-58 -20.5t-68 -6t-67.5 6t-57.5 20.5t-39.5 39.5t-14.5 63v6q0 4 1 19l3 45q2 30 6 86q6 91 50 132.5t119 41.5t120 -42t51 -132zM380 301q-4 61 -33 89.5t-78 28.5q-48 0 -76 -28.5t-33 -89.5
q-2 -18 -3.5 -42.5t-3 -47.5t-2.5 -40.5t-1 -21.5q0 -21 10 -34t26.5 -21t38 -11t44.5 -3q24 0 45.5 3t38.5 11t27 21t10 34v7q0 5 -1 20l-3 43q-2 29 -6 82z" />
    <glyph glyph-name="uni0666" unicode="&#x666;" horiz-adv-x="460" 
d="M310 460h-220v60h280v-520h-60v460z" />
    <glyph glyph-name="uni0667" unicode="&#x667;" horiz-adv-x="565" 
d="M242 0l-152 520h63l131 -442q15 52 31 108.5t32.5 113.5t33 112.5t31.5 107.5h63l-150 -520h-83z" />
    <glyph glyph-name="uni0668" unicode="&#x668;" horiz-adv-x="565" 
d="M325 520l150 -520h-63l-128 442l-131 -442h-63l152 520h83z" />
    <glyph glyph-name="uni0669" unicode="&#x669;" horiz-adv-x="510" 
d="M90 390q0 28 10 51.5t27.5 41t41 27.5t51.5 10h200v-520h-60v190h-140q-28 0 -51.5 10t-41 27.5t-27.5 41t-10 51.5v70zM150 320q0 -30 20 -50t50 -20h140v210h-140q-30 0 -50 -20t-20 -50v-70z" />
    <glyph glyph-name="uni066A" unicode="&#x66a;" horiz-adv-x="599" 
d="M146 0l207 520h64l-207 -520h-64zM108 483h72v-72h-72v72zM399 72h72v-72h-72v72z" />
    <glyph glyph-name="uni066B" unicode="&#x66b;" horiz-adv-x="266" 
d="M95 101q55 -28 78 -61t23 -68q0 -44 -28.5 -90.5t-69.5 -88.5l-17 35q23 24 42 58t19 67q0 24 -16 47t-56 41z" />
    <glyph glyph-name="uni066C" unicode="&#x66c;" horiz-adv-x="281" 
d="M211 0q-73 4 -107 34.5t-34 75.5q0 42 27 90.5t77 95.5l21 -31q-35 -38 -53 -72t-18 -61q0 -30 21 -49t66 -23v-60z" />
    <glyph glyph-name="uni066D" unicode="&#x66d;" horiz-adv-x="517" 
d="M447 284l-108 -84l36 -131l-5 -3l-113 75l-112 -75l-6 3l38 131l-107 84l2 7l136 6l47 128h6l48 -128l136 -6z" />
    <glyph glyph-name="behc" unicode="&#x66e;" horiz-adv-x="770" 
d="M640 320h60v-240q0 -33 -23.5 -56.5t-56.5 -23.5h-470q-33 0 -56.5 23.5t-23.5 56.5v240h60v-240q0 -8 6 -14t14 -6h470q8 0 14 6t6 14v240z" />
    <glyph glyph-name="qafc" unicode="&#x66f;" horiz-adv-x="640" 
d="M250 -140q-37 0 -70 14t-57.5 38.5t-38.5 57.5t-14 70v130h60v-130q0 -25 9.5 -46.5t26 -38t38 -26t46.5 -9.5h140q25 0 46.5 9.5t38 26t26 38t9.5 46.5h-140q-42 0 -71 29t-29 71v50q0 44 12 76t33 53t49 31t60 10q36 0 73.5 -12.5t72.5 -37.5v-270q0 -37 -14 -70
t-38.5 -57.5t-57.5 -38.5t-70 -14h-140zM510 100v177q-43 23 -86 23q-38 0 -66 -26.5t-28 -83.5v-50q0 -17 11.5 -28.5t28.5 -11.5h140z" />
    <glyph glyph-name="uni0670" unicode="&#x670;" 
d="M0 173q11 -29 16.5 -67t5.5 -72v-16q0 -7 -1 -14l-23 -9q0 36 -7.5 71t-21.5 65z" />
    <glyph glyph-name="uni0674" unicode="&#x674;" horiz-adv-x="214" 
d="M145 644q-7 5 -18 9t-21 4q-22 0 -22 -16q0 -11 13 -25t35 -21h35v-36h-120v36h29q-26 24 -26 52q0 17 13 29.5t36 12.5q14 0 31 -5.5t31 -13.5z" />
    <glyph glyph-name="uni069C" unicode="&#x69c;" horiz-adv-x="940" 
d="M810 320h60v-240q0 -33 -23.5 -56.5t-56.5 -23.5h-340v-60q0 -33 -23.5 -56.5t-56.5 -23.5h-120q-37 0 -70 14t-57.5 38.5t-38.5 57.5t-14 70v130h60v-130q0 -25 9.5 -46.5t26 -38t38 -26t46.5 -9.5h120q8 0 14 6t6 14v380h60v-260h150v260h60v-260h130q8 0 14 6t6 14
v240zM603 572l49 -50l-42 -42l-50 49zM548 472l49 -50l-42 -42l-50 49zM668 472l49 -50l-42 -42l-50 49zM661 -138l49 -50l-42 -42l-50 49zM596 -48l49 -50l-42 -42l-50 49zM716 -48l49 -50l-42 -42l-50 49z" />
    <glyph glyph-name="fehc" unicode="&#x6a1;" horiz-adv-x="850" 
d="M544 60q-35 30 -54.5 70t-19.5 78q0 46 31 79t99 33h100q33 0 56.5 -23.5t23.5 -56.5v-240h-630q-33 0 -56.5 23.5t-23.5 56.5v240h60v-240q0 -8 6 -14t14 -6h394zM530 203q0 -22 12 -47t32.5 -46.5t48 -35.5t57.5 -14h40v180q0 8 -6 14t-14 6h-100q-38 0 -54 -16.5
t-16 -40.5z" />
    <glyph glyph-name="uni06A2" unicode="&#x6a2;" horiz-adv-x="850" 
d="M544 60q-35 30 -54.5 70t-19.5 78q0 46 31 79t99 33h100q33 0 56.5 -23.5t23.5 -56.5v-240h-630q-33 0 -56.5 23.5t-23.5 56.5v240h60v-240q0 -8 6 -14t14 -6h394zM530 203q0 -22 12 -47t32.5 -46.5t48 -35.5t57.5 -14h40v180q0 8 -6 14t-14 6h-100q-38 0 -54 -16.5
t-16 -40.5zM623 -58l49 -50l-42 -42l-50 49z" />
    <glyph glyph-name="uni06A5" unicode="&#x6a5;" horiz-adv-x="850" 
d="M544 60q-35 30 -54.5 70t-19.5 78q0 46 31 79t99 33h100q33 0 56.5 -23.5t23.5 -56.5v-240h-630q-33 0 -56.5 23.5t-23.5 56.5v240h60v-240q0 -8 6 -14t14 -6h394zM530 203q0 -22 12 -47t32.5 -46.5t48 -35.5t57.5 -14h40v180q0 8 -6 14t-14 6h-100q-38 0 -54 -16.5
t-16 -40.5zM633 -138l49 -50l-42 -42l-50 49zM568 -48l49 -50l-42 -42l-50 49zM688 -48l49 -50l-42 -42l-50 49z" />
    <glyph glyph-name="uni06A7" unicode="&#x6a7;" horiz-adv-x="640" 
d="M250 -140q-37 0 -70 14t-57.5 38.5t-38.5 57.5t-14 70v130h60v-130q0 -25 9.5 -46.5t26 -38t38 -26t46.5 -9.5h140q25 0 46.5 9.5t38 26t26 38t9.5 46.5h-140q-42 0 -71 29t-29 71v50q0 44 12 76t33 53t49 31t60 10q36 0 73.5 -12.5t72.5 -37.5v-270q0 -37 -14 -70
t-38.5 -57.5t-57.5 -38.5t-70 -14h-140zM510 100v177q-43 23 -86 23q-38 0 -66 -26.5t-28 -83.5v-50q0 -17 11.5 -28.5t28.5 -11.5h140zM413 522l49 -50l-42 -42l-50 49z" />
    <glyph glyph-name="uni06A8" unicode="&#x6a8;" horiz-adv-x="640" 
d="M250 -140q-37 0 -70 14t-57.5 38.5t-38.5 57.5t-14 70v130h60v-130q0 -25 9.5 -46.5t26 -38t38 -26t46.5 -9.5h140q25 0 46.5 9.5t38 26t26 38t9.5 46.5h-140q-42 0 -71 29t-29 71v50q0 44 12 76t33 53t49 31t60 10q36 0 73.5 -12.5t72.5 -37.5v-270q0 -37 -14 -70
t-38.5 -57.5t-57.5 -38.5t-70 -14h-140zM510 100v177q-43 23 -86 23q-38 0 -66 -26.5t-28 -83.5v-50q0 -17 11.5 -28.5t28.5 -11.5h140zM413 622l49 -50l-42 -42l-50 49zM358 522l49 -50l-42 -42l-50 49zM478 522l49 -50l-42 -42l-50 49z" />
    <glyph glyph-name="noonc" unicode="&#x6ba;" horiz-adv-x="520" 
d="M450 -20q0 -33 -23.5 -56.5t-56.5 -23.5h-120q-37 0 -70 14t-57.5 38.5t-38.5 57.5t-14 70v140h60v-140q0 -25 9.5 -46.5t26 -38t38 -26t46.5 -9.5h120q8 0 14 6t6 14v340h60v-340z" />
    <glyph glyph-name="uni06C2" unicode="&#x6c2;" horiz-adv-x="440" 
d="M70 0v175q0 39 13 66.5t34.5 45t49.5 25.5t59 8q38 0 75.5 -11.5t68.5 -31.5v-277h-300zM310 60v182q-39 18 -84 18q-19 0 -36 -5t-30.5 -15t-21.5 -26.5t-8 -38.5v-115h180zM258 485q-7 5 -18 9t-21 4q-22 0 -22 -16q0 -11 13 -25t35 -21h35v-36h-120v36h29
q-26 24 -26 52q0 17 13 29.5t36 12.5q14 0 31 -5.5t31 -13.5z" />
    <glyph glyph-name="uni06C3" unicode="&#x6c3;" horiz-adv-x="440" 
d="M70 0v175q0 39 13 66.5t34.5 45t49.5 25.5t59 8q38 0 75.5 -11.5t68.5 -31.5v-277h-300zM310 60v182q-39 18 -84 18q-19 0 -36 -5t-30.5 -15t-21.5 -26.5t-8 -38.5v-115h180zM158 492l49 -50l-42 -42l-50 49zM278 492l49 -50l-42 -42l-50 49z" />
    <glyph glyph-name="uni06D4" unicode="&#x6d4;" horiz-adv-x="490" 
d="M70 80h350v-60h-350v60z" />
    <glyph glyph-name="uni06D5" unicode="&#x6d5;" horiz-adv-x="440" 
d="M70 0v175q0 39 13 66.5t34.5 45t49.5 25.5t59 8q38 0 75.5 -11.5t68.5 -31.5v-277h-300zM310 60v182q-39 18 -84 18q-19 0 -36 -5t-30.5 -15t-21.5 -26.5t-8 -38.5v-115h180z" />
    <glyph glyph-name="uni06F0" unicode="&#x6f0;" horiz-adv-x="321" 
d="M90 213l70 71l71 -71l-71 -70z" />
    <glyph glyph-name="uni06F1" unicode="&#x6f1;" horiz-adv-x="240" 
d="M150 520v-520h-60v520h60z" />
    <glyph glyph-name="uni06F2" unicode="&#x6f2;" horiz-adv-x="460" 
d="M365 424q-12 7 -28 14t-33 11.5t-34 7.5t-30 3q-43 0 -66.5 -24t-23.5 -59q0 -7 1 -13.5t3 -12.5l101 -351h-63l-96 334q-6 22 -6 43q0 30 10 56t29.5 45.5t47 30.5t63.5 11q33 0 66 -8.5t64 -25.5z" />
    <glyph glyph-name="uni06F3" unicode="&#x6f3;" horiz-adv-x="680" 
d="M150 300q19 -7 45 -13.5t50 -6.5q26 0 45.5 10.5t19.5 39.5v190h60v-191q22 -16 53.5 -27.5t56.5 -11.5q21 0 35.5 9t14.5 31v190h60v-190q0 -55 -31 -77.5t-75 -22.5q-32 0 -67 11t-63 28q-17 -26 -45 -37.5t-60 -11.5q-25 0 -50.5 4.5t-48.5 12.5v-237h-60v520h60v-220
z" />
    <glyph glyph-name="uni06F4" unicode="&#x6f4;" horiz-adv-x="680" 
d="M170 260h155q-17 20 -26 45.5t-9 54.5q0 37 12.5 66.5t34 50.5t50.5 32t62 11q56 0 111 -31l-25 -47q-17 8 -36.5 13t-39.5 5q-21 0 -40.5 -5.5t-35 -17.5t-24.5 -31t-9 -46q0 -20 7.5 -38.5t20.5 -32t30.5 -21.5t37.5 -8h114v-60h-390v-200h-60v520h60v-260z" />
    <glyph glyph-name="uni06F5" unicode="&#x6f5;" horiz-adv-x="690" 
d="M387 520q63 0 101 -39t49 -101q16 -86 24.5 -136t12.5 -76.5t5 -35t1 -11.5q0 -30 -9.5 -53t-25 -38t-36.5 -22.5t-44 -7.5q-31 0 -62.5 12.5t-57.5 37.5q-24 -25 -53.5 -37.5t-58.5 -12.5q-24 0 -46.5 8t-39.5 23.5t-27 38t-10 51.5q0 3 1 11.5t5 35t12.5 76.5t24.5 136
q11 62 49 101t101 39h84zM303 460q-36 0 -59.5 -26.5t-31.5 -64.5q-15 -75 -23.5 -122.5t-12.5 -74.5t-5 -37.5t-1 -13.5q0 -29 19 -45t44 -16q14 0 35 6.5t50 33.5q3 3 10 6.5t16 3.5q12 0 25 -10q30 -25 54.5 -32.5t41.5 -7.5q23 0 39 15t16 46q0 3 -1 13.5t-5 37.5
t-12.5 74.5t-23.5 122.5q-8 38 -31.5 64.5t-59.5 26.5h-84z" />
    <glyph glyph-name="uni06F6" unicode="&#x6f6;" horiz-adv-x="520" 
d="M170 0h-60v125q0 41 24 78t72 55q-38 26 -57 61.5t-19 72.5q0 25 9.5 48.5t28 41t47 28t67.5 10.5q33 0 65.5 -7.5t57.5 -21.5l-25 -52q-20 9 -45.5 15t-51.5 6q-37 0 -65 -16t-28 -57q0 -21 10 -42t27.5 -37.5t41 -27t51.5 -10.5h100v-60h-140q-55 0 -82.5 -25
t-27.5 -60v-125z" />
    <glyph glyph-name="uni06F7" unicode="&#x6f7;" horiz-adv-x="565" 
d="M242 0l-152 520h63l131 -442q15 52 31 108.5t32.5 113.5t33 112.5t31.5 107.5h63l-150 -520h-83z" />
    <glyph glyph-name="uni06F8" unicode="&#x6f8;" horiz-adv-x="565" 
d="M325 520l150 -520h-63l-128 442l-131 -442h-63l152 520h83z" />
    <glyph glyph-name="uni06F9" unicode="&#x6f9;" horiz-adv-x="510" 
d="M90 390q0 28 10 51.5t27.5 41t41 27.5t51.5 10h200v-520h-60v190h-140q-28 0 -51.5 10t-41 27.5t-27.5 41t-10 51.5v70zM150 320q0 -30 20 -50t50 -20h140v210h-140q-30 0 -50 -20t-20 -50v-70z" />
    <glyph glyph-name="uni0763" unicode="&#x763;" horiz-adv-x="712" 
d="M465 311q33 -4 64.5 -14t56 -29.5t39.5 -50.5t15 -77v-140h-490q-34 0 -57 23t-23 57v210h60v-210q0 -8 6 -14t14 -6h430v80q0 38 -18 61t-46 35t-62 16t-65 4l-13 54l224 216l42 -42zM303 510l49 -50l-42 -42l-50 49zM238 600l49 -50l-42 -42l-50 49zM358 600l49 -50
l-42 -42l-50 49z" />
    <glyph glyph-name="uni200C" unicode="&#x200c;" horiz-adv-x="40" 
d="M40 -508h-40v1292h40v-1292z" />
    <glyph glyph-name="uni200D" unicode="&#x200d;" horiz-adv-x="40" 
d="M-58 791l78 -78l78 78l28 -28l-78 -78l78 -78l-28 -28l-58 58v-1147h-40v1147l-58 -58l-28 28l78 78l-78 78z" />
    <glyph glyph-name="uni200E" unicode="&#x200e;" horiz-adv-x="40" 
d="M85 593l67 67h-112v-1178h-40v1218h153l-68 68l28 28l115 -116l-115 -115z" />
    <glyph glyph-name="uni200F" unicode="&#x200f;" horiz-adv-x="20" 
d="M-73 565l-115 115l115 116l28 -28l-68 -68h153v-1218h-40v1178h-112l67 -67z" />
    <glyph glyph-name="endash" unicode="&#x2013;" horiz-adv-x="550" 
d="M80 110v60h390v-60h-390z" />
    <glyph glyph-name="emdash" unicode="&#x2014;" horiz-adv-x="820" 
d="M80 110v60h660v-60h-660z" />
    <glyph glyph-name="quoteleft" unicode="&#x2018;" horiz-adv-x="326" 
d="M166 470h-66l60 170h66z" />
    <glyph glyph-name="quoteright" unicode="&#x2019;" horiz-adv-x="324" 
d="M158 470h66l-60 170h-66z" />
    <glyph glyph-name="quotedblleft" unicode="&#x201c;" horiz-adv-x="440" 
d="M166 470h-66l60 170h66zM280 470h-66l60 170h66z" />
    <glyph glyph-name="quotedblright" unicode="&#x201d;" horiz-adv-x="440" 
d="M160 470h66l-60 170h-66zM274 470h66l-60 170h-66z" />
    <glyph glyph-name="abdofonts.com" unicode="&#x2020;" horiz-adv-x="592" 
d="M108 365h-21v-47h-37v146h95v-146h-37v47zM490 -40h-37v87h-21v-87h-37v87h-21v-87h-37v106h153v-106zM165 464h37v-40h58v-106h-95v146zM375 318h-95v106h58v40h37v-146zM490 318h-95v106h95v-106zM235 117h-95v106h95v-106zM317 -40h-95v106h95v-106zM350 117h-37v87
h-21v-87h-37v106h95v-106zM107 66h95v-34h-37v15h-21v-68h21v15h37v-34h-95v106zM484 204v-24h58v-63h-95v19h58v25h-58v62h95v-19h-58zM87 164v-47h-37v146h75v-19h-38v-61h38v-19h-38zM407 204v-87h-37v146h37v-40h25v-19h-25zM317 337h21v68h-21v-68zM177 136h21v68h-21
v-68zM202 337h21v68h-21v-68zM259 -21h21v68h-21v-68zM432 337h21v68h-21v-68zM87 384h21v61h-21v-61zM87 -40h-37v29h37v-29z" />
    <glyph glyph-name="bullet" unicode="&#x2022;" horiz-adv-x="344" 
d="M172 318q25 0 47.5 -9.5t39 -26t26 -39.5t9.5 -50t-9.5 -50t-26 -40t-39 -26.5t-47.5 -9.5t-47 9.5t-38.5 26.5t-26.5 40t-10 50t10 50t26.5 39.5t38.5 26t47 9.5z" />
    <glyph glyph-name="uni2026" unicode="&#x2026;" horiz-adv-x="580" 
d="M70 80h80v-80h-80v80zM250 80h80v-80h-80v80zM430 80h80v-80h-80v80z" />
    <glyph glyph-name="guilsinglleft" unicode="&#x2039;" horiz-adv-x="357" 
d="M205 10l-125 188l124 182h73l-124 -183l124 -187h-72z" />
    <glyph glyph-name="guilsinglright" unicode="&#x203a;" horiz-adv-x="357" 
d="M152 10l125 188l-124 182h-73l124 -183l-124 -187h72z" />
    <glyph glyph-name="trademark" unicode="&#x2122;" horiz-adv-x="620" 
d="M354 447l81 -195q20 48 40.5 97.5t40.5 97.5h61v-284h-54v166l-67 -166h-41l-68 164v-164h-54v284h61zM43 393v54h234v-54h-90v-230h-54v230h-90z" />
    <glyph glyph-name="minus" unicode="&#x2212;" horiz-adv-x="450" 
d="M80 160v60h290v-60h-290z" />
    <glyph glyph-name="uni25CC" unicode="&#x25cc;" horiz-adv-x="698" 
d="M349 0q-26 0 -54 5l7 39q12 -2 23.5 -3t23.5 -1v-40zM396 44q20 4 45 14l15 -37q-13 -5 -26 -9t-26 -7zM242 21q-26 11 -48 26l22 33q18 -12 42 -22zM482 80q19 13 36 30l28 -28q-21 -21 -42 -35zM152 82q-10 9 -18.5 20t-16.5 22l33 22q13 -20 30 -36zM548 146
q12 18 22 42l37 -16q-10 -24 -26 -48zM91 172q-10 23 -16 52l39 8q4 -20 14 -45zM584 232q2 12 3 23.5t1 23.5l40 1q0 -27 -5 -55zM70 279q0 14 1.5 27t3.5 27l39 -8q-4 -20 -4 -46h-40zM583 326q-5 26 -13 45l37 15q5 -12 9 -25t7 -27zM91 386q11 26 26 48l33 -22
q-12 -18 -22 -42zM548 412q-14 19 -30 36l28 29q10 -10 18.5 -20.5t16.5 -21.5zM151 476q10 10 20.5 18.5t22.5 16.5l22 -33q-20 -14 -36 -30zM481 478q-10 7 -20 12t-21 10l15 37q13 -5 25 -11.5t24 -14.5zM242 537q23 10 52 16l8 -39q-11 -3 -22.5 -6t-22.5 -8zM395 514
q-20 4 -46 4l-1 40q14 0 27.5 -1.5t27.5 -3.5z" />
    <glyph glyph-name="uni2639" unicode="&#x2639;" horiz-adv-x="698" 
d="M349 543q56 0 105.5 -21.5t87 -59t59.5 -87.5t22 -106q0 -57 -22 -106.5t-59.5 -87t-87 -59t-105.5 -21.5t-106 22t-87.5 59.5t-59 87t-21.5 105.5t21.5 106t59 87.5t87.5 59t106 21.5zM349 31q48 0 91 19t75.5 51.5t51.5 75.5t19 92t-19 92t-51.5 75.5t-75.5 51.5
t-91 19t-91.5 -19t-76 -51.5t-51.5 -76t-19 -91.5t19 -91.5t51.5 -76t76 -51.5t91.5 -19zM444 373q16 0 27.5 -11.5t11.5 -27.5q0 -17 -12.5 -28.5t-26.5 -11.5q-16 0 -28 11.5t-12 28.5t11.5 28t28.5 11zM254 373q16 0 27.5 -11.5t11.5 -27.5t-11.5 -28t-27.5 -12t-28 11.5
t-12 28.5t11.5 28t28.5 11zM459 123q-20 30 -49.5 46t-60.5 16q-32 0 -62.5 -16.5t-47.5 -45.5l-27 15q46 93 137 93q44 0 78.5 -22.5t58.5 -70.5z" />
    <glyph glyph-name="uni263A" unicode="&#x263a;" horiz-adv-x="698" 
d="M349 543q56 0 105.5 -21.5t87 -59t59.5 -87.5t22 -106q0 -57 -22 -106.5t-59.5 -87t-87 -59t-105.5 -21.5t-106 22t-87.5 59.5t-59 87t-21.5 105.5t21.5 106t59 87.5t87.5 59t106 21.5zM349 31q48 0 91 19t75.5 51.5t51.5 75.5t19 92t-19 92t-51.5 75.5t-75.5 51.5
t-91 19t-91.5 -19t-76 -51.5t-51.5 -76t-19 -91.5t19 -91.5t51.5 -76t76 -51.5t91.5 -19zM444 373q16 0 27.5 -11.5t11.5 -27.5q0 -17 -12.5 -28.5t-26.5 -11.5q-16 0 -28 11.5t-12 28.5t11.5 28t28.5 11zM254 373q16 0 27.5 -11.5t11.5 -27.5t-11.5 -28t-27.5 -12t-28 11.5
t-12 28.5t11.5 28t28.5 11zM486 198q-50 -93 -137 -93q-91 0 -137 93l27 15q17 -29 47.5 -45.5t62.5 -16.5t61.5 17t48.5 46z" />
    <glyph glyph-name="uni0654064E" unicode="&#xe832;" 
d="M-60 -51h120v-29h-120v29zM38 85q-7 5 -18 9t-21 4q-22 0 -22 -16q0 -11 13 -25t35 -21h35v-36h-120v36h29q-26 24 -26 52q0 17 13 29.5t36 12.5q14 0 31 -5.5t31 -13.5z" />
    <glyph glyph-name="uni0654064B" unicode="&#xe833;" 
d="M-60 -45h120v-29h-120v29zM-60 -103h120v-29h-120v29zM38 85q-7 5 -18 9t-21 4q-22 0 -22 -16q0 -11 13 -25t35 -21h35v-36h-120v36h29q-26 24 -26 52q0 17 13 29.5t36 12.5q14 0 31 -5.5t31 -13.5z" />
    <glyph glyph-name="uni06540652" unicode="&#xe834;" 
d="M-57 232.5q0 23.5 17.5 40t40.5 16.5t40 -16.5t17 -40t-17 -40.5t-40 -17t-40.5 17t-17.5 40.5zM-30 232.5q0 -12.5 9 -21.5t22 -9t22 9t9 21.5t-9 21.5t-22 9t-22 -9t-9 -21.5zM38 85q-7 5 -18 9t-21 4q-22 0 -22 -16q0 -11 13 -25t35 -21h35v-36h-120v36h29
q-26 24 -26 52q0 17 13 29.5t36 12.5q14 0 31 -5.5t31 -13.5z" />
    <glyph glyph-name="uni0654064F" unicode="&#xe835;" 
d="M-42 176q19 11 31.5 22t20.5 22q-2 0 -4 -0.5t-4 -0.5q-22 0 -38.5 13t-16.5 38q0 26 17 39t35 13q24 0 38.5 -16t14.5 -38q0 -10 -4 -24t-14 -30.5t-25.5 -32t-38.5 -28.5zM27 270.5q0 11.5 -7.5 19t-19.5 7.5t-19.5 -7.5t-7.5 -19t7.5 -19.5t19.5 -8t19.5 8t7.5 19.5z
M38 85q-7 5 -18 9t-21 4q-22 0 -22 -16q0 -11 13 -25t35 -21h35v-36h-120v36h29q-26 24 -26 52q0 17 13 29.5t36 12.5q14 0 31 -5.5t31 -13.5z" />
    <glyph glyph-name="uni0654064C" unicode="&#xe836;" 
d="M-10 160q33 18 49 42q-2 0 -4.5 -0.5t-3.5 -0.5q-21 0 -37 12.5t-16 37.5t17 37t33 12q22 0 36 -15.5t14 -35.5q0 -10 -4 -23.5t-13 -29t-23.5 -31t-36.5 -26.5zM-40 169q-19 18 -27.5 38.5t-8.5 41.5q0 36 20 65l22 -14q-16 -24 -16 -49q0 -18 8 -35t26 -30zM54 231
q3 9 3 17q0 11 -8 19.5t-20 8.5q-7 0 -16 -6t-9 -19t9.5 -18.5t21 -5.5t19.5 4zM38 85q-7 5 -18 9t-21 4q-22 0 -22 -16q0 -11 13 -25t35 -21h35v-36h-120v36h29q-26 24 -26 52q0 17 13 29.5t36 12.5q14 0 31 -5.5t31 -13.5z" />
    <glyph glyph-name="uni06550650" unicode="&#xe837;" 
d="M-60 -213h120v-29h-120v29zM38 -80q-7 5 -18 9t-21 4q-22 0 -22 -16q0 -11 13 -25t35 -21h35v-36h-120v36h29q-26 24 -26 52q0 17 13 29.5t36 12.5q14 0 31 -5.5t31 -13.5z" />
    <glyph glyph-name="uni0654064D" unicode="&#xe838;" 
d="M-48 -394h120v-29h-120v29zM-48 -456h120v-29h-120v29zM38 -80q-7 5 -18 9t-21 4q-22 0 -22 -16q0 -11 13 -25t35 -21h35v-36h-120v36h29q-26 24 -26 52q0 17 13 29.5t36 12.5q14 0 31 -5.5t31 -13.5z" />
    <glyph glyph-name="logo" unicode="&#xf8ff;" horiz-adv-x="648" 
d="M598 -55h-548v548h548v-548zM534 279q3 -15 3 -30q0 -39 -14.5 -72.5t-39.5 -58.5t-59 -39.5t-72 -14.5q-39 0 -72.5 14.5t-58.5 39.5t-39.5 58.5t-14.5 72.5q0 37 14 70.5t38.5 58.5t57.5 40t71 16q-5 0 -12 1t-12 1q-45 0 -85 -17t-70 -47t-47 -70t-17 -85t17 -85
t47 -70t70 -47.5t85 -17.5t85 17.5t70 47.5t47 70t17 85q0 32 -9 62zM445 182q0 19 -7.5 36.5t-20 30t-29.5 20t-36 7.5q-20 0 -37 -7.5t-29.5 -20t-20 -30t-7.5 -36.5t7.5 -36t20 -29.5t29.5 -20t37 -7.5q19 0 36 7.5t29.5 20t20 29.5t7.5 36z" />
    <glyph glyph-name="p1" unicode="&#xfbb2;" 
d="M-7 92l49 -50l-42 -42l-50 49z" />
    <glyph glyph-name="p2" unicode="&#xfbb4;" 
d="M-62 92l49 -50l-42 -42l-50 49zM58 92l49 -50l-42 -42l-50 49z" />
    <glyph glyph-name="p3" unicode="&#xfbb6;" 
d="M-7 192l49 -50l-42 -42l-50 49zM-62 92l49 -50l-42 -42l-50 49zM58 92l49 -50l-42 -42l-50 49z" />
    <glyph glyph-name="uniFD3E" unicode="&#xfd3e;" horiz-adv-x="636" 
d="M50 220q11 6 20.5 18t20.5 24.5t23.5 21.5t29.5 9q9 0 24 -5q0 23 9 44.5t30 41.5q0 29 9 47.5t22 29t28 14.5t26 4q14 0 18 -4q0 39 11 64t29 41.5t41 28t46.5 23t45.5 26t39 37.5l14 -12q-25 -35 -49.5 -72t-44.5 -76t-32.5 -80t-12.5 -85v-280q0 -44 12.5 -85.5
t32.5 -80.5t44.5 -75.5t49.5 -71.5l-14 -12q-17 23 -39 37.5t-45.5 25.5t-46.5 22t-41 28t-29 42t-11 65q-3 -4 -18 -4q-11 0 -26 4t-28 14.5t-22 29t-9 47.5q-21 20 -30 41.5t-9 44.5q-11 -5 -24 -5q-17 0 -29.5 9t-23.5 21t-20.5 24.5t-20.5 18.5zM216 70
q9 -13 19.5 -18.5t21.5 -5.5q13 0 25.5 7.5t22 20.5t15.5 28.5t6 32.5q0 34 -26 59q0 -21 -14 -31.5t-30.5 -19t-30.5 -19t-14 -31.5q0 -8 5 -23zM216 370q-5 -15 -5 -24q0 -21 14 -31.5t30.5 -19.5t30.5 -19.5t14 -30.5q26 25 26 59q0 17 -6 33t-15.5 29t-22 20.5
t-25.5 7.5q-11 0 -21.5 -5.5t-19.5 -18.5zM218 220q-23 12 -37 30q-11 -2 -21 -10.5t-13 -19.5q3 -11 13 -19.5t21 -10.5q7 8 16 16t21 14z" />
    <glyph glyph-name="uniFD3F" unicode="&#xfd3f;" horiz-adv-x="636" 
d="M586 220q-11 6 -20.5 18t-20.5 24.5t-23.5 21.5t-29.5 9q-9 0 -24 -5q0 23 -9 44.5t-30 41.5q0 29 -9 47.5t-22 29t-28 14.5t-26 4q-14 0 -18 -4q0 39 -11 64t-29 41.5t-41 28t-46.5 23t-45.5 26t-39 37.5l-14 -12q25 -35 49.5 -72t44.5 -76t32.5 -80t12.5 -85v-280
q0 -44 -12.5 -85.5t-32.5 -80.5t-44.5 -75.5t-49.5 -71.5l14 -12q17 23 39 37.5t45.5 25.5t46.5 22t41 28t29 42t11 65q3 -4 18 -4q11 0 26 4t28 14.5t22 29t9 47.5q21 20 30 41.5t9 44.5q11 -5 24 -5q17 0 29.5 9t23.5 21t20.5 24.5t20.5 18.5zM420 70q-9 -13 -19.5 -18.5
t-21.5 -5.5q-13 0 -25.5 7.5t-22 20.5t-15.5 28.5t-6 32.5q0 34 26 59q0 -21 14 -31.5t30.5 -19t30.5 -19t14 -31.5q0 -8 -5 -23zM420 370q5 -15 5 -24q0 -21 -14 -31.5t-30.5 -19.5t-30.5 -19.5t-14 -30.5q-26 25 -26 59q0 17 6 33t15.5 29t22 20.5t25.5 7.5
q11 0 21.5 -5.5t19.5 -18.5zM418 220q23 12 37 30q11 -2 21 -10.5t13 -19.5q-3 -11 -13 -19.5t-21 -10.5q-7 8 -16 16t-21 14z" />
    <glyph glyph-name="alef2" horiz-adv-x="220" 
d="M140 540v-540h-60v540h60z" />
    <glyph glyph-name="aleff2" horiz-adv-x="220" 
d="M130 540v-480h90v-60h-150v540h60z" />
    <glyph glyph-name="uni06A7.init" horiz-adv-x="450" 
d="M144 60q-35 30 -54.5 70t-19.5 78q0 46 31 79t99 33h100q33 0 56.5 -23.5t23.5 -56.5v-240h-380q-13 0 -21.5 8.5t-8.5 21.5t8.5 21.5t21.5 8.5h144zM130 203q0 -22 12 -47t32.5 -46.5t48 -35.5t57.5 -14h40v180q0 8 -6 14t-14 6h-100q-38 0 -54 -16.5t-16 -40.5z
M218 492l49 -50l-42 -42l-50 49z" />
    <glyph glyph-name="uni06A7.medi" horiz-adv-x="480" 
d="M70 165q0 32 13.5 60.5t36.5 49.5t54 33t66 12t66 -12t54 -33t36.5 -49.5t13.5 -60.5q0 -31 -12 -58t-33 -47h115v-60h-480q-13 0 -21.5 8.5t-8.5 21.5t8.5 21.5t21.5 8.5h114q-44 42 -44 105zM130 160q0 -21 8.5 -39t23.5 -31.5t35 -21.5t43 -8t43 8t35 21.5t23.5 31.5
t8.5 39t-8.5 39t-23.5 31.5t-35 21.5t-43 8t-43 -8t-35 -21.5t-23.5 -31.5t-8.5 -39zM238 492l49 -50l-42 -42l-50 49z" />
    <glyph glyph-name="uni06A8.init" horiz-adv-x="450" 
d="M144 60q-35 30 -54.5 70t-19.5 78q0 46 31 79t99 33h100q33 0 56.5 -23.5t23.5 -56.5v-240h-380q-13 0 -21.5 8.5t-8.5 21.5t8.5 21.5t21.5 8.5h144zM130 203q0 -22 12 -47t32.5 -46.5t48 -35.5t57.5 -14h40v180q0 8 -6 14t-14 6h-100q-38 0 -54 -16.5t-16 -40.5z
M218 572l49 -50l-42 -42l-50 49zM163 472l49 -50l-42 -42l-50 49zM283 472l49 -50l-42 -42l-50 49z" />
    <glyph glyph-name="uni06A8.medi" horiz-adv-x="480" 
d="M70 165q0 32 13.5 60.5t36.5 49.5t54 33t66 12t66 -12t54 -33t36.5 -49.5t13.5 -60.5q0 -31 -12 -58t-33 -47h115v-60h-480q-13 0 -21.5 8.5t-8.5 21.5t8.5 21.5t21.5 8.5h114q-44 42 -44 105zM130 160q0 -21 8.5 -39t23.5 -31.5t35 -21.5t43 -8t43 8t35 21.5t23.5 31.5
t8.5 39t-8.5 39t-23.5 31.5t-35 21.5t-43 8t-43 -8t-35 -21.5t-23.5 -31.5t-8.5 -39zM232 572l49 -50l-42 -42l-50 49zM177 472l49 -50l-42 -42l-50 49zM297 472l49 -50l-42 -42l-50 49z" />
    <glyph glyph-name="uni06CC.medi" horiz-adv-x="300" 
d="M-30 30q0 13 8.5 21.5t21.5 8.5h120v260h60v-260h120v-60h-300q-13 0 -21.5 8.5t-8.5 21.5zM88 -58l49 -50l-42 -42l-50 49zM208 -58l49 -50l-42 -42l-50 49z" />
    <glyph glyph-name="uni0763.fina" horiz-adv-x="710" 
d="M150 0q-34 0 -57 23t-23 57v210h60v-210q0 -8 6 -14t14 -6h430v80q0 38 -18 61t-46 35t-62 16t-65 4l-13 54l224 216l42 -42l-177 -173q33 -4 64.5 -14t56 -29.5t39.5 -50.5t15 -77v-80h70v-60h-560zM303 510l49 -50l-42 -42l-50 49zM238 600l49 -50l-42 -42l-50 49z
M358 600l49 -50l-42 -42l-50 49z" />
    <glyph glyph-name="uni0763.init" horiz-adv-x="410" 
d="M76 310l224 216l43 -43l-183 -176q37 -4 69.5 -13.5t57 -28t39 -49t14.5 -76.5v-140h-340q-13 0 -21.5 8.5t-8.5 21.5t8.5 21.5t21.5 8.5h280v80q0 39 -18.5 62t-46.5 35t-62 15.5t-64 3.5zM131 589l49 -50l-42 -42l-50 49zM66 679l49 -50l-42 -42l-50 49zM186 679
l49 -50l-42 -42l-50 49z" />
    <glyph glyph-name="uni0763.medi" horiz-adv-x="390" 
d="M56 310l224 216l43 -43l-183 -176q37 -4 69.5 -13.5t57 -28t39 -49t14.5 -76.5v-80h70v-60h-390q-13 0 -21.5 8.5t-8.5 21.5t8.5 21.5t21.5 8.5h260v80q0 39 -18.5 62t-46.5 35t-62 15.5t-64 3.5zM131 589l49 -50l-42 -42l-50 49zM66 679l49 -50l-42 -42l-50 49zM186 679
l49 -50l-42 -42l-50 49z" />
    <glyph glyph-name="uni0651064B" 
d="M-89 172l177 28v-28l-177 -29v29zM-89 229l177 29v-29l-177 -28v28zM15 104q-1 -5 -1 -8v-8q0 -21 7.5 -31.5t13.5 -10.5t10.5 8t4.5 29q0 5 -0.5 11.5t-1.5 13.5l29 5q1 -5 1.5 -11.5t0.5 -14.5q0 -12 -2 -25t-7 -23.5t-13.5 -17t-21.5 -6.5q-8 0 -17 5t-14 13
q-6 -13 -16 -20t-20 -7q-17 0 -31.5 13.5t-14.5 43.5q0 11 3 25l30 5q-3 -15 -3 -26q0 -32 16 -32q7 0 14 10.5t7 30.5v11q0 5 -2 12z" />
    <glyph glyph-name="uni06F4.urdu" horiz-adv-x="520" 
d="M150 308q13 -5 30.5 -10t37 -9t38.5 -6.5t35 -2.5q31 0 55 10.5t24 39.5v190h60v-190q0 -32 -11.5 -53t-30.5 -34t-44.5 -18t-52.5 -5q-37 0 -74.5 7t-66.5 17v-244h-60v520h60v-212z" />
    <glyph glyph-name="uni06F7.urdu" horiz-adv-x="500" 
d="M90 0l178 520h63l-157 -460h236v-60h-320z" />
    <glyph glyph-name="bar" horiz-adv-x="220" 
d="M80 -210v860h60v-860h-60z" />
    <glyph glyph-name="p32" 
d="M3 42l49 -50l-42 -42l-50 49zM-62 132l49 -50l-42 -42l-50 49zM58 132l49 -50l-42 -42l-50 49z" />
    <glyph glyph-name="x.1dot.small" 
 />
    <glyph glyph-name="p22" 
d="M-7 92l49 -50l-42 -42l-50 49zM-7 -8l49 -50l-42 -42l-50 49z" />
    <glyph glyph-name="p3s" 
 />
    <glyph glyph-name="x.3dots.dsmall" 
 />
    <glyph glyph-name="x.wasla" 
d="M-65 30h15v56h30v-23l15 14q9 8 21 8h39q8 0 14 -6.5t6 -15.5v-63h-140v30zM-20 30h65v25h-35z" />
    <glyph glyph-name="x.hehgoalcomma" 
d="M68 -63q-18 -42 -34.5 -57t-38.5 -15q-30 0 -41 16.5t-11 40.5q0 19 8.5 41.5t15.5 36.5h33q-8 -14 -14 -28q-5 -12 -9 -25.5t-4 -24.5t4.5 -19t17.5 -8q11 0 21 11t24 43z" />
    <glyph glyph-name="x.ghehstroke" 
d="M-13 431l198 191l42 -43l-209 -201z" />
    <glyph glyph-name="uni0691_2" horiz-adv-x="250" 
d="M-1 -97q15 -3 30 -3q33 0 57 18t24 62v340h60v-340q0 -74 -35.5 -107t-95.5 -33q-26 0 -56 6zM59 430h15v106h28v-75l17 16q9 8 21 8h39q8 0 14 -6.5t6 -15.5v-63h-140v30zM104 430h65v25h-35z" />
    <glyph glyph-name="uni0698_2" horiz-adv-x="250" 
d="M-1 -97q15 -3 30 -3q33 0 57 18t24 62v340h60v-340q0 -74 -35.5 -107t-95.5 -33q-26 0 -56 6zM129 572l44 -50l-38 -42l-45 49zM79 472l44 -50l-38 -42l-45 49zM187 472l44 -50l-37 -42l-46 49z" />
    <glyph glyph-name="uni0698.fina2" horiz-adv-x="260" 
d="M170 320v-260h90v-60h-90v-20q0 -74 -35.5 -107t-95.5 -33q-26 0 -56 6l16 57q15 -3 30 -3q33 0 57 18t24 62v340h60zM119 572l44 -50l-38 -42l-45 49zM69 472l44 -50l-38 -42l-45 49zM177 472l44 -50l-37 -42l-46 49z" />
    <glyph glyph-name="rehf2" horiz-adv-x="260" 
d="M170 320v-260h90v-60h-90v-20q0 -74 -35.5 -107t-95.5 -33q-26 0 -56 6l16 57q15 -3 30 -3q33 0 57 18t24 62v340h60z" />
    <glyph glyph-name="reh2" horiz-adv-x="250" 
d="M-1 -97q15 -3 30 -3q33 0 57 18t24 62v340h60v-340q0 -74 -35.5 -107t-95.5 -33q-26 0 -56 6z" />
    <glyph glyph-name="zainf2" horiz-adv-x="260" 
d="M170 320v-260h90v-60h-90v-20q0 -74 -35.5 -107t-95.5 -33q-26 0 -56 6l16 57q15 -3 30 -3q33 0 57 18t24 62v340h60zM133 492l49 -50l-42 -42l-50 49z" />
    <glyph glyph-name="zain2" horiz-adv-x="250" 
d="M-1 -97q15 -3 30 -3q33 0 57 18t24 62v340h60v-340q0 -74 -35.5 -107t-95.5 -33q-26 0 -56 6zM133 492l49 -50l-42 -42l-50 49z" />
    <glyph glyph-name="uni0691.fina2" horiz-adv-x="260" 
d="M170 320v-260h90v-60h-90v-20q0 -74 -35.5 -107t-95.5 -33q-26 0 -56 6l16 57q15 -3 30 -3q33 0 57 18t24 62v340h60zM49 430h15v106h28v-75l17 16q9 8 21 8h39q8 0 14 -6.5t6 -15.5v-63h-140v30zM94 430h65v25h-35z" />
    <glyph glyph-name="sennam2" horiz-adv-x="235" 
 />
    <glyph glyph-name="sennan2" horiz-adv-x="310" 
d="M180 320h60v-320h-240q-13 0 -21.5 8.5t-8.5 21.5t8.5 21.5t21.5 8.5h180v260z" />
    <glyph glyph-name="hmzn2" horiz-adv-x="300" 
 />
    <glyph glyph-name="hmzm2" horiz-adv-x="235" 
 />
    <glyph glyph-name="behn2" horiz-adv-x="300" 
 />
    <glyph glyph-name="behm2" horiz-adv-x="235" 
 />
    <glyph glyph-name="tehn2" horiz-adv-x="300" 
 />
    <glyph glyph-name="tehm2" horiz-adv-x="235" 
 />
    <glyph glyph-name="thehn2" horiz-adv-x="300" 
 />
    <glyph glyph-name="thehm2" horiz-adv-x="235" 
 />
    <glyph glyph-name="noonn2" horiz-adv-x="300" 
 />
    <glyph glyph-name="noonm2" horiz-adv-x="235" 
 />
    <glyph glyph-name="yehn2" horiz-adv-x="310" 
d="M180 320h60v-320h-240q-13 0 -21.5 8.5t-8.5 21.5t8.5 21.5t21.5 8.5h180v260zM38 -88l49 -50l-42 -42l-50 49zM158 -88l49 -50l-42 -42l-50 49z" />
    <glyph glyph-name="yehm2" horiz-adv-x="235" 
 />
    <glyph glyph-name="uni0679.init2" horiz-adv-x="300" 
 />
    <glyph glyph-name="uni0679.medi2" horiz-adv-x="310" 
d="M180 320h60v-320h-240q-13 0 -21.5 8.5t-8.5 21.5t8.5 21.5t21.5 8.5h180v260zM103 -138l49 -50l-42 -42l-50 49zM38 -48l49 -50l-42 -42l-50 49zM158 -48l49 -50l-42 -42l-50 49z" />
    <glyph glyph-name="uni067E.init2" horiz-adv-x="235" 
 />
    <glyph glyph-name="uni067E.medi2" horiz-adv-x="235" 
 />
    <glyph glyph-name="sennayehf" horiz-adv-x="840" 
d="M330 100q0 39 15 74t40.5 60.5t60.5 40.5t74 15h168l53 -230h99v-60h-149l-51 230h-120q-27 0 -50.5 -10t-41.5 -28t-28 -41.5t-10 -50.5v-10h120q21 0 35.5 -14.5t14.5 -35.5v-20q0 -38 -14 -70.5t-38.5 -57t-57.5 -38.5t-70 -14h-130q-38 0 -70.5 14t-57 38.5t-38.5 57
t-14 70.5v120h60v-120q0 -25 9.5 -46.5t26 -38t38 -26t46.5 -9.5h130q25 0 46.5 9.5t38 26t26 38t9.5 46.5v10h-120q-21 0 -35.5 14.5t-14.5 35.5v20z" />
    <glyph glyph-name="yehyehf" horiz-adv-x="840" 
d="M330 100q0 39 15 74t40.5 60.5t60.5 40.5t74 15h168l53 -230h99v-60h-149l-51 230h-120q-27 0 -50.5 -10t-41.5 -28t-28 -41.5t-10 -50.5v-10h120q21 0 35.5 -14.5t14.5 -35.5v-20q0 -38 -14 -70.5t-38.5 -57t-57.5 -38.5t-70 -14h-130q-38 0 -70.5 14t-57 38.5t-38.5 57
t-14 70.5v120h60v-120q0 -25 9.5 -46.5t26 -38t38 -26t46.5 -9.5h130q25 0 46.5 9.5t38 26t26 38t9.5 46.5v10h-120q-21 0 -35.5 14.5t-14.5 35.5v20zM668 -58l49 -50l-42 -42l-50 49zM668 -158l49 -50l-42 -42l-50 49zM248 -208l49 -45l-42 -38l-50 44zM368 -208l49 -45
l-42 -38l-50 44z" />
    <glyph glyph-name="uni067Eyehf" horiz-adv-x="840" 
d="M330 100q0 39 15 74t40.5 60.5t60.5 40.5t74 15h168l53 -230h99v-60h-149l-51 230h-120q-27 0 -50.5 -10t-41.5 -28t-28 -41.5t-10 -50.5v-10h120q21 0 35.5 -14.5t14.5 -35.5v-20q0 -38 -14 -70.5t-38.5 -57t-57.5 -38.5t-70 -14h-130q-38 0 -70.5 14t-57 38.5t-38.5 57
t-14 70.5v120h60v-120q0 -25 9.5 -46.5t26 -38t38 -26t46.5 -9.5h130q25 0 46.5 9.5t38 26t26 38t9.5 46.5v10h-120q-21 0 -35.5 14.5t-14.5 35.5v20zM248 -208l49 -45l-42 -38l-50 44zM368 -208l49 -45l-42 -38l-50 44zM664 -58l49 -50l-42 -42l-50 49zM609 -158l49 -50
l-42 -42l-50 49zM729 -158l49 -50l-42 -42l-50 49z" />
    <glyph glyph-name="behyehhmzf" horiz-adv-x="840" 
d="M330 100q0 39 15 74t40.5 60.5t60.5 40.5t74 15h168l53 -230h99v-60h-149l-51 230h-120q-27 0 -50.5 -10t-41.5 -28t-28 -41.5t-10 -50.5v-10h120q21 0 35.5 -14.5t14.5 -35.5v-20q0 -38 -14 -70.5t-38.5 -57t-57.5 -38.5t-70 -14h-130q-38 0 -70.5 14t-57 38.5t-38.5 57
t-14 70.5v120h60v-120q0 -25 9.5 -46.5t26 -38t38 -26t46.5 -9.5h130q25 0 46.5 9.5t38 26t26 38t9.5 46.5v10h-120q-21 0 -35.5 14.5t-14.5 35.5v20zM667 -108l49 -50l-42 -42l-50 49zM148 325q-7 5 -18 9t-21 4q-22 0 -22 -16q0 -11 13 -25t35 -21h35v-36h-120v36h29
q-26 24 -26 52q0 17 13 29.5t36 12.5q14 0 31 -5.5t31 -13.5z" />
    <glyph glyph-name="yehyehhmzf" horiz-adv-x="840" 
d="M330 100q0 39 15 74t40.5 60.5t60.5 40.5t74 15h168l53 -230h99v-60h-149l-51 230h-120q-27 0 -50.5 -10t-41.5 -28t-28 -41.5t-10 -50.5v-10h120q21 0 35.5 -14.5t14.5 -35.5v-20q0 -38 -14 -70.5t-38.5 -57t-57.5 -38.5t-70 -14h-130q-38 0 -70.5 14t-57 38.5t-38.5 57
t-14 70.5v120h60v-120q0 -25 9.5 -46.5t26 -38t38 -26t46.5 -9.5h130q25 0 46.5 9.5t38 26t26 38t9.5 46.5v10h-120q-21 0 -35.5 14.5t-14.5 35.5v20zM668 -58l49 -50l-42 -42l-50 49zM668 -158l49 -50l-42 -42l-50 49zM148 325q-7 5 -18 9t-21 4q-22 0 -22 -16
q0 -11 13 -25t35 -21h35v-36h-120v36h29q-26 24 -26 52q0 17 13 29.5t36 12.5q14 0 31 -5.5t31 -13.5z" />
    <glyph glyph-name="uni067Eyehhmzf" horiz-adv-x="840" 
d="M330 100q0 39 15 74t40.5 60.5t60.5 40.5t74 15h168l53 -230h99v-60h-149l-51 230h-120q-27 0 -50.5 -10t-41.5 -28t-28 -41.5t-10 -50.5v-10h120q21 0 35.5 -14.5t14.5 -35.5v-20q0 -38 -14 -70.5t-38.5 -57t-57.5 -38.5t-70 -14h-130q-38 0 -70.5 14t-57 38.5t-38.5 57
t-14 70.5v120h60v-120q0 -25 9.5 -46.5t26 -38t38 -26t46.5 -9.5h130q25 0 46.5 9.5t38 26t26 38t9.5 46.5v10h-120q-21 0 -35.5 14.5t-14.5 35.5v20zM664 -58l49 -50l-42 -42l-50 49zM609 -158l49 -50l-42 -42l-50 49zM729 -158l49 -50l-42 -42l-50 49zM148 325q-7 5 -18 9
t-21 4q-22 0 -22 -16q0 -11 13 -25t35 -21h35v-36h-120v36h29q-26 24 -26 52q0 17 13 29.5t36 12.5q14 0 31 -5.5t31 -13.5z" />
    <glyph glyph-name="yehmaksuraf" horiz-adv-x="840" 
d="M330 100q0 39 15 74t40.5 60.5t60.5 40.5t74 15h168l53 -230h99v-60h-149l-51 230h-120q-27 0 -50.5 -10t-41.5 -28t-28 -41.5t-10 -50.5v-10h120q21 0 35.5 -14.5t14.5 -35.5v-20q0 -38 -14 -70.5t-38.5 -57t-57.5 -38.5t-70 -14h-130q-38 0 -70.5 14t-57 38.5t-38.5 57
t-14 70.5v120h60v-120q0 -25 9.5 -46.5t26 -38t38 -26t46.5 -9.5h130q25 0 46.5 9.5t38 26t26 38t9.5 46.5v10h-120q-21 0 -35.5 14.5t-14.5 35.5v20zM628 -58l49 -50l-42 -42l-50 49zM748 -58l49 -50l-42 -42l-50 49z" />
    <glyph glyph-name="sheen2maksura" horiz-adv-x="1220" 
d="M330 110q0 39 15 74t40.5 60.5t60.5 40.5t74 15h210v-220q0 -8 6 -14t14 -6h130v250h60v-250h130q8 0 14 6t6 14v230h60v-230q0 -33 -23.5 -56.5t-56.5 -23.5h-320q-33 0 -56.5 23.5t-23.5 56.5v160h-150q-27 0 -50.5 -10t-41.5 -28t-28 -41.5t-10 -50.5v-10h120
q21 0 35.5 -14.5t14.5 -35.5v-30q0 -38 -14 -70.5t-38.5 -57t-57.5 -38.5t-70 -14h-130q-38 0 -70.5 14t-57 38.5t-38.5 57t-14 70.5v120h60v-120q0 -25 9.5 -46.5t26 -38t38 -26t46.5 -9.5h130q25 0 46.5 9.5t38 26t26 38t9.5 46.5v20h-120q-21 0 -35.5 14.5t-14.5 35.5v20
zM911 -138l49 -50l-42 -42l-50 49zM846 -48l49 -50l-42 -42l-50 49zM966 -48l49 -50l-42 -42l-50 49zM903 572l49 -50l-42 -42l-50 49zM848 472l49 -50l-42 -42l-50 49zM968 472l49 -50l-42 -42l-50 49z" />
    <glyph glyph-name="sheen2maksuraf" horiz-adv-x="1260" 
d="M330 110q0 39 15 74t40.5 60.5t60.5 40.5t74 15h210v-220q0 -8 6 -14t14 -6h130v250h60v-250h150v250h60v-250h110v-60h-510q-33 0 -56.5 23.5t-23.5 56.5v160h-150q-27 0 -50.5 -10t-41.5 -28t-28 -41.5t-10 -50.5v-10h120q21 0 35.5 -14.5t14.5 -35.5v-30
q0 -38 -14 -70.5t-38.5 -57t-57.5 -38.5t-70 -14h-130q-38 0 -70.5 14t-57 38.5t-38.5 57t-14 70.5v120h60v-120q0 -25 9.5 -46.5t26 -38t38 -26t46.5 -9.5h130q25 0 46.5 9.5t38 26t26 38t9.5 46.5v20h-120q-21 0 -35.5 14.5t-14.5 35.5v20zM903 572l49 -50l-42 -42l-50 49
zM848 472l49 -50l-42 -42l-50 49zM968 472l49 -50l-42 -42l-50 49zM911 -138l49 -50l-42 -42l-50 49zM846 -48l49 -50l-42 -42l-50 49zM966 -48l49 -50l-42 -42l-50 49z" />
    <glyph glyph-name="sheen2yeh" horiz-adv-x="1220" 
d="M330 110q0 39 15 74t40.5 60.5t60.5 40.5t74 15h210v-220q0 -8 6 -14t14 -6h130v250h60v-250h130q8 0 14 6t6 14v230h60v-230q0 -33 -23.5 -56.5t-56.5 -23.5h-320q-33 0 -56.5 23.5t-23.5 56.5v160h-150q-27 0 -50.5 -10t-41.5 -28t-28 -41.5t-10 -50.5v-10h120
q21 0 35.5 -14.5t14.5 -35.5v-30q0 -38 -14 -70.5t-38.5 -57t-57.5 -38.5t-70 -14h-130q-38 0 -70.5 14t-57 38.5t-38.5 57t-14 70.5v120h60v-120q0 -25 9.5 -46.5t26 -38t38 -26t46.5 -9.5h130q25 0 46.5 9.5t38 26t26 38t9.5 46.5v20h-120q-21 0 -35.5 14.5t-14.5 35.5v20
zM911 -138l49 -50l-42 -42l-50 49zM846 -48l49 -50l-42 -42l-50 49zM966 -48l49 -50l-42 -42l-50 49zM903 572l49 -50l-42 -42l-50 49zM848 472l49 -50l-42 -42l-50 49zM968 472l49 -50l-42 -42l-50 49zM248 -198l49 -45l-42 -38l-50 44zM368 -198l49 -45l-42 -38l-50 44z
" />
    <glyph glyph-name="sheen2yehf" horiz-adv-x="1260" 
d="M330 110q0 39 15 74t40.5 60.5t60.5 40.5t74 15h210v-220q0 -8 6 -14t14 -6h130v250h60v-250h150v250h60v-250h110v-60h-510q-33 0 -56.5 23.5t-23.5 56.5v160h-150q-27 0 -50.5 -10t-41.5 -28t-28 -41.5t-10 -50.5v-10h120q21 0 35.5 -14.5t14.5 -35.5v-30
q0 -38 -14 -70.5t-38.5 -57t-57.5 -38.5t-70 -14h-130q-38 0 -70.5 14t-57 38.5t-38.5 57t-14 70.5v120h60v-120q0 -25 9.5 -46.5t26 -38t38 -26t46.5 -9.5h130q25 0 46.5 9.5t38 26t26 38t9.5 46.5v20h-120q-21 0 -35.5 14.5t-14.5 35.5v20zM911 -138l49 -50l-42 -42
l-50 49zM846 -48l49 -50l-42 -42l-50 49zM966 -48l49 -50l-42 -42l-50 49zM903 572l49 -50l-42 -42l-50 49zM848 472l49 -50l-42 -42l-50 49zM968 472l49 -50l-42 -42l-50 49zM248 -198l49 -45l-42 -38l-50 44zM368 -198l49 -45l-42 -38l-50 44z" />
    <glyph glyph-name="sheen2yehhmz" horiz-adv-x="1220" 
d="M330 110q0 39 15 74t40.5 60.5t60.5 40.5t74 15h210v-220q0 -8 6 -14t14 -6h130v250h60v-250h130q8 0 14 6t6 14v230h60v-230q0 -33 -23.5 -56.5t-56.5 -23.5h-320q-33 0 -56.5 23.5t-23.5 56.5v160h-150q-27 0 -50.5 -10t-41.5 -28t-28 -41.5t-10 -50.5v-10h120
q21 0 35.5 -14.5t14.5 -35.5v-30q0 -38 -14 -70.5t-38.5 -57t-57.5 -38.5t-70 -14h-130q-38 0 -70.5 14t-57 38.5t-38.5 57t-14 70.5v120h60v-120q0 -25 9.5 -46.5t26 -38t38 -26t46.5 -9.5h130q25 0 46.5 9.5t38 26t26 38t9.5 46.5v20h-120q-21 0 -35.5 14.5t-14.5 35.5v20
zM903 572l49 -50l-42 -42l-50 49zM848 472l49 -50l-42 -42l-50 49zM968 472l49 -50l-42 -42l-50 49zM911 -138l49 -50l-42 -42l-50 49zM846 -48l49 -50l-42 -42l-50 49zM966 -48l49 -50l-42 -42l-50 49zM148 325q-7 5 -18 9t-21 4q-22 0 -22 -16q0 -11 13 -25t35 -21h35v-36
h-120v36h29q-26 24 -26 52q0 17 13 29.5t36 12.5q14 0 31 -5.5t31 -13.5z" />
    <glyph glyph-name="sheen2yehhmzf" horiz-adv-x="1260" 
d="M330 110q0 39 15 74t40.5 60.5t60.5 40.5t74 15h210v-220q0 -8 6 -14t14 -6h130v250h60v-250h150v250h60v-250h110v-60h-510q-33 0 -56.5 23.5t-23.5 56.5v160h-150q-27 0 -50.5 -10t-41.5 -28t-28 -41.5t-10 -50.5v-10h120q21 0 35.5 -14.5t14.5 -35.5v-30
q0 -38 -14 -70.5t-38.5 -57t-57.5 -38.5t-70 -14h-130q-38 0 -70.5 14t-57 38.5t-38.5 57t-14 70.5v120h60v-120q0 -25 9.5 -46.5t26 -38t38 -26t46.5 -9.5h130q25 0 46.5 9.5t38 26t26 38t9.5 46.5v20h-120q-21 0 -35.5 14.5t-14.5 35.5v20zM903 572l49 -50l-42 -42l-50 49
zM848 472l49 -50l-42 -42l-50 49zM968 472l49 -50l-42 -42l-50 49zM911 -138l49 -50l-42 -42l-50 49zM846 -48l49 -50l-42 -42l-50 49zM966 -48l49 -50l-42 -42l-50 49zM148 325q-7 5 -18 9t-21 4q-22 0 -22 -16q0 -11 13 -25t35 -21h35v-36h-120v36h29q-26 24 -26 52
q0 17 13 29.5t36 12.5q14 0 31 -5.5t31 -13.5z" />
    <glyph glyph-name="uni067Emaksuraf" horiz-adv-x="840" 
d="M330 100q0 39 15 74t40.5 60.5t60.5 40.5t74 15h168l53 -230h99v-60h-149l-51 230h-120q-27 0 -50.5 -10t-41.5 -28t-28 -41.5t-10 -50.5v-10h120q21 0 35.5 -14.5t14.5 -35.5v-20q0 -38 -14 -70.5t-38.5 -57t-57.5 -38.5t-70 -14h-130q-38 0 -70.5 14t-57 38.5t-38.5 57
t-14 70.5v120h60v-120q0 -25 9.5 -46.5t26 -38t38 -26t46.5 -9.5h130q25 0 46.5 9.5t38 26t26 38t9.5 46.5v10h-120q-21 0 -35.5 14.5t-14.5 35.5v20zM664 -58l49 -50l-42 -42l-50 49zM609 -158l49 -50l-42 -42l-50 49zM729 -158l49 -50l-42 -42l-50 49z" />
    <glyph glyph-name="yehn3" horiz-adv-x="350" 
 />
    <glyph glyph-name="uni067En3" horiz-adv-x="350" 
 />
    <glyph glyph-name="sennan3" horiz-adv-x="265" 
 />
    <glyph glyph-name="k2" 
d="M-60 -205h120v-29h-120v29z" />
    <glyph glyph-name="lam2" horiz-adv-x="460" 
 />
    <glyph glyph-name="lamms" horiz-adv-x="250" 
 />
    <glyph glyph-name="tat40" horiz-adv-x="40" 
d="M-30 30q0 13 8.5 21.5t21.5 8.5h40v-60h-40q-13 0 -21.5 8.5t-8.5 21.5z" />
    <glyph glyph-name="maksuraf2" horiz-adv-x="670" 
d="M480 -120q13 0 21.5 9t8.5 20q0 13 -13 26l-162 164l42 42l80 -81h213v-60h-153l23 -23q16 -16 23 -33.5t7 -34.5q0 -18 -7 -34t-19 -28t-28.5 -19.5t-35.5 -7.5h-230q-37 0 -70 14t-57.5 38.5t-38.5 57.5t-14 70v130h60v-130q0 -25 9.5 -46.5t26 -38t38 -26t46.5 -9.5
h230z" />
    <glyph glyph-name="yehhmzf2" horiz-adv-x="670" 
d="M480 -120q13 0 21.5 9t8.5 20q0 13 -13 26l-162 164l42 42l80 -81h213v-60h-153l23 -23q16 -16 23 -33.5t7 -34.5q0 -18 -7 -34t-19 -28t-28.5 -19.5t-35.5 -7.5h-230q-37 0 -70 14t-57.5 38.5t-38.5 57.5t-14 70v130h60v-130q0 -25 9.5 -46.5t26 -38t38 -26t46.5 -9.5
h230zM148 325q-7 5 -18 9t-21 4q-22 0 -22 -16q0 -11 13 -25t35 -21h35v-36h-120v36h29q-26 24 -26 52q0 17 13 29.5t36 12.5q14 0 31 -5.5t31 -13.5z" />
    <glyph glyph-name="yehf2" horiz-adv-x="670" 
d="M480 -120q13 0 21.5 9t8.5 20q0 13 -13 26l-162 164l42 42l80 -81h213v-60h-153l23 -23q16 -16 23 -33.5t7 -34.5q0 -18 -7 -34t-19 -28t-28.5 -19.5t-35.5 -7.5h-230q-37 0 -70 14t-57.5 38.5t-38.5 57.5t-14 70v130h60v-130q0 -25 9.5 -46.5t26 -38t38 -26t46.5 -9.5
h230zM273 -218l49 -45l-42 -38l-50 44zM393 -218l49 -45l-42 -38l-50 44z" />
    <glyph glyph-name="uni06CC.fina2" horiz-adv-x="670" 
d="M480 -120q13 0 21.5 9t8.5 20q0 13 -13 26l-162 164l42 42l80 -81h213v-60h-153l23 -23q16 -16 23 -33.5t7 -34.5q0 -18 -7 -34t-19 -28t-28.5 -19.5t-35.5 -7.5h-230q-37 0 -70 14t-57.5 38.5t-38.5 57.5t-14 70v130h60v-130q0 -25 9.5 -46.5t26 -38t38 -26t46.5 -9.5
h230z" />
    <glyph glyph-name="tat200" horiz-adv-x="100" 
d="M-30 30q0 13 8.5 21.5t21.5 8.5h100v-60h-100q-13 0 -21.5 8.5t-8.5 21.5z" />
    <glyph glyph-name="lamn2" horiz-adv-x="220" 
d="M90 540h60v-540h-150q-13 0 -21.5 8.5t-8.5 21.5t8.5 21.5t21.5 8.5h90v480z" />
    <glyph glyph-name="hehm2" horiz-adv-x="410" 
d="M-30 30q0 13 8.5 21.5t21.5 8.5h77q9 81 57 153.5t151 126.5q12 -36 19.5 -74t7.5 -75q0 -35 -8.5 -66.5t-28 -56.5t-51.5 -42t-80 -23q15 -57 58 -112q0 37 12.5 68t36 53.5t56 35t73.5 12.5h30v-60h-29q-57 0 -90.5 -28.5t-33.5 -76.5q0 -11 1.5 -23.5t6.5 -25.5
l-51 -56q-55 49 -88 102t-44 108h-82q-13 0 -21.5 8.5t-8.5 21.5zM250 253q-57 -43 -84.5 -92.5t-28.5 -100.5q35 5 58.5 17t37.5 29.5t19.5 38.5t5.5 44q0 30 -8 64z" />
    <glyph glyph-name="radey" horiz-adv-x="1133" 
d="M1063 -55v-30h-510q-23 0 -31.5 10.5t-8.5 27.5q0 9 5 22l26 73q5 14 18 23t29 9h77v-135h120v135h30v-135h138q-17 17 -27.5 39t-10.5 42q0 27 17 45.5t55 18.5q17 0 34 -6t33 -16l-9 -29q-14 10 -29 15.5t-29 5.5q-22 0 -32 -10t-10 -24q0 -11 5.5 -24t14.5 -24.5
t20.5 -20.5t24.5 -12h50zM110 266q-23 0 -31.5 10.5t-8.5 27.5q0 9 5 22l26 73q5 14 18 23t29 9h77v-135h80v200h30v-200h85v235h30v-265h-340zM638 -55v105h-47q-6 0 -11 -4t-7 -9l-27 -73q0 -2 -0.5 -2.5t-0.5 -1.5q-2 -6 -2 -7q0 -8 10 -8h85zM195 296v105h-47
q-6 0 -11 -4t-7 -9l-27 -73q0 -2 -0.5 -2.5t-0.5 -1.5q-2 -6 -2 -7q0 -8 10 -8h85zM555 536v-275h-30v275h30zM722 141l33 -33l-22 -22l-33 33zM961 179q0 -38 -17.5 -56.5t-48.5 -18.5q-12 0 -27 3.5t-32 9.5l11 28q14 -5 26 -8t21 -3q16 0 26.5 10t10.5 35v170h30v-170z
M707 428l33 -33l-22 -22l-33 33zM363 55h40v-30h-40v30zM413 55h40v-30h-40v30zM488 120q7 0 11 4.5t4 9.5q0 6 -7 13l-70 71l22 22l30 -30h145v135h30v-81l37 30q23 18 39 28.5t27.5 15.5t20 6t16.5 1q29 0 49.5 -20.5t20.5 -49.5v-55q0 -17 -11.5 -28.5t-28.5 -11.5h-315
l11 -12q8 -8 11 -18t3 -16q0 -18 -12.5 -31t-32.5 -13h-120q-38 0 -64 26t-26 64v50h30v-50q0 -25 17.5 -42.5t42.5 -17.5h120zM653 227v-17h170q10 0 10 10v55q0 16 -11.5 28t-28.5 12q-7 0 -13.5 -1t-15.5 -5.5t-22 -13.5t-33 -25z" />
    <glyph glyph-name="uni06C1.initup" horiz-adv-x="260" 
d="M116 0q-11 -15 -21 -37t-10 -43q0 -19 13 -36t48 -28l-11 -59q-58 15 -82 45.5t-24 66.5q0 23 7.5 46t21.5 45h-58q-13 0 -21.5 8.5t-8.5 21.5q0 12 8.5 21t21.5 9h130v260h60v-320h-74z" />
  </font>
</defs>
</svg>
